Kelblok-Regular.ufo
<glyph name="exclam" format="2">
  <advance width="283"/>
  <unicode hex="0021"/>
  <outline>
    <contour>
      <point x="164" y="241" type="line" smooth="yes"/>
      <point x="186" y="241"/>
      <point x="202" y="255"/>
      <point x="204" y="277" type="curve" smooth="yes"/>
      <point x="244" y="631" type="line" smooth="yes"/>
      <point x="247" y="657"/>
      <point x="231" y="675"/>
      <point x="205" y="676" type="curve" smooth="yes"/>
      <point x="127" y="677" type="line" smooth="yes"/>
      <point x="103" y="677"/>
      <point x="87" y="661"/>
      <point x="86" y="638" type="curve" smooth="yes"/>
      <point x="77" y="283" type="line" smooth="yes"/>
      <point x="76" y="258"/>
      <point x="92" y="242"/>
      <point x="117" y="242" type="curve" smooth="yes"/>
    </contour>
    <contour>
      <point x="61" y="46" type="line" smooth="yes"/>
      <point x="61" y="24"/>
      <point x="76" y="8"/>
      <point x="97" y="6" type="curve" smooth="yes"/>
      <point x="154" y="1" type="line" smooth="yes"/>
      <point x="178" y="-1"/>
      <point x="195" y="14"/>
      <point x="197" y="38" type="curve" smooth="yes"/>
      <point x="202" y="95" type="line" smooth="yes"/>
      <point x="204" y="117"/>
      <point x="191" y="134"/>
      <point x="170" y="138" type="curve" smooth="yes"/>
      <point x="108" y="150" type="line" smooth="yes"/>
      <point x="79" y="155"/>
      <point x="60" y="139"/>
      <point x="60" y="110" type="curve" smooth="yes"/>
    </contour>
  </outline>
</glyph>
<glyph name="numbersign" format="2">
  <advance width="576"/>
  <unicode hex="0023"/>
  <outline>
    <contour>
      <point x="322" y="54" type="line" smooth="yes"/>
      <point x="321" y="29"/>
      <point x="338" y="13"/>
      <point x="363" y="13" type="curve" smooth="yes"/>
      <point x="434" y="16" type="line" smooth="yes"/>
      <point x="456" y="17"/>
      <point x="472" y="32"/>
      <point x="472" y="54" type="curve" smooth="yes"/>
      <point x="475" y="130" type="line"/>
      <point x="500" y="134" type="line" smooth="yes"/>
      <point x="515" y="136"/>
      <point x="525" y="147"/>
      <point x="525" y="162" type="curve" smooth="yes"/>
      <point x="526" y="263" type="line" smooth="yes"/>
      <point x="526" y="280"/>
      <point x="515" y="289"/>
      <point x="499" y="287" type="curve"/>
      <point x="471" y="282" type="line"/>
      <point x="471" y="383" type="line"/>
      <point x="506" y="381" type="line" smooth="yes"/>
      <point x="527" y="379"/>
      <point x="541" y="392"/>
      <point x="541" y="413" type="curve" smooth="yes"/>
      <point x="540" y="506" type="line" smooth="yes"/>
      <point x="540" y="527"/>
      <point x="525" y="542"/>
      <point x="504" y="542" type="curve" smooth="yes"/>
      <point x="467" y="542" type="line"/>
      <point x="466" y="644" type="line" smooth="yes"/>
      <point x="465" y="667"/>
      <point x="449" y="683"/>
      <point x="426" y="683" type="curve" smooth="yes"/>
      <point x="374" y="684" type="line" smooth="yes"/>
      <point x="349" y="684"/>
      <point x="333" y="668"/>
      <point x="334" y="643" type="curve" smooth="yes"/>
      <point x="336" y="542" type="line"/>
      <point x="242" y="540" type="line"/>
      <point x="240" y="633" type="line" smooth="yes"/>
      <point x="239" y="657"/>
      <point x="223" y="673"/>
      <point x="199" y="672" type="curve" smooth="yes"/>
      <point x="144" y="670" type="line" smooth="yes"/>
      <point x="121" y="669"/>
      <point x="106" y="654"/>
      <point x="105" y="631" type="curve" smooth="yes"/>
      <point x="102" y="536" type="line"/>
      <point x="68" y="535" type="line" smooth="yes"/>
      <point x="47" y="534"/>
      <point x="33" y="519"/>
      <point x="33" y="498" type="curve" smooth="yes"/>
      <point x="35" y="406" type="line" smooth="yes"/>
      <point x="35" y="387"/>
      <point x="47" y="376"/>
      <point x="66" y="377" type="curve" smooth="yes"/>
      <point x="97" y="378" type="line"/>
      <point x="98" y="265" type="line"/>
      <point x="72" y="266" type="line" smooth="yes"/>
      <point x="56" y="267"/>
      <point x="46" y="256"/>
      <point x="47" y="241" type="curve" smooth="yes"/>
      <point x="52" y="161" type="line"/>
      <point x="52" y="147"/>
      <point x="62" y="137"/>
      <point x="76" y="136" type="curve"/>
      <point x="99" y="133" type="line"/>
      <point x="96" y="57" type="line" smooth="yes"/>
      <point x="95" y="31"/>
      <point x="111" y="15"/>
      <point x="137" y="16" type="curve" smooth="yes"/>
      <point x="200" y="18" type="line" smooth="yes"/>
      <point x="221" y="18"/>
      <point x="237" y="34"/>
      <point x="238" y="55" type="curve" smooth="yes"/>
      <point x="242" y="123" type="line"/>
      <point x="324" y="122" type="line"/>
    </contour>
    <contour>
      <point x="248" y="382" type="line"/>
      <point x="333" y="386" type="line"/>
      <point x="332" y="269" type="line"/>
      <point x="246" y="268" type="line"/>
    </contour>
  </outline>
</glyph>
<glyph name="dollar" format="2">
  <advance width="587"/>
  <unicode hex="0024"/>
  <outline>
    <contour>
      <point x="331" y="-106" type="line" smooth="yes"/>
      <point x="357" y="-108"/>
      <point x="375" y="-92"/>
      <point x="375" y="-66" type="curve" smooth="yes"/>
      <point x="374" y="1" type="line"/>
      <point x="379" y="1" type="line" smooth="yes"/>
      <point x="382" y="1"/>
      <point x="386" y="2"/>
      <point x="388" y="4" type="curve"/>
      <point x="539" y="135" type="line" smooth="yes"/>
      <point x="549" y="143"/>
      <point x="554" y="158"/>
      <point x="552" y="170" type="curve" smooth="yes"/>
      <point x="532" y="326" type="line" smooth="yes"/>
      <point x="530" y="342"/>
      <point x="519" y="356"/>
      <point x="503" y="360" type="curve" smooth="yes"/>
      <point x="274" y="422" type="line"/>
      <point x="258" y="500" type="line"/>
      <point x="333" y="528" type="line"/>
      <point x="458" y="483" type="line" smooth="yes"/>
      <point x="487" y="472"/>
      <point x="509" y="486"/>
      <point x="511" y="518" type="curve" smooth="yes"/>
      <point x="519" y="623" type="line" smooth="yes"/>
      <point x="521" y="647"/>
      <point x="507" y="664"/>
      <point x="483" y="666" type="curve" smooth="yes"/>
      <point x="382" y="677" type="line"/>
      <point x="384" y="724" type="line" smooth="yes"/>
      <point x="384" y="752"/>
      <point x="366" y="769"/>
      <point x="338" y="765" type="curve" smooth="yes"/>
      <point x="281" y="758" type="line" smooth="yes"/>
      <point x="260" y="755"/>
      <point x="246" y="739"/>
      <point x="246" y="717" type="curve" smooth="yes"/>
      <point x="247" y="669" type="line"/>
      <point x="107" y="598" type="line" smooth="yes"/>
      <point x="96" y="592"/>
      <point x="87" y="579"/>
      <point x="86" y="567" type="curve" smooth="yes"/>
      <point x="61" y="354" type="line" smooth="yes"/>
      <point x="59" y="332"/>
      <point x="72" y="314"/>
      <point x="93" y="310" type="curve" smooth="yes"/>
      <point x="313" y="267" type="line"/>
      <point x="323" y="180" type="line"/>
      <point x="224" y="174" type="line"/>
      <point x="103" y="200" type="line" smooth="yes"/>
      <point x="79" y="205"/>
      <point x="60" y="192"/>
      <point x="55" y="168" type="curve" smooth="yes"/>
      <point x="37" y="70" type="line" smooth="yes"/>
      <point x="33" y="48"/>
      <point x="45" y="29"/>
      <point x="67" y="24" type="curve" smooth="yes"/>
      <point x="168" y="-2" type="line"/>
      <point x="171" y="-2"/>
      <point x="175" y="-3"/>
      <point x="179" y="-3" type="curve" smooth="yes"/>
      <point x="244" y="-1" type="line"/>
      <point x="243" y="-61" type="line" smooth="yes"/>
      <point x="242" y="-83"/>
      <point x="257" y="-99"/>
      <point x="279" y="-101" type="curve" smooth="yes"/>
    </contour>
  </outline>
</glyph>
<glyph name="percent" format="2">
  <advance width="871"/>
  <unicode hex="0025"/>
  <outline>
    <contour>
      <point x="287" y="-2" type="line" smooth="yes"/>
      <point x="306" y="-7"/>
      <point x="324" y="2"/>
      <point x="332" y="19" type="curve" smooth="yes"/>
      <point x="640" y="633" type="line" smooth="yes"/>
      <point x="653" y="658"/>
      <point x="643" y="681"/>
      <point x="616" y="689" type="curve" smooth="yes"/>
      <point x="596" y="696" type="line" smooth="yes"/>
      <point x="577" y="702"/>
      <point x="558" y="694"/>
      <point x="548" y="676" type="curve" smooth="yes"/>
      <point x="228" y="64" type="line" smooth="yes"/>
      <point x="214" y="37"/>
      <point x="225" y="14"/>
      <point x="254" y="6" type="curve" smooth="yes"/>
    </contour>
    <contour>
      <point x="103" y="399" type="line" smooth="yes"/>
      <point x="110" y="384"/>
      <point x="125" y="374"/>
      <point x="141" y="375" type="curve" smooth="yes"/>
      <point x="309" y="380" type="line" smooth="yes"/>
      <point x="323" y="381"/>
      <point x="337" y="390"/>
      <point x="343" y="403" type="curve" smooth="yes"/>
      <point x="405" y="532" type="line" smooth="yes"/>
      <point x="410" y="543"/>
      <point x="410" y="558"/>
      <point x="403" y="569" type="curve" smooth="yes"/>
      <point x="349" y="663" type="line" smooth="yes"/>
      <point x="342" y="676"/>
      <point x="327" y="684"/>
      <point x="313" y="683" type="curve" smooth="yes"/>
      <point x="161" y="676" type="line" smooth="yes"/>
      <point x="148" y="675"/>
      <point x="135" y="667"/>
      <point x="128" y="656" type="curve" smooth="yes"/>
      <point x="60" y="538" type="line" smooth="yes"/>
      <point x="54" y="528"/>
      <point x="53" y="514"/>
      <point x="58" y="502" type="curve" smooth="yes"/>
    </contour>
    <contour>
      <point x="206" y="474" type="line"/>
      <point x="194" y="582" type="line"/>
      <point x="289" y="582" type="line"/>
      <point x="270" y="474" type="line"/>
    </contour>
    <contour>
      <point x="511" y="34" type="line" smooth="yes"/>
      <point x="518" y="19"/>
      <point x="533" y="9"/>
      <point x="549" y="10" type="curve" smooth="yes"/>
      <point x="715" y="14" type="line" smooth="yes"/>
      <point x="730" y="15"/>
      <point x="744" y="24"/>
      <point x="750" y="37" type="curve" smooth="yes"/>
      <point x="812" y="167" type="line" smooth="yes"/>
      <point x="817" y="178"/>
      <point x="817" y="193"/>
      <point x="810" y="204" type="curve" smooth="yes"/>
      <point x="756" y="298" type="line" smooth="yes"/>
      <point x="749" y="311"/>
      <point x="734" y="319"/>
      <point x="720" y="318" type="curve" smooth="yes"/>
      <point x="569" y="311" type="line" smooth="yes"/>
      <point x="556" y="310"/>
      <point x="543" y="302"/>
      <point x="536" y="291" type="curve" smooth="yes"/>
      <point x="467" y="174" type="line" smooth="yes"/>
      <point x="461" y="163"/>
      <point x="460" y="149"/>
      <point x="465" y="137" type="curve" smooth="yes"/>
    </contour>
    <contour>
      <point x="613" y="109" type="line"/>
      <point x="601" y="216" type="line"/>
      <point x="697" y="216" type="line"/>
      <point x="677" y="109" type="line"/>
    </contour>
  </outline>
</glyph>
<glyph name="ampersand" format="2">
  <advance width="686"/>
  <unicode hex="0026"/>
  <outline>
    <contour>
      <point x="309" y="10" type="line"/>
      <point x="313" y="10"/>
      <point x="319" y="9"/>
      <point x="323" y="10" type="curve"/>
      <point x="544" y="43" type="line" smooth="yes"/>
      <point x="563" y="46"/>
      <point x="577" y="61"/>
      <point x="578" y="80" type="curve" smooth="yes"/>
      <point x="589" y="267" type="line"/>
      <point x="621" y="262" type="line" smooth="yes"/>
      <point x="640" y="259"/>
      <point x="654" y="270"/>
      <point x="654" y="289" type="curve" smooth="yes"/>
      <point x="658" y="372" type="line" smooth="yes"/>
      <point x="659" y="388"/>
      <point x="648" y="399"/>
      <point x="632" y="399" type="curve"/>
      <point x="604" y="398" type="line"/>
      <point x="607" y="456" type="line" smooth="yes"/>
      <point x="608" y="482"/>
      <point x="592" y="499"/>
      <point x="566" y="498" type="curve" smooth="yes"/>
      <point x="483" y="497" type="line" smooth="yes"/>
      <point x="466" y="496"/>
      <point x="451" y="485"/>
      <point x="446" y="468" type="curve" smooth="yes"/>
      <point x="431" y="419" type="line"/>
      <point x="331" y="412" type="line"/>
      <point x="261" y="445" type="line"/>
      <point x="249" y="569" type="line"/>
      <point x="314" y="590" type="line"/>
      <point x="321" y="558" type="line"/>
      <point x="324" y="540"/>
      <point x="340" y="528"/>
      <point x="359" y="530" type="curve" smooth="yes"/>
      <point x="436" y="539" type="line" smooth="yes"/>
      <point x="459" y="541"/>
      <point x="473" y="558"/>
      <point x="471" y="582" type="curve" smooth="yes"/>
      <point x="464" y="674" type="line" smooth="yes"/>
      <point x="462" y="699"/>
      <point x="445" y="713"/>
      <point x="420" y="711" type="curve" smooth="yes"/>
      <point x="149" y="685" type="line" smooth="yes"/>
      <point x="134" y="683"/>
      <point x="120" y="672"/>
      <point x="115" y="657" type="curve" smooth="yes"/>
      <point x="65" y="499" type="line"/>
      <point x="62" y="486"/>
      <point x="65" y="471"/>
      <point x="73" y="461" type="curve" smooth="yes"/>
      <point x="155" y="362" type="line"/>
      <point x="48" y="274" type="line"/>
      <point x="35" y="262"/>
      <point x="30" y="244"/>
      <point x="37" y="228" type="curve" smooth="yes"/>
      <point x="98" y="72" type="line" smooth="yes"/>
      <point x="103" y="60"/>
      <point x="114" y="50"/>
      <point x="127" y="48" type="curve"/>
    </contour>
    <contour>
      <point x="247" y="232" type="line"/>
      <point x="378" y="268" type="line"/>
      <point x="388" y="153" type="line"/>
      <point x="292" y="147" type="line"/>
    </contour>
  </outline>
</glyph>
<glyph name="parenleft" format="2">
  <advance width="352"/>
  <unicode hex="0028"/>
  <outline>
    <contour>
      <point x="271" y="-65" type="line" smooth="yes"/>
      <point x="301" y="-71"/>
      <point x="320" y="-55"/>
      <point x="319" y="-24" type="curve" smooth="yes"/>
      <point x="318" y="20" type="line" smooth="yes"/>
      <point x="317" y="39"/>
      <point x="305" y="54"/>
      <point x="286" y="58" type="curve" smooth="yes"/>
      <point x="224" y="71" type="line"/>
      <point x="207" y="317" type="line"/>
      <point x="224" y="563" type="line"/>
      <point x="297" y="581" type="line" smooth="yes"/>
      <point x="316" y="586"/>
      <point x="328" y="602"/>
      <point x="328" y="622" type="curve"/>
      <point x="325" y="672" type="line" smooth="yes"/>
      <point x="324" y="703"/>
      <point x="303" y="717"/>
      <point x="274" y="708" type="curve" smooth="yes"/>
      <point x="119" y="662" type="line" smooth="yes"/>
      <point x="104" y="658"/>
      <point x="93" y="645"/>
      <point x="91" y="631" type="curve" smooth="yes"/>
      <point x="35" y="313" type="line"/>
      <point x="34" y="309"/>
      <point x="34" y="305"/>
      <point x="35" y="301" type="curve"/>
      <point x="76" y="2" type="line" smooth="yes"/>
      <point x="78" y="-15"/>
      <point x="91" y="-28"/>
      <point x="108" y="-32" type="curve" smooth="yes"/>
    </contour>
  </outline>
</glyph>
<glyph name="parenright" format="2">
  <advance width="349"/>
  <unicode hex="0029"/>
  <outline>
    <contour>
      <point x="26" y="-29" type="line" smooth="yes"/>
      <point x="27" y="-58"/>
      <point x="47" y="-73"/>
      <point x="76" y="-67" type="curve" smooth="yes"/>
      <point x="230" y="-29" type="line" smooth="yes"/>
      <point x="246" y="-25"/>
      <point x="258" y="-13"/>
      <point x="260" y="3" type="curve" smooth="yes"/>
      <point x="314" y="334" type="line"/>
      <point x="315" y="338"/>
      <point x="315" y="344"/>
      <point x="314" y="348" type="curve"/>
      <point x="262" y="645" type="line" smooth="yes"/>
      <point x="260" y="661"/>
      <point x="248" y="673"/>
      <point x="232" y="677" type="curve" smooth="yes"/>
      <point x="81" y="712" type="line" smooth="yes"/>
      <point x="51" y="719"/>
      <point x="31" y="704"/>
      <point x="32" y="673" type="curve" smooth="yes"/>
      <point x="32" y="627" type="line"/>
      <point x="33" y="608"/>
      <point x="46" y="592"/>
      <point x="65" y="589" type="curve" smooth="yes"/>
      <point x="128" y="576" type="line"/>
      <point x="145" y="331" type="line"/>
      <point x="131" y="83" type="line"/>
      <point x="55" y="66" type="line" smooth="yes"/>
      <point x="36" y="62"/>
      <point x="23" y="46"/>
      <point x="24" y="26" type="curve" smooth="yes"/>
    </contour>
  </outline>
</glyph>
<glyph name="asterisk" format="2">
  <advance width="421"/>
  <unicode hex="002A"/>
  <outline>
    <contour>
      <point x="155" y="365" type="line" smooth="yes"/>
      <point x="155" y="339"/>
      <point x="171" y="323"/>
      <point x="197" y="324" type="curve" smooth="yes"/>
      <point x="221" y="325" type="line" smooth="yes"/>
      <point x="243" y="325"/>
      <point x="259" y="341"/>
      <point x="260" y="363" type="curve" smooth="yes"/>
      <point x="262" y="419" type="line"/>
      <point x="298" y="382" type="line" smooth="yes"/>
      <point x="316" y="365"/>
      <point x="338" y="365"/>
      <point x="356" y="382" type="curve"/>
      <point x="362" y="390" type="line"/>
      <point x="380" y="407"/>
      <point x="379" y="430"/>
      <point x="361" y="447" type="curve" smooth="yes"/>
      <point x="290" y="512" type="line"/>
      <point x="360" y="570" type="line" smooth="yes"/>
      <point x="380" y="587"/>
      <point x="381" y="611"/>
      <point x="361" y="630" type="curve" smooth="yes"/>
      <point x="347" y="643" type="line" smooth="yes"/>
      <point x="331" y="659"/>
      <point x="310" y="658"/>
      <point x="295" y="642" type="curve" smooth="yes"/>
      <point x="270" y="614" type="line"/>
      <point x="267" y="665" type="line" smooth="yes"/>
      <point x="265" y="689"/>
      <point x="248" y="704"/>
      <point x="224" y="702" type="curve" smooth="yes"/>
      <point x="209" y="701" type="line" smooth="yes"/>
      <point x="185" y="699"/>
      <point x="170" y="682"/>
      <point x="172" y="658" type="curve" smooth="yes"/>
      <point x="177" y="604" type="line"/>
      <point x="124" y="647" type="line" smooth="yes"/>
      <point x="108" y="660"/>
      <point x="88" y="660"/>
      <point x="72" y="647" type="curve"/>
      <point x="57" y="633" type="line"/>
      <point x="38" y="617"/>
      <point x="37" y="594"/>
      <point x="54" y="576" type="curve" smooth="yes"/>
      <point x="116" y="510" type="line"/>
      <point x="61" y="441" type="line" smooth="yes"/>
      <point x="46" y="422"/>
      <point x="49" y="399"/>
      <point x="68" y="384" type="curve" smooth="yes"/>
      <point x="81" y="374" type="line" smooth="yes"/>
      <point x="99" y="360"/>
      <point x="120" y="363"/>
      <point x="134" y="381" type="curve" smooth="yes"/>
      <point x="157" y="410" type="line"/>
    </contour>
  </outline>
</glyph>
<glyph name="plus" format="2">
  <advance width="362"/>
  <unicode hex="002B"/>
  <outline>
    <contour>
      <point x="126" y="192" type="line" smooth="yes"/>
      <point x="127" y="167"/>
      <point x="145" y="152"/>
      <point x="170" y="154" type="curve" smooth="yes"/>
      <point x="219" y="159" type="line" smooth="yes"/>
      <point x="239" y="161"/>
      <point x="254" y="176"/>
      <point x="255" y="196" type="curve" smooth="yes"/>
      <point x="259" y="266" type="line"/>
      <point x="293" y="268" type="line"/>
      <point x="314" y="268"/>
      <point x="329" y="283"/>
      <point x="330" y="304" type="curve" smooth="yes"/>
      <point x="332" y="357" type="line" smooth="yes"/>
      <point x="333" y="383"/>
      <point x="317" y="400"/>
      <point x="291" y="399" type="curve" smooth="yes"/>
      <point x="248" y="398" type="line"/>
      <point x="252" y="450" type="line" smooth="yes"/>
      <point x="255" y="477"/>
      <point x="238" y="494"/>
      <point x="211" y="494" type="curve"/>
      <point x="161" y="492" type="line" smooth="yes"/>
      <point x="140" y="491"/>
      <point x="125" y="477"/>
      <point x="123" y="456" type="curve" smooth="yes"/>
      <point x="117" y="392" type="line"/>
      <point x="70" y="392" type="line" smooth="yes"/>
      <point x="45" y="392"/>
      <point x="29" y="375"/>
      <point x="30" y="350" type="curve" smooth="yes"/>
      <point x="34" y="292" type="line" smooth="yes"/>
      <point x="35" y="268"/>
      <point x="52" y="253"/>
      <point x="77" y="255" type="curve" smooth="yes"/>
      <point x="124" y="259" type="line"/>
    </contour>
  </outline>
</glyph>
<glyph name="comma" format="2">
  <advance width="229"/>
  <unicode hex="002C"/>
  <outline>
    <contour>
      <point x="42" y="-110" type="line" smooth="yes"/>
      <point x="61" y="-123"/>
      <point x="82" y="-120"/>
      <point x="97" y="-102" type="curve" smooth="yes"/>
      <point x="196" y="24" type="line"/>
      <point x="203" y="32"/>
      <point x="206" y="45"/>
      <point x="204" y="56" type="curve" smooth="yes"/>
      <point x="190" y="134" type="line" smooth="yes"/>
      <point x="186" y="156"/>
      <point x="168" y="169"/>
      <point x="146" y="167" type="curve" smooth="yes"/>
      <point x="71" y="160" type="line" smooth="yes"/>
      <point x="42" y="157"/>
      <point x="28" y="136"/>
      <point x="36" y="108" type="curve" smooth="yes"/>
      <point x="63" y="20" type="line"/>
      <point x="22" y="-52" type="line" smooth="yes"/>
      <point x="11" y="-70"/>
      <point x="16" y="-91"/>
      <point x="34" y="-104" type="curve" smooth="yes"/>
    </contour>
  </outline>
</glyph>
<glyph name="hyphenminus" format="2">
  <advance width="291"/>
  <unicode hex="002D"/>
  <outline>
    <contour>
      <point x="26" y="302" type="line" smooth="yes"/>
      <point x="26" y="276"/>
      <point x="43" y="260"/>
      <point x="69" y="261" type="curve" smooth="yes"/>
      <point x="226" y="271" type="line" smooth="yes"/>
      <point x="250" y="272"/>
      <point x="265" y="289"/>
      <point x="263" y="313" type="curve" smooth="yes"/>
      <point x="261" y="348" type="line" smooth="yes"/>
      <point x="259" y="370"/>
      <point x="243" y="385"/>
      <point x="221" y="386" type="curve" smooth="yes"/>
      <point x="67" y="388" type="line" smooth="yes"/>
      <point x="43" y="389"/>
      <point x="27" y="373"/>
      <point x="27" y="349" type="curve" smooth="yes"/>
    </contour>
  </outline>
</glyph>
<glyph name="period" format="2">
  <advance width="254"/>
  <unicode hex="002E"/>
  <outline>
    <contour>
      <point x="52" y="46" type="line" smooth="yes"/>
      <point x="52" y="24"/>
      <point x="67" y="8"/>
      <point x="89" y="6" type="curve" smooth="yes"/>
      <point x="147" y="2" type="line" smooth="yes"/>
      <point x="167" y="1"/>
      <point x="184" y="13"/>
      <point x="189" y="33" type="curve" smooth="yes"/>
      <point x="208" y="114" type="line" smooth="yes"/>
      <point x="215" y="142"/>
      <point x="200" y="162"/>
      <point x="170" y="163" type="curve" smooth="yes"/>
      <point x="92" y="166" type="line" smooth="yes"/>
      <point x="67" y="166"/>
      <point x="50" y="150"/>
      <point x="51" y="125" type="curve" smooth="yes"/>
    </contour>
  </outline>
</glyph>
<glyph name="slash" format="2">
  <advance width="498"/>
  <unicode hex="002F"/>
  <outline>
    <contour>
      <point x="149" y="-62" type="line" smooth="yes"/>
      <point x="173" y="-71"/>
      <point x="194" y="-62"/>
      <point x="202" y="-37" type="curve" smooth="yes"/>
      <point x="435" y="668" type="line" smooth="yes"/>
      <point x="443" y="692"/>
      <point x="432" y="712"/>
      <point x="409" y="719" type="curve" smooth="yes"/>
      <point x="368" y="732" type="line" smooth="yes"/>
      <point x="347" y="739"/>
      <point x="327" y="729"/>
      <point x="319" y="707" type="curve" smooth="yes"/>
      <point x="63" y="15" type="line" smooth="yes"/>
      <point x="55" y="-7"/>
      <point x="64" y="-27"/>
      <point x="86" y="-36" type="curve" smooth="yes"/>
    </contour>
  </outline>
</glyph>
<glyph name="zero" format="2">
  <advance width="640"/>
  <unicode hex="0030"/>
  <outline>
    <contour>
      <point x="130" y="35" type="line" smooth="yes"/>
      <point x="137" y="25"/>
      <point x="150" y="18"/>
      <point x="163" y="18" type="curve" smooth="yes"/>
      <point x="494" y="22" type="line" smooth="yes"/>
      <point x="508" y="22"/>
      <point x="522" y="30"/>
      <point x="528" y="42" type="curve"/>
      <point x="598" y="166" type="line" smooth="yes"/>
      <point x="601" y="171"/>
      <point x="603" y="179"/>
      <point x="603" y="186" type="curve" smooth="yes"/>
      <point x="597" y="530" type="line" smooth="yes"/>
      <point x="597" y="538"/>
      <point x="594" y="547"/>
      <point x="589" y="553" type="curve"/>
      <point x="502" y="672" type="line" smooth="yes"/>
      <point x="495" y="682"/>
      <point x="482" y="689"/>
      <point x="469" y="689" type="curve"/>
      <point x="215" y="685" type="line"/>
      <point x="210" y="685"/>
      <point x="203" y="683"/>
      <point x="198" y="681" type="curve"/>
      <point x="96" y="629" type="line" smooth="yes"/>
      <point x="84" y="623"/>
      <point x="75" y="610"/>
      <point x="74" y="597" type="curve" smooth="yes"/>
      <point x="34" y="188" type="line"/>
      <point x="34" y="179"/>
      <point x="36" y="168"/>
      <point x="42" y="161" type="curve"/>
    </contour>
    <contour>
      <point x="230" y="190" type="line"/>
      <point x="251" y="515" type="line"/>
      <point x="412" y="540" type="line"/>
      <point x="413" y="176" type="line"/>
    </contour>
  </outline>
</glyph>
<glyph name="one" format="2">
  <advance width="352"/>
  <unicode hex="0031"/>
  <outline>
    <contour>
      <point x="131" y="75" type="line" smooth="yes"/>
      <point x="131" y="50"/>
      <point x="148" y="34"/>
      <point x="173" y="35" type="curve" smooth="yes"/>
      <point x="264" y="41" type="line" smooth="yes"/>
      <point x="286" y="42"/>
      <point x="301" y="58"/>
      <point x="302" y="80" type="curve" smooth="yes"/>
      <point x="312" y="641" type="line" smooth="yes"/>
      <point x="313" y="667"/>
      <point x="295" y="684"/>
      <point x="269" y="681" type="curve" smooth="yes"/>
      <point x="61" y="664" type="line" smooth="yes"/>
      <point x="37" y="662"/>
      <point x="22" y="645"/>
      <point x="25" y="621" type="curve" smooth="yes"/>
      <point x="31" y="551" type="line" smooth="yes"/>
      <point x="33" y="523"/>
      <point x="52" y="513"/>
      <point x="77" y="524" type="curve" smooth="yes"/>
      <point x="119" y="543" type="line"/>
      <point x="128" y="286" type="line"/>
    </contour>
  </outline>
</glyph>
<glyph name="two" format="2">
  <advance width="551"/>
  <unicode hex="0032"/>
  <outline>
    <contour>
      <point x="470" y="1" type="line" smooth="yes"/>
      <point x="494" y="1"/>
      <point x="511" y="16"/>
      <point x="511" y="40" type="curve" smooth="yes"/>
      <point x="515" y="140" type="line" smooth="yes"/>
      <point x="515" y="166"/>
      <point x="499" y="182"/>
      <point x="473" y="181" type="curve" smooth="yes"/>
      <point x="240" y="171" type="line"/>
      <point x="229" y="224" type="line"/>
      <point x="490" y="371" type="line" smooth="yes"/>
      <point x="504" y="379"/>
      <point x="512" y="395"/>
      <point x="510" y="410" type="curve" smooth="yes"/>
      <point x="487" y="612" type="line" smooth="yes"/>
      <point x="485" y="626"/>
      <point x="475" y="639"/>
      <point x="463" y="644" type="curve" smooth="yes"/>
      <point x="295" y="716" type="line" smooth="yes"/>
      <point x="288" y="719"/>
      <point x="278" y="720"/>
      <point x="270" y="718" type="curve" smooth="yes"/>
      <point x="70" y="669" type="line" smooth="yes"/>
      <point x="48" y="664"/>
      <point x="36" y="645"/>
      <point x="41" y="622" type="curve" smooth="yes"/>
      <point x="57" y="543" type="line" smooth="yes"/>
      <point x="62" y="517"/>
      <point x="83" y="505"/>
      <point x="108" y="513" type="curve" smooth="yes"/>
      <point x="256" y="558" type="line"/>
      <point x="326" y="512" type="line"/>
      <point x="331" y="466" type="line"/>
      <point x="68" y="313" type="line"/>
      <point x="56" y="307"/>
      <point x="48" y="293"/>
      <point x="48" y="279" type="curve" smooth="yes"/>
      <point x="45" y="55" type="line" smooth="yes"/>
      <point x="45" y="32"/>
      <point x="61" y="15"/>
      <point x="84" y="15" type="curve" smooth="yes"/>
    </contour>
  </outline>
</glyph>
<glyph name="three" format="2">
  <advance width="570"/>
  <unicode hex="0033"/>
  <outline>
    <contour>
      <point x="300" y="-18" type="line" smooth="yes"/>
      <point x="310" y="-20"/>
      <point x="323" y="-17"/>
      <point x="331" y="-11" type="curve" smooth="yes"/>
      <point x="511" y="118" type="line" smooth="yes"/>
      <point x="520" y="125"/>
      <point x="526" y="137"/>
      <point x="527" y="148" type="curve" smooth="yes"/>
      <point x="536" y="289" type="line"/>
      <point x="536" y="303"/>
      <point x="529" y="317"/>
      <point x="518" y="325" type="curve" smooth="yes"/>
      <point x="429" y="385" type="line"/>
      <point x="513" y="455" type="line" smooth="yes"/>
      <point x="527" y="467"/>
      <point x="532" y="486"/>
      <point x="524" y="503" type="curve" smooth="yes"/>
      <point x="455" y="646" type="line" smooth="yes"/>
      <point x="450" y="656"/>
      <point x="440" y="665"/>
      <point x="429" y="668" type="curve" smooth="yes"/>
      <point x="278" y="704" type="line"/>
      <point x="272" y="706"/>
      <point x="263" y="706"/>
      <point x="256" y="703" type="curve"/>
      <point x="68" y="640" type="line" smooth="yes"/>
      <point x="44" y="632"/>
      <point x="34" y="612"/>
      <point x="43" y="589" type="curve" smooth="yes"/>
      <point x="71" y="509" type="line" smooth="yes"/>
      <point x="79" y="485"/>
      <point x="101" y="475"/>
      <point x="124" y="485" type="curve" smooth="yes"/>
      <point x="217" y="523" type="line"/>
      <point x="320" y="522" type="line"/>
      <point x="320" y="440" type="line"/>
      <point x="218" y="436" type="line" smooth="yes"/>
      <point x="196" y="435"/>
      <point x="181" y="420"/>
      <point x="179" y="399" type="curve" smooth="yes"/>
      <point x="175" y="333" type="line" smooth="yes"/>
      <point x="172" y="304"/>
      <point x="190" y="287"/>
      <point x="219" y="291" type="curve" smooth="yes"/>
      <point x="323" y="303" type="line"/>
      <point x="343" y="196" type="line"/>
      <point x="227" y="162" type="line"/>
      <point x="118" y="194" type="line" smooth="yes"/>
      <point x="95" y="201"/>
      <point x="75" y="190"/>
      <point x="68" y="167" type="curve" smooth="yes"/>
      <point x="41" y="73" type="line" smooth="yes"/>
      <point x="34" y="48"/>
      <point x="46" y="28"/>
      <point x="73" y="23" type="curve" smooth="yes"/>
    </contour>
  </outline>
</glyph>
<glyph name="four" format="2">
  <advance width="623"/>
  <unicode hex="0034"/>
  <outline>
    <contour>
      <point x="336" y="58" type="line" smooth="yes"/>
      <point x="334" y="32"/>
      <point x="351" y="15"/>
      <point x="377" y="16" type="curve" smooth="yes"/>
      <point x="486" y="20" type="line" smooth="yes"/>
      <point x="508" y="21"/>
      <point x="523" y="37"/>
      <point x="524" y="59" type="curve" smooth="yes"/>
      <point x="527" y="164" type="line"/>
      <point x="561" y="163" type="line" smooth="yes"/>
      <point x="581" y="162"/>
      <point x="594" y="176"/>
      <point x="593" y="196" type="curve" smooth="yes"/>
      <point x="587" y="287" type="line" smooth="yes"/>
      <point x="586" y="308"/>
      <point x="572" y="320"/>
      <point x="551" y="318" type="curve" smooth="yes"/>
      <point x="518" y="314" type="line"/>
      <point x="517" y="454" type="line" smooth="yes"/>
      <point x="517" y="480"/>
      <point x="500" y="496"/>
      <point x="475" y="494" type="curve" smooth="yes"/>
      <point x="392" y="488" type="line" smooth="yes"/>
      <point x="370" y="487"/>
      <point x="355" y="471"/>
      <point x="354" y="449" type="curve" smooth="yes"/>
      <point x="352" y="315" type="line"/>
      <point x="227" y="317" type="line"/>
      <point x="269" y="606" type="line" smooth="yes"/>
      <point x="272" y="626"/>
      <point x="261" y="643"/>
      <point x="242" y="649" type="curve" smooth="yes"/>
      <point x="175" y="671" type="line" smooth="yes"/>
      <point x="151" y="679"/>
      <point x="131" y="668"/>
      <point x="124" y="644" type="curve" smooth="yes"/>
      <point x="32" y="310" type="line"/>
      <point x="31" y="305"/>
      <point x="30" y="299"/>
      <point x="31" y="294" type="curve"/>
      <point x="47" y="177" type="line" smooth="yes"/>
      <point x="50" y="155"/>
      <point x="67" y="141"/>
      <point x="89" y="142" type="curve" smooth="yes"/>
      <point x="342" y="159" type="line"/>
    </contour>
  </outline>
</glyph>
<glyph name="five" format="2">
  <advance width="586"/>
  <unicode hex="0035"/>
  <outline>
    <contour>
      <point x="285" y="-21" type="line" smooth="yes"/>
      <point x="293" y="-22"/>
      <point x="303" y="-21"/>
      <point x="309" y="-17" type="curve"/>
      <point x="531" y="103" type="line"/>
      <point x="544" y="109"/>
      <point x="552" y="124"/>
      <point x="552" y="138" type="curve" smooth="yes"/>
      <point x="550" y="321" type="line" smooth="yes"/>
      <point x="550" y="334"/>
      <point x="543" y="348"/>
      <point x="532" y="355" type="curve" smooth="yes"/>
      <point x="431" y="420" type="line"/>
      <point x="424" y="424"/>
      <point x="415" y="427"/>
      <point x="407" y="426" type="curve"/>
      <point x="250" y="416" type="line"/>
      <point x="270" y="516" type="line"/>
      <point x="482" y="516" type="line" smooth="yes"/>
      <point x="507" y="516"/>
      <point x="523" y="532"/>
      <point x="522" y="557" type="curve" smooth="yes"/>
      <point x="520" y="660" type="line" smooth="yes"/>
      <point x="519" y="685"/>
      <point x="502" y="701"/>
      <point x="477" y="699" type="curve" smooth="yes"/>
      <point x="114" y="677" type="line" smooth="yes"/>
      <point x="93" y="676"/>
      <point x="78" y="661"/>
      <point x="76" y="640" type="curve" smooth="yes"/>
      <point x="54" y="348" type="line" smooth="yes"/>
      <point x="52" y="324"/>
      <point x="67" y="307"/>
      <point x="90" y="305" type="curve" smooth="yes"/>
      <point x="354" y="282" type="line"/>
      <point x="358" y="202" type="line"/>
      <point x="256" y="155" type="line"/>
      <point x="101" y="187" type="line" smooth="yes"/>
      <point x="76" y="193"/>
      <point x="57" y="179"/>
      <point x="53" y="154" type="curve" smooth="yes"/>
      <point x="39" y="53" type="line" smooth="yes"/>
      <point x="35" y="29"/>
      <point x="49" y="11"/>
      <point x="73" y="8" type="curve" smooth="yes"/>
    </contour>
  </outline>
</glyph>
<glyph name="six" format="2">
  <advance width="614"/>
  <unicode hex="0036"/>
  <outline>
    <contour>
      <point x="354" y="8" type="line" smooth="yes"/>
      <point x="361" y="7"/>
      <point x="369" y="9"/>
      <point x="375" y="12" type="curve" smooth="yes"/>
      <point x="558" y="99" type="line" smooth="yes"/>
      <point x="572" y="106"/>
      <point x="581" y="120"/>
      <point x="580" y="136" type="curve" smooth="yes"/>
      <point x="576" y="315" type="line" smooth="yes"/>
      <point x="575" y="330"/>
      <point x="567" y="343"/>
      <point x="554" y="350" type="curve" smooth="yes"/>
      <point x="416" y="421" type="line" smooth="yes"/>
      <point x="409" y="425"/>
      <point x="399" y="426"/>
      <point x="391" y="425" type="curve" smooth="yes"/>
      <point x="254" y="401" type="line"/>
      <point x="308" y="462" type="line"/>
      <point x="485" y="568" type="line" smooth="yes"/>
      <point x="507" y="581"/>
      <point x="512" y="604"/>
      <point x="497" y="625" type="curve" smooth="yes"/>
      <point x="451" y="691" type="line" smooth="yes"/>
      <point x="439" y="708"/>
      <point x="418" y="713"/>
      <point x="400" y="703" type="curve" smooth="yes"/>
      <point x="150" y="569" type="line" smooth="yes"/>
      <point x="144" y="566"/>
      <point x="138" y="560"/>
      <point x="134" y="554" type="curve"/>
      <point x="45" y="398" type="line" smooth="yes"/>
      <point x="41" y="391"/>
      <point x="39" y="381"/>
      <point x="40" y="372" type="curve" smooth="yes"/>
      <point x="83" y="66" type="line" smooth="yes"/>
      <point x="85" y="47"/>
      <point x="100" y="34"/>
      <point x="118" y="32" type="curve" smooth="yes"/>
    </contour>
    <contour>
      <point x="238" y="273" type="line"/>
      <point x="390" y="271" type="line"/>
      <point x="376" y="174" type="line"/>
      <point x="240" y="155" type="line"/>
    </contour>
  </outline>
</glyph>
<glyph name="seven" format="2">
  <advance width="550"/>
  <unicode hex="0037"/>
  <outline>
    <contour>
      <point x="241" y="-5" type="line" smooth="yes"/>
      <point x="262" y="-12"/>
      <point x="281" y="-4"/>
      <point x="291" y="15" type="curve" smooth="yes"/>
      <point x="527" y="494" type="line"/>
      <point x="531" y="500"/>
      <point x="532" y="510"/>
      <point x="531" y="518" type="curve" smooth="yes"/>
      <point x="513" y="630" type="line" smooth="yes"/>
      <point x="510" y="651"/>
      <point x="494" y="664"/>
      <point x="474" y="664" type="curve" smooth="yes"/>
      <point x="71" y="667" type="line" smooth="yes"/>
      <point x="46" y="667"/>
      <point x="30" y="650"/>
      <point x="30" y="625" type="curve" smooth="yes"/>
      <point x="34" y="534" type="line" smooth="yes"/>
      <point x="34" y="510"/>
      <point x="51" y="494"/>
      <point x="76" y="496" type="curve" smooth="yes"/>
      <point x="336" y="513" type="line"/>
      <point x="113" y="90" type="line" smooth="yes"/>
      <point x="100" y="65"/>
      <point x="108" y="43"/>
      <point x="134" y="33" type="curve" smooth="yes"/>
    </contour>
  </outline>
</glyph>
<glyph name="eight" format="2">
  <advance width="630"/>
  <unicode hex="0038"/>
  <outline>
    <contour>
      <point x="320" y="2" type="line"/>
      <point x="324" y="1"/>
      <point x="330" y="2"/>
      <point x="334" y="3" type="curve" smooth="yes"/>
      <point x="556" y="57" type="line" smooth="yes"/>
      <point x="573" y="61"/>
      <point x="586" y="76"/>
      <point x="586" y="94" type="curve" smooth="yes"/>
      <point x="594" y="270" type="line" smooth="yes"/>
      <point x="595" y="284"/>
      <point x="587" y="298"/>
      <point x="575" y="305" type="curve" smooth="yes"/>
      <point x="475" y="369" type="line"/>
      <point x="547" y="393" type="line" smooth="yes"/>
      <point x="564" y="398"/>
      <point x="575" y="414"/>
      <point x="575" y="431" type="curve" smooth="yes"/>
      <point x="574" y="570" type="line" smooth="yes"/>
      <point x="574" y="585"/>
      <point x="566" y="599"/>
      <point x="553" y="605" type="curve"/>
      <point x="417" y="679" type="line" smooth="yes"/>
      <point x="411" y="682"/>
      <point x="403" y="684"/>
      <point x="396" y="683" type="curve"/>
      <point x="204" y="674" type="line"/>
      <point x="201" y="674"/>
      <point x="196" y="673"/>
      <point x="192" y="672" type="curve"/>
      <point x="63" y="622" type="line" smooth="yes"/>
      <point x="46" y="616"/>
      <point x="36" y="600"/>
      <point x="37" y="583" type="curve" smooth="yes"/>
      <point x="46" y="438" type="line"/>
      <point x="46" y="425"/>
      <point x="55" y="412"/>
      <point x="66" y="405" type="curve" smooth="yes"/>
      <point x="152" y="356" type="line"/>
      <point x="62" y="310" type="line" smooth="yes"/>
      <point x="46" y="302"/>
      <point x="38" y="284"/>
      <point x="41" y="266" type="curve" smooth="yes"/>
      <point x="86" y="59" type="line" smooth="yes"/>
      <point x="90" y="42"/>
      <point x="103" y="30"/>
      <point x="120" y="27" type="curve"/>
    </contour>
    <contour>
      <point x="243" y="266" type="line"/>
      <point x="373" y="266" type="line"/>
      <point x="373" y="140" type="line"/>
      <point x="269" y="134" type="line"/>
    </contour>
    <contour>
      <point x="251" y="552" type="line"/>
      <point x="377" y="537" type="line"/>
      <point x="358" y="433" type="line"/>
      <point x="249" y="429" type="line"/>
    </contour>
  </outline>
</glyph>
<glyph name="nine" format="2">
  <advance width="614"/>
  <unicode hex="0039"/>
  <outline>
    <contour>
      <point x="164" y="1" type="line" smooth="yes"/>
      <point x="176" y="-16"/>
      <point x="197" y="-21"/>
      <point x="215" y="-11" type="curve" smooth="yes"/>
      <point x="466" y="123" type="line" smooth="yes"/>
      <point x="472" y="126"/>
      <point x="478" y="132"/>
      <point x="482" y="138" type="curve"/>
      <point x="570" y="294" type="line" smooth="yes"/>
      <point x="574" y="301"/>
      <point x="576" y="311"/>
      <point x="575" y="319" type="curve" smooth="yes"/>
      <point x="532" y="626" type="line" smooth="yes"/>
      <point x="530" y="645"/>
      <point x="515" y="658"/>
      <point x="497" y="660" type="curve" smooth="yes"/>
      <point x="262" y="684" type="line" smooth="yes"/>
      <point x="255" y="685"/>
      <point x="247" y="683"/>
      <point x="241" y="680" type="curve" smooth="yes"/>
      <point x="58" y="593" type="line"/>
      <point x="43" y="587"/>
      <point x="34" y="572"/>
      <point x="35" y="556" type="curve" smooth="yes"/>
      <point x="40" y="377" type="line" smooth="yes"/>
      <point x="41" y="362"/>
      <point x="49" y="349"/>
      <point x="62" y="342" type="curve" smooth="yes"/>
      <point x="199" y="271" type="line" smooth="yes"/>
      <point x="206" y="267"/>
      <point x="216" y="266"/>
      <point x="224" y="267" type="curve" smooth="yes"/>
      <point x="362" y="291" type="line"/>
      <point x="307" y="230" type="line"/>
      <point x="130" y="124" type="line" smooth="yes"/>
      <point x="108" y="111"/>
      <point x="103" y="88"/>
      <point x="118" y="67" type="curve" smooth="yes"/>
    </contour>
    <contour>
      <point x="226" y="420" type="line"/>
      <point x="239" y="518" type="line"/>
      <point x="375" y="537" type="line"/>
      <point x="378" y="419" type="line"/>
    </contour>
  </outline>
</glyph>
<glyph name="colon" format="2">
  <advance width="263"/>
  <unicode hex="003A"/>
  <outline>
    <contour>
      <point x="43" y="48" type="line" smooth="yes"/>
      <point x="43" y="27"/>
      <point x="56" y="10"/>
      <point x="78" y="7" type="curve" smooth="yes"/>
      <point x="148" y="-2" type="line" smooth="yes"/>
      <point x="172" y="-5"/>
      <point x="190" y="9"/>
      <point x="192" y="34" type="curve" smooth="yes"/>
      <point x="200" y="100" type="line" smooth="yes"/>
      <point x="202" y="123"/>
      <point x="188" y="141"/>
      <point x="165" y="144" type="curve" smooth="yes"/>
      <point x="91" y="153" type="line" smooth="yes"/>
      <point x="64" y="157"/>
      <point x="46" y="141"/>
      <point x="46" y="115" type="curve" smooth="yes"/>
    </contour>
    <contour>
      <point x="51" y="381" type="line" smooth="yes"/>
      <point x="55" y="359"/>
      <point x="72" y="346"/>
      <point x="93" y="347" type="curve" smooth="yes"/>
      <point x="168" y="352" type="line" smooth="yes"/>
      <point x="188" y="353"/>
      <point x="203" y="368"/>
      <point x="205" y="388" type="curve" smooth="yes"/>
      <point x="212" y="456" type="line" smooth="yes"/>
      <point x="215" y="483"/>
      <point x="199" y="501"/>
      <point x="172" y="501" type="curve"/>
      <point x="79" y="500" type="line" smooth="yes"/>
      <point x="52" y="499"/>
      <point x="36" y="481"/>
      <point x="40" y="453" type="curve" smooth="yes"/>
    </contour>
  </outline>
</glyph>
<glyph name="semicolon" format="2">
  <advance width="262"/>
  <unicode hex="003B"/>
  <outline>
    <contour>
      <point x="59" y="-107" type="line"/>
      <point x="77" y="-121"/>
      <point x="99" y="-118"/>
      <point x="114" y="-101" type="curve" smooth="yes"/>
      <point x="218" y="23" type="line" smooth="yes"/>
      <point x="226" y="32"/>
      <point x="229" y="46"/>
      <point x="227" y="57" type="curve" smooth="yes"/>
      <point x="209" y="138" type="line" smooth="yes"/>
      <point x="204" y="162"/>
      <point x="185" y="174"/>
      <point x="162" y="169" type="curve" smooth="yes"/>
      <point x="86" y="153" type="line" smooth="yes"/>
      <point x="59" y="148"/>
      <point x="47" y="127"/>
      <point x="56" y="101" type="curve" smooth="yes"/>
      <point x="83" y="22" type="line"/>
      <point x="44" y="-53" type="line" smooth="yes"/>
      <point x="34" y="-71"/>
      <point x="39" y="-91"/>
      <point x="55" y="-103" type="curve"/>
    </contour>
    <contour>
      <point x="52" y="363" type="line" smooth="yes"/>
      <point x="55" y="342"/>
      <point x="72" y="328"/>
      <point x="94" y="329" type="curve" smooth="yes"/>
      <point x="165" y="334" type="line" smooth="yes"/>
      <point x="185" y="335"/>
      <point x="200" y="349"/>
      <point x="202" y="370" type="curve" smooth="yes"/>
      <point x="209" y="438" type="line" smooth="yes"/>
      <point x="212" y="465"/>
      <point x="196" y="483"/>
      <point x="169" y="482" type="curve"/>
      <point x="80" y="482" type="line"/>
      <point x="52" y="481"/>
      <point x="37" y="463"/>
      <point x="41" y="436" type="curve" smooth="yes"/>
    </contour>
  </outline>
</glyph>
<glyph name="less" format="2">
  <advance width="330"/>
  <unicode hex="003C"/>
  <outline>
    <contour>
      <point x="184" y="122" type="line" smooth="yes"/>
      <point x="203" y="102"/>
      <point x="227" y="103"/>
      <point x="244" y="124" type="curve" smooth="yes"/>
      <point x="281" y="167" type="line" smooth="yes"/>
      <point x="295" y="184"/>
      <point x="294" y="205"/>
      <point x="279" y="221" type="curve" smooth="yes"/>
      <point x="173" y="326" type="line"/>
      <point x="265" y="472" type="line" smooth="yes"/>
      <point x="275" y="487"/>
      <point x="273" y="507"/>
      <point x="260" y="521" type="curve" smooth="yes"/>
      <point x="236" y="546" type="line" smooth="yes"/>
      <point x="216" y="568"/>
      <point x="191" y="566"/>
      <point x="174" y="541" type="curve" smooth="yes"/>
      <point x="34" y="332" type="line" smooth="yes"/>
      <point x="23" y="316"/>
      <point x="25" y="297"/>
      <point x="37" y="283" type="curve" smooth="yes"/>
    </contour>
  </outline>
</glyph>
<glyph name="equal" format="2">
  <advance width="365"/>
  <unicode hex="003D"/>
  <outline>
    <contour>
      <point x="36" y="410" type="line" smooth="yes"/>
      <point x="34" y="383"/>
      <point x="50" y="366"/>
      <point x="77" y="367" type="curve" smooth="yes"/>
      <point x="295" y="373" type="line" smooth="yes"/>
      <point x="318" y="374"/>
      <point x="333" y="389"/>
      <point x="334" y="412" type="curve" smooth="yes"/>
      <point x="334" y="439" type="line" smooth="yes"/>
      <point x="335" y="463"/>
      <point x="319" y="479"/>
      <point x="295" y="480" type="curve" smooth="yes"/>
      <point x="78" y="483" type="line" smooth="yes"/>
      <point x="55" y="484"/>
      <point x="39" y="469"/>
      <point x="38" y="446" type="curve" smooth="yes"/>
    </contour>
    <contour>
      <point x="30" y="213" type="line" smooth="yes"/>
      <point x="29" y="188"/>
      <point x="46" y="171"/>
      <point x="71" y="172" type="curve" smooth="yes"/>
      <point x="291" y="174" type="line" smooth="yes"/>
      <point x="318" y="175"/>
      <point x="334" y="193"/>
      <point x="330" y="219" type="curve" smooth="yes"/>
      <point x="326" y="252" type="line" smooth="yes"/>
      <point x="324" y="273"/>
      <point x="308" y="287"/>
      <point x="287" y="287" type="curve"/>
      <point x="71" y="286" type="line"/>
      <point x="48" y="286"/>
      <point x="32" y="271"/>
      <point x="31" y="247" type="curve" smooth="yes"/>
    </contour>
  </outline>
</glyph>
<glyph name="greater" format="2">
  <advance width="327"/>
  <unicode hex="003E"/>
  <outline>
    <contour>
      <point x="86" y="123" type="line" smooth="yes"/>
      <point x="107" y="103"/>
      <point x="131" y="105"/>
      <point x="147" y="129" type="curve" smooth="yes"/>
      <point x="292" y="334" type="line" smooth="yes"/>
      <point x="304" y="350"/>
      <point x="302" y="371"/>
      <point x="289" y="385" type="curve" smooth="yes"/>
      <point x="141" y="543" type="line" smooth="yes"/>
      <point x="123" y="564"/>
      <point x="98" y="563"/>
      <point x="81" y="541" type="curve" smooth="yes"/>
      <point x="48" y="501" type="line" smooth="yes"/>
      <point x="35" y="485"/>
      <point x="35" y="464"/>
      <point x="50" y="448" type="curve" smooth="yes"/>
      <point x="149" y="341" type="line"/>
      <point x="57" y="196" type="line" smooth="yes"/>
      <point x="47" y="180"/>
      <point x="49" y="160"/>
      <point x="63" y="146" type="curve" smooth="yes"/>
    </contour>
  </outline>
</glyph>
<glyph name="question" format="2">
  <advance width="478"/>
  <unicode hex="003F"/>
  <outline>
    <contour>
      <point x="261" y="232" type="line" smooth="yes"/>
      <point x="283" y="231"/>
      <point x="299" y="245"/>
      <point x="302" y="267" type="curve" smooth="yes"/>
      <point x="311" y="336" type="line"/>
      <point x="435" y="423" type="line" smooth="yes"/>
      <point x="447" y="431"/>
      <point x="453" y="447"/>
      <point x="451" y="462" type="curve" smooth="yes"/>
      <point x="426" y="618" type="line" smooth="yes"/>
      <point x="424" y="633"/>
      <point x="412" y="647"/>
      <point x="396" y="650" type="curve"/>
      <point x="251" y="686" type="line" smooth="yes"/>
      <point x="246" y="687"/>
      <point x="238" y="687"/>
      <point x="233" y="686" type="curve" smooth="yes"/>
      <point x="58" y="644" type="line" smooth="yes"/>
      <point x="38" y="639"/>
      <point x="26" y="622"/>
      <point x="28" y="601" type="curve" smooth="yes"/>
      <point x="39" y="499" type="line" smooth="yes"/>
      <point x="42" y="474"/>
      <point x="60" y="460"/>
      <point x="85" y="464" type="curve" smooth="yes"/>
      <point x="137" y="472" type="line" smooth="yes"/>
      <point x="155" y="474"/>
      <point x="168" y="487"/>
      <point x="171" y="505" type="curve" smooth="yes"/>
      <point x="178" y="546" type="line"/>
      <point x="258" y="549" type="line"/>
      <point x="270" y="472" type="line"/>
      <point x="143" y="389" type="line" smooth="yes"/>
      <point x="132" y="381"/>
      <point x="125" y="367"/>
      <point x="125" y="353" type="curve"/>
      <point x="130" y="273" type="line" smooth="yes"/>
      <point x="131" y="251"/>
      <point x="147" y="236"/>
      <point x="169" y="235" type="curve" smooth="yes"/>
    </contour>
    <contour>
      <point x="135" y="43" type="line" smooth="yes"/>
      <point x="134" y="21"/>
      <point x="149" y="5"/>
      <point x="171" y="3" type="curve" smooth="yes"/>
      <point x="245" y="-4" type="line" smooth="yes"/>
      <point x="267" y="-6"/>
      <point x="284" y="8"/>
      <point x="288" y="30" type="curve" smooth="yes"/>
      <point x="296" y="85" type="line" smooth="yes"/>
      <point x="300" y="109"/>
      <point x="287" y="127"/>
      <point x="263" y="131" type="curve" smooth="yes"/>
      <point x="183" y="145" type="line" smooth="yes"/>
      <point x="155" y="150"/>
      <point x="137" y="134"/>
      <point x="136" y="106" type="curve" smooth="yes"/>
    </contour>
  </outline>
</glyph>
<glyph name="at" format="2">
  <advance width="832"/>
  <unicode hex="0040"/>
  <outline>
    <contour>
      <point x="508" y="-107" type="line" smooth="yes"/>
      <point x="530" y="-109"/>
      <point x="547" y="-96"/>
      <point x="551" y="-75" type="curve" smooth="yes"/>
      <point x="554" y="-55" type="line" smooth="yes"/>
      <point x="559" y="-30"/>
      <point x="545" y="-10"/>
      <point x="519" y="-8" type="curve" smooth="yes"/>
      <point x="312" y="9" type="line"/>
      <point x="163" y="103" type="line"/>
      <point x="168" y="461" type="line"/>
      <point x="353" y="528" type="line"/>
      <point x="663" y="520" type="line"/>
      <point x="673" y="164" type="line"/>
      <point x="590" y="149" type="line"/>
      <point x="572" y="375" type="line" smooth="yes"/>
      <point x="570" y="394"/>
      <point x="556" y="409"/>
      <point x="538" y="412" type="curve" smooth="yes"/>
      <point x="316" y="444" type="line" smooth="yes"/>
      <point x="290" y="448"/>
      <point x="271" y="433"/>
      <point x="270" y="407" type="curve" smooth="yes"/>
      <point x="270" y="398" type="line" smooth="yes"/>
      <point x="269" y="372"/>
      <point x="286" y="355"/>
      <point x="312" y="356" type="curve" smooth="yes"/>
      <point x="446" y="364" type="line"/>
      <point x="448" y="328" type="line"/>
      <point x="289" y="300" type="line" smooth="yes"/>
      <point x="265" y="296"/>
      <point x="252" y="277"/>
      <point x="257" y="252" type="curve" smooth="yes"/>
      <point x="286" y="126" type="line" smooth="yes"/>
      <point x="291" y="106"/>
      <point x="308" y="93"/>
      <point x="329" y="95" type="curve" smooth="yes"/>
      <point x="465" y="108" type="line"/>
      <point x="490" y="67" type="line"/>
      <point x="497" y="57"/>
      <point x="509" y="49"/>
      <point x="521" y="49" type="curve"/>
      <point x="641" y="40" type="line"/>
      <point x="647" y="39"/>
      <point x="656" y="41"/>
      <point x="662" y="44" type="curve" smooth="yes"/>
      <point x="762" y="97" type="line" smooth="yes"/>
      <point x="775" y="104"/>
      <point x="783" y="117"/>
      <point x="784" y="131" type="curve" smooth="yes"/>
      <point x="795" y="496" type="line" smooth="yes"/>
      <point x="796" y="509"/>
      <point x="789" y="523"/>
      <point x="778" y="530" type="curve"/>
      <point x="653" y="619" type="line" smooth="yes"/>
      <point x="647" y="623"/>
      <point x="638" y="626"/>
      <point x="631" y="626" type="curve" smooth="yes"/>
      <point x="350" y="629" type="line" smooth="yes"/>
      <point x="346" y="629"/>
      <point x="340" y="628"/>
      <point x="337" y="627" type="curve" smooth="yes"/>
      <point x="85" y="545" type="line" smooth="yes"/>
      <point x="70" y="540"/>
      <point x="57" y="527"/>
      <point x="57" y="511" type="curve" smooth="yes"/>
      <point x="58" y="70" type="line" smooth="yes"/>
      <point x="58" y="59"/>
      <point x="66" y="47"/>
      <point x="76" y="41" type="curve" smooth="yes"/>
      <point x="266" y="-83" type="line" smooth="yes"/>
      <point x="272" y="-87"/>
      <point x="279" y="-89"/>
      <point x="285" y="-90" type="curve"/>
    </contour>
    <contour>
      <point x="369" y="249" type="line"/>
      <point x="450" y="274" type="line"/>
      <point x="459" y="214" type="line"/>
      <point x="373" y="192" type="line"/>
    </contour>
  </outline>
</glyph>
<glyph name="A" format="2">
  <advance width="702"/>
  <unicode hex="0041"/>
  <outline>
    <contour>
      <point x="202" y="-4" type="line"/>
      <point x="223" y="-6"/>
      <point x="240" y="7"/>
      <point x="244" y="27" type="curve" smooth="yes"/>
      <point x="274" y="183" type="line"/>
      <point x="450" y="165" type="line"/>
      <point x="476" y="41" type="line" smooth="yes"/>
      <point x="480" y="22"/>
      <point x="495" y="8"/>
      <point x="515" y="10" type="curve" smooth="yes"/>
      <point x="649" y="19" type="line" smooth="yes"/>
      <point x="679" y="21"/>
      <point x="696" y="39"/>
      <point x="688" y="67" type="curve" smooth="yes"/>
      <point x="536" y="678" type="line" smooth="yes"/>
      <point x="531" y="697"/>
      <point x="515" y="712"/>
      <point x="495" y="709" type="curve" smooth="yes"/>
      <point x="235" y="679" type="line" smooth="yes"/>
      <point x="218" y="677"/>
      <point x="203" y="667"/>
      <point x="198" y="650" type="curve" smooth="yes"/>
      <point x="11" y="52" type="line" smooth="yes"/>
      <point x="3" y="24"/>
      <point x="18" y="3"/>
      <point x="47" y="2" type="curve" smooth="yes"/>
    </contour>
    <contour>
      <point x="345" y="533" type="line"/>
      <point x="376" y="543" type="line"/>
      <point x="423" y="333" type="line"/>
      <point x="308" y="323" type="line"/>
    </contour>
  </outline>
</glyph>
<glyph name="B" format="2">
  <advance width="644"/>
  <unicode hex="0042"/>
  <outline>
    <contour>
      <point x="32" y="31" type="line" smooth="yes"/>
      <point x="32" y="6"/>
      <point x="48" y="-12"/>
      <point x="73" y="-10" type="curve" smooth="yes"/>
      <point x="536" y="26" type="line" smooth="yes"/>
      <point x="555" y="28"/>
      <point x="570" y="39"/>
      <point x="574" y="58" type="curve" smooth="yes"/>
      <point x="619" y="240" type="line" smooth="yes"/>
      <point x="623" y="256"/>
      <point x="616" y="272"/>
      <point x="603" y="281" type="curve" smooth="yes"/>
      <point x="490" y="359" type="line"/>
      <point x="584" y="445" type="line" smooth="yes"/>
      <point x="593" y="454"/>
      <point x="598" y="468"/>
      <point x="596" y="481" type="curve" smooth="yes"/>
      <point x="568" y="660" type="line" smooth="yes"/>
      <point x="565" y="680"/>
      <point x="549" y="694"/>
      <point x="529" y="694" type="curve" smooth="yes"/>
      <point x="93" y="703" type="line" smooth="yes"/>
      <point x="69" y="704"/>
      <point x="53" y="688"/>
      <point x="52" y="664" type="curve" smooth="yes"/>
    </contour>
    <contour>
      <point x="244" y="549" type="line"/>
      <point x="360" y="543" type="line"/>
      <point x="377" y="449" type="line"/>
      <point x="250" y="422" type="line"/>
    </contour>
    <contour>
      <point x="252" y="297" type="line"/>
      <point x="407" y="252" type="line"/>
      <point x="388" y="156" type="line"/>
      <point x="245" y="144" type="line"/>
    </contour>
  </outline>
</glyph>
<glyph name="D" format="2">
  <advance width="653"/>
  <unicode hex="0044"/>
  <outline>
    <contour>
      <point x="291" y="-7" type="line"/>
      <point x="296" y="-7"/>
      <point x="302" y="-6"/>
      <point x="306" y="-4" type="curve"/>
      <point x="573" y="90" type="line" smooth="yes"/>
      <point x="588" y="96"/>
      <point x="599" y="110"/>
      <point x="600" y="125" type="curve" smooth="yes"/>
      <point x="627" y="536" type="line" smooth="yes"/>
      <point x="628" y="551"/>
      <point x="619" y="567"/>
      <point x="605" y="574" type="curve" smooth="yes"/>
      <point x="361" y="701" type="line" smooth="yes"/>
      <point x="355" y="704"/>
      <point x="347" y="706"/>
      <point x="340" y="705" type="curve"/>
      <point x="76" y="688" type="line" smooth="yes"/>
      <point x="53" y="687"/>
      <point x="38" y="671"/>
      <point x="38" y="648" type="curve" smooth="yes"/>
      <point x="41" y="45" type="line" smooth="yes"/>
      <point x="41" y="22"/>
      <point x="56" y="6"/>
      <point x="79" y="5" type="curve" smooth="yes"/>
    </contour>
    <contour>
      <point x="246" y="536" type="line"/>
      <point x="422" y="473" type="line"/>
      <point x="394" y="211" type="line"/>
      <point x="244" y="157" type="line"/>
    </contour>
  </outline>
</glyph>
<glyph name="F" format="2">
  <advance width="529"/>
  <unicode hex="0046"/>
  <outline>
    <contour>
      <point x="52" y="43" type="line" smooth="yes"/>
      <point x="53" y="18"/>
      <point x="71" y="2"/>
      <point x="96" y="5" type="curve" smooth="yes"/>
      <point x="231" y="17" type="line" smooth="yes"/>
      <point x="255" y="19"/>
      <point x="270" y="36"/>
      <point x="268" y="60" type="curve" smooth="yes"/>
      <point x="253" y="235" type="line"/>
      <point x="399" y="259" type="line" smooth="yes"/>
      <point x="419" y="263"/>
      <point x="433" y="279"/>
      <point x="432" y="300" type="curve" smooth="yes"/>
      <point x="430" y="372" type="line" smooth="yes"/>
      <point x="429" y="396"/>
      <point x="413" y="411"/>
      <point x="389" y="411" type="curve"/>
      <point x="244" y="406" type="line"/>
      <point x="240" y="504" type="line"/>
      <point x="469" y="499" type="line" smooth="yes"/>
      <point x="490" y="498"/>
      <point x="507" y="513"/>
      <point x="509" y="534" type="curve" smooth="yes"/>
      <point x="521" y="636" type="line" smooth="yes"/>
      <point x="524" y="662"/>
      <point x="509" y="680"/>
      <point x="483" y="680" type="curve" smooth="yes"/>
      <point x="69" y="694" type="line" smooth="yes"/>
      <point x="43" y="694"/>
      <point x="27" y="678"/>
      <point x="28" y="652" type="curve" smooth="yes"/>
    </contour>
  </outline>
</glyph>
<glyph name="G" format="2">
  <advance width="709"/>
  <unicode hex="0047"/>
  <outline>
    <contour>
      <point x="481" y="209" type="line"/>
      <point x="383" y="169" type="line"/>
      <point x="268" y="204" type="line"/>
      <point x="270" y="483" type="line"/>
      <point x="390" y="519" type="line"/>
      <point x="517" y="487" type="line" smooth="yes"/>
      <point x="538" y="482"/>
      <point x="557" y="492"/>
      <point x="564" y="513" type="curve" smooth="yes"/>
      <point x="595" y="602" type="line" smooth="yes"/>
      <point x="603" y="626"/>
      <point x="592" y="646"/>
      <point x="568" y="654" type="curve" smooth="yes"/>
      <point x="371" y="713" type="line" smooth="yes"/>
      <point x="364" y="715"/>
      <point x="354" y="716"/>
      <point x="347" y="713" type="curve" smooth="yes"/>
      <point x="84" y="600" type="line" smooth="yes"/>
      <point x="67" y="593"/>
      <point x="56" y="579"/>
      <point x="56" y="561" type="curve" smooth="yes"/>
      <point x="67" y="124" type="line" smooth="yes"/>
      <point x="67" y="107"/>
      <point x="79" y="93"/>
      <point x="95" y="87" type="curve" smooth="yes"/>
      <point x="381" y="-11" type="line" smooth="yes"/>
      <point x="390" y="-14"/>
      <point x="401" y="-12"/>
      <point x="409" y="-9" type="curve" smooth="yes"/>
      <point x="654" y="82" type="line" smooth="yes"/>
      <point x="669" y="87"/>
      <point x="680" y="103"/>
      <point x="679" y="119" type="curve" smooth="yes"/>
      <point x="650" y="383" type="line" smooth="yes"/>
      <point x="647" y="408"/>
      <point x="633" y="422"/>
      <point x="608" y="422" type="curve" smooth="yes"/>
      <point x="432" y="423" type="line" smooth="yes"/>
      <point x="410" y="423"/>
      <point x="395" y="407"/>
      <point x="394" y="385" type="curve" smooth="yes"/>
      <point x="391" y="331" type="line" smooth="yes"/>
      <point x="390" y="307"/>
      <point x="405" y="291"/>
      <point x="429" y="291" type="curve" smooth="yes"/>
      <point x="469" y="291" type="line"/>
    </contour>
  </outline>
</glyph>
<glyph name="H" format="2">
  <advance width="670"/>
  <unicode hex="0048"/>
  <outline>
    <contour>
      <point x="593" y="-14" type="line" smooth="yes"/>
      <point x="618" y="-15"/>
      <point x="635" y="1"/>
      <point x="634" y="26" type="curve" smooth="yes"/>
      <point x="626" y="661" type="line" smooth="yes"/>
      <point x="625" y="686"/>
      <point x="608" y="702"/>
      <point x="583" y="700" type="curve" smooth="yes"/>
      <point x="459" y="692" type="line" smooth="yes"/>
      <point x="436" y="690"/>
      <point x="421" y="674"/>
      <point x="422" y="651" type="curve" smooth="yes"/>
      <point x="424" y="450" type="line"/>
      <point x="250" y="458" type="line"/>
      <point x="255" y="652" type="line" smooth="yes"/>
      <point x="256" y="677"/>
      <point x="239" y="693"/>
      <point x="214" y="693" type="curve"/>
      <point x="86" y="688" type="line"/>
      <point x="63" y="688"/>
      <point x="48" y="672"/>
      <point x="47" y="649" type="curve" smooth="yes"/>
      <point x="38" y="66" type="line" smooth="yes"/>
      <point x="37" y="41"/>
      <point x="53" y="25"/>
      <point x="78" y="25" type="curve" smooth="yes"/>
      <point x="210" y="25" type="line" smooth="yes"/>
      <point x="233" y="25"/>
      <point x="249" y="41"/>
      <point x="250" y="64" type="curve" smooth="yes"/>
      <point x="253" y="262" type="line"/>
      <point x="413" y="280" type="line"/>
      <point x="412" y="32" type="line" smooth="yes"/>
      <point x="412" y="9"/>
      <point x="427" y="-7"/>
      <point x="450" y="-8" type="curve" smooth="yes"/>
    </contour>
  </outline>
</glyph>
<glyph name="I" format="2">
  <advance width="284"/>
  <unicode hex="0049"/>
  <outline>
    <contour>
      <point x="36" y="52" type="line" smooth="yes"/>
      <point x="36" y="26"/>
      <point x="53" y="10"/>
      <point x="79" y="12" type="curve" smooth="yes"/>
      <point x="210" y="20" type="line" smooth="yes"/>
      <point x="233" y="21"/>
      <point x="248" y="37"/>
      <point x="248" y="60" type="curve" smooth="yes"/>
      <point x="242" y="655" type="line" smooth="yes"/>
      <point x="242" y="680"/>
      <point x="226" y="696"/>
      <point x="201" y="695" type="curve" smooth="yes"/>
      <point x="80" y="692" type="line" smooth="yes"/>
      <point x="56" y="691"/>
      <point x="41" y="675"/>
      <point x="41" y="652" type="curve" smooth="yes"/>
    </contour>
  </outline>
</glyph>
<glyph name="J" format="2">
  <advance width="537"/>
  <unicode hex="004A"/>
  <outline>
    <contour>
      <point x="304" y="-9" type="line" smooth="yes"/>
      <point x="314" y="-10"/>
      <point x="326" y="-5"/>
      <point x="334" y="2" type="curve" smooth="yes"/>
      <point x="486" y="143" type="line"/>
      <point x="495" y="150"/>
      <point x="500" y="162"/>
      <point x="499" y="173" type="curve"/>
      <point x="482" y="651" type="line" smooth="yes"/>
      <point x="481" y="675"/>
      <point x="464" y="690"/>
      <point x="440" y="689" type="curve" smooth="yes"/>
      <point x="315" y="683" type="line" smooth="yes"/>
      <point x="291" y="682"/>
      <point x="276" y="666"/>
      <point x="277" y="642" type="curve" smooth="yes"/>
      <point x="284" y="208" type="line"/>
      <point x="229" y="168" type="line"/>
      <point x="142" y="236" type="line" smooth="yes"/>
      <point x="124" y="251"/>
      <point x="101" y="249"/>
      <point x="86" y="230" type="curve" smooth="yes"/>
      <point x="21" y="148" type="line" smooth="yes"/>
      <point x="5" y="128"/>
      <point x="9" y="104"/>
      <point x="31" y="90" type="curve" smooth="yes"/>
      <point x="157" y="7" type="line" smooth="yes"/>
      <point x="163" y="3"/>
      <point x="170" y="1"/>
      <point x="176" y="0" type="curve"/>
    </contour>
  </outline>
</glyph>
<glyph name="K" format="2">
  <advance width="620"/>
  <unicode hex="004B"/>
  <outline>
    <contour>
      <point x="295" y="245" type="line"/>
      <point x="329" y="156"/>
      <point x="347" y="105"/>
      <point x="381" y="16" type="curve" smooth="yes"/>
      <point x="388" y="0"/>
      <point x="405" y="-10"/>
      <point x="422" y="-8" type="curve" smooth="yes"/>
      <point x="556" y="8" type="line" smooth="yes"/>
      <point x="589" y="12"/>
      <point x="602" y="34"/>
      <point x="588" y="64" type="curve" smooth="yes"/>
      <point x="442" y="387" type="line"/>
      <point x="589" y="627" type="line" smooth="yes"/>
      <point x="609" y="660"/>
      <point x="593" y="685"/>
      <point x="555" y="686" type="curve" smooth="yes"/>
      <point x="428" y="690" type="line" smooth="yes"/>
      <point x="414" y="691"/>
      <point x="400" y="683"/>
      <point x="393" y="671" type="curve" smooth="yes"/>
      <point x="248" y="436" type="line"/>
      <point x="250" y="640" type="line" smooth="yes"/>
      <point x="250" y="664"/>
      <point x="234" y="680"/>
      <point x="210" y="681" type="curve" smooth="yes"/>
      <point x="84" y="683" type="line" smooth="yes"/>
      <point x="60" y="684"/>
      <point x="44" y="668"/>
      <point x="43" y="644" type="curve" smooth="yes"/>
      <point x="36" y="47" type="line" smooth="yes"/>
      <point x="35" y="23"/>
      <point x="51" y="7"/>
      <point x="75" y="7" type="curve" smooth="yes"/>
      <point x="189" y="4" type="line" smooth="yes"/>
      <point x="213" y="4"/>
      <point x="229" y="20"/>
      <point x="229" y="44" type="curve" smooth="yes"/>
      <point x="229" y="187" type="line"/>
    </contour>
  </outline>
</glyph>
<glyph name="L" format="2">
  <advance width="484"/>
  <unicode hex="004C"/>
  <outline>
    <contour>
      <point x="44" y="59" type="line" smooth="yes"/>
      <point x="45" y="34"/>
      <point x="61" y="19"/>
      <point x="86" y="20" type="curve" smooth="yes"/>
      <point x="441" y="37" type="line" smooth="yes"/>
      <point x="463" y="38"/>
      <point x="478" y="54"/>
      <point x="479" y="77" type="curve" smooth="yes"/>
      <point x="480" y="188" type="line" smooth="yes"/>
      <point x="481" y="215"/>
      <point x="464" y="231"/>
      <point x="437" y="229" type="curve" smooth="yes"/>
      <point x="257" y="216" type="line"/>
      <point x="246" y="654" type="line" smooth="yes"/>
      <point x="245" y="677"/>
      <point x="229" y="693"/>
      <point x="206" y="693" type="curve" smooth="yes"/>
      <point x="73" y="694" type="line" smooth="yes"/>
      <point x="48" y="694"/>
      <point x="32" y="678"/>
      <point x="33" y="653" type="curve" smooth="yes"/>
    </contour>
  </outline>
</glyph>
<glyph name="M" format="2">
  <advance width="827"/>
  <unicode hex="004D"/>
  <outline>
    <contour>
      <point x="568" y="52" type="line"/>
      <point x="569" y="28"/>
      <point x="586" y="14"/>
      <point x="609" y="14" type="curve" smooth="yes"/>
      <point x="762" y="16" type="line" smooth="yes"/>
      <point x="787" y="17"/>
      <point x="802" y="34"/>
      <point x="801" y="59" type="curve" smooth="yes"/>
      <point x="764" y="664" type="line" smooth="yes"/>
      <point x="763" y="688"/>
      <point x="746" y="703"/>
      <point x="722" y="702" type="curve" smooth="yes"/>
      <point x="558" y="693" type="line" smooth="yes"/>
      <point x="543" y="692"/>
      <point x="529" y="682"/>
      <point x="523" y="667" type="curve" smooth="yes"/>
      <point x="393" y="328" type="line"/>
      <point x="261" y="675" type="line" smooth="yes"/>
      <point x="255" y="693"/>
      <point x="238" y="704"/>
      <point x="220" y="701" type="curve" smooth="yes"/>
      <point x="88" y="675" type="line" smooth="yes"/>
      <point x="67" y="671"/>
      <point x="52" y="658"/>
      <point x="52" y="637" type="curve" smooth="yes"/>
      <point x="31" y="60" type="line" smooth="yes"/>
      <point x="30" y="35"/>
      <point x="45" y="19"/>
      <point x="70" y="19" type="curve" smooth="yes"/>
      <point x="174" y="17" type="line" smooth="yes"/>
      <point x="199" y="17"/>
      <point x="215" y="33"/>
      <point x="215" y="58" type="curve" smooth="yes"/>
      <point x="206" y="382" type="line"/>
      <point x="300" y="81" type="line" smooth="yes"/>
      <point x="306" y="64"/>
      <point x="320" y="53"/>
      <point x="338" y="53" type="curve" smooth="yes"/>
      <point x="434" y="51" type="line" smooth="yes"/>
      <point x="453" y="50"/>
      <point x="468" y="62"/>
      <point x="473" y="80" type="curve" smooth="yes"/>
      <point x="579" y="410" type="line"/>
    </contour>
  </outline>
</glyph>
<glyph name="N" format="2">
  <advance width="688"/>
  <unicode hex="004E"/>
  <outline>
    <contour>
      <point x="180" y="18" type="line" smooth="yes"/>
      <point x="206" y="18"/>
      <point x="221" y="35"/>
      <point x="220" y="61" type="curve" smooth="yes"/>
      <point x="200" y="422" type="line"/>
      <point x="405" y="41" type="line" smooth="yes"/>
      <point x="411" y="29"/>
      <point x="425" y="21"/>
      <point x="439" y="21" type="curve" smooth="yes"/>
      <point x="607" y="19" type="line" smooth="yes"/>
      <point x="631" y="19"/>
      <point x="647" y="35"/>
      <point x="647" y="59" type="curve" smooth="yes"/>
      <point x="649" y="663" type="line" smooth="yes"/>
      <point x="649" y="689"/>
      <point x="632" y="705"/>
      <point x="606" y="703" type="curve" smooth="yes"/>
      <point x="489" y="695" type="line" smooth="yes"/>
      <point x="465" y="693"/>
      <point x="451" y="676"/>
      <point x="452" y="653" type="curve" smooth="yes"/>
      <point x="465" y="321" type="line"/>
      <point x="307" y="674" type="line" smooth="yes"/>
      <point x="300" y="691"/>
      <point x="284" y="701"/>
      <point x="267" y="699" type="curve" smooth="yes"/>
      <point x="79" y="684" type="line" smooth="yes"/>
      <point x="57" y="683"/>
      <point x="43" y="667"/>
      <point x="43" y="645" type="curve" smooth="yes"/>
      <point x="35" y="59" type="line" smooth="yes"/>
      <point x="35" y="35"/>
      <point x="51" y="19"/>
      <point x="75" y="19" type="curve" smooth="yes"/>
    </contour>
  </outline>
</glyph>
<glyph name="O" format="2">
  <advance width="678"/>
  <unicode hex="004F"/>
  <outline>
    <contour>
      <point x="126" y="33" type="line" smooth="yes"/>
      <point x="133" y="20"/>
      <point x="148" y="11"/>
      <point x="163" y="12" type="curve" smooth="yes"/>
      <point x="482" y="26" type="line"/>
      <point x="492" y="27"/>
      <point x="503" y="32"/>
      <point x="510" y="40" type="curve" smooth="yes"/>
      <point x="639" y="187" type="line" smooth="yes"/>
      <point x="646" y="195"/>
      <point x="650" y="207"/>
      <point x="649" y="217" type="curve" smooth="yes"/>
      <point x="616" y="544" type="line" smooth="yes"/>
      <point x="615" y="555"/>
      <point x="608" y="566"/>
      <point x="600" y="573" type="curve"/>
      <point x="435" y="695" type="line"/>
      <point x="429" y="700"/>
      <point x="420" y="703"/>
      <point x="412" y="703" type="curve" smooth="yes"/>
      <point x="190" y="708" type="line" smooth="yes"/>
      <point x="177" y="708"/>
      <point x="163" y="701"/>
      <point x="156" y="689" type="curve"/>
      <point x="34" y="504" type="line"/>
      <point x="31" y="498"/>
      <point x="28" y="489"/>
      <point x="28" y="483" type="curve" smooth="yes"/>
      <point x="23" y="235" type="line"/>
      <point x="22" y="229"/>
      <point x="24" y="221"/>
      <point x="27" y="215" type="curve" smooth="yes"/>
    </contour>
    <contour>
      <point x="207" y="443" type="line"/>
      <point x="339" y="524" type="line"/>
      <point x="436" y="443" type="line"/>
      <point x="432" y="206" type="line"/>
      <point x="248" y="206" type="line"/>
    </contour>
  </outline>
</glyph>
<glyph name="P" format="2">
  <advance width="606"/>
  <unicode hex="0050"/>
  <outline>
    <contour>
      <point x="196" y="7" type="line" smooth="yes"/>
      <point x="221" y="6"/>
      <point x="238" y="21"/>
      <point x="238" y="46" type="curve" smooth="yes"/>
      <point x="243" y="200" type="line"/>
      <point x="520" y="274" type="line" smooth="yes"/>
      <point x="535" y="278"/>
      <point x="546" y="291"/>
      <point x="549" y="306" type="curve" smooth="yes"/>
      <point x="582" y="494" type="line" smooth="yes"/>
      <point x="584" y="505"/>
      <point x="581" y="518"/>
      <point x="574" y="527" type="curve" smooth="yes"/>
      <point x="459" y="664" type="line" smooth="yes"/>
      <point x="452" y="672"/>
      <point x="441" y="678"/>
      <point x="431" y="678" type="curve"/>
      <point x="98" y="706" type="line" smooth="yes"/>
      <point x="73" y="708"/>
      <point x="55" y="692"/>
      <point x="54" y="667" type="curve" smooth="yes"/>
      <point x="31" y="55" type="line" smooth="yes"/>
      <point x="30" y="31"/>
      <point x="45" y="14"/>
      <point x="69" y="13" type="curve" smooth="yes"/>
    </contour>
    <contour>
      <point x="251" y="547" type="line"/>
      <point x="346" y="517" type="line"/>
      <point x="363" y="383" type="line"/>
      <point x="253" y="366" type="line"/>
    </contour>
  </outline>
</glyph>
<glyph name="Q" format="2">
  <advance width="677"/>
  <unicode hex="0051"/>
  <outline>
    <contour>
      <point x="401" y="-103" type="line" smooth="yes"/>
      <point x="412" y="-116"/>
      <point x="431" y="-121"/>
      <point x="447" y="-114" type="curve" smooth="yes"/>
      <point x="525" y="-82" type="line" smooth="yes"/>
      <point x="554" y="-70"/>
      <point x="561" y="-45"/>
      <point x="542" y="-21" type="curve" smooth="yes"/>
      <point x="503" y="32" type="line"/>
      <point x="624" y="176" type="line" smooth="yes"/>
      <point x="630" y="183"/>
      <point x="633" y="195"/>
      <point x="633" y="204" type="curve"/>
      <point x="615" y="543" type="line" smooth="yes"/>
      <point x="614" y="555"/>
      <point x="608" y="567"/>
      <point x="599" y="573" type="curve"/>
      <point x="435" y="695" type="line"/>
      <point x="429" y="700"/>
      <point x="420" y="703"/>
      <point x="412" y="703" type="curve" smooth="yes"/>
      <point x="190" y="708" type="line" smooth="yes"/>
      <point x="177" y="708"/>
      <point x="163" y="701"/>
      <point x="156" y="689" type="curve"/>
      <point x="35" y="504" type="line" smooth="yes"/>
      <point x="31" y="498"/>
      <point x="28" y="489"/>
      <point x="28" y="482" type="curve" smooth="yes"/>
      <point x="32" y="187" type="line" smooth="yes"/>
      <point x="32" y="180"/>
      <point x="35" y="171"/>
      <point x="39" y="165" type="curve" smooth="yes"/>
      <point x="126" y="30" type="line" smooth="yes"/>
      <point x="133" y="19"/>
      <point x="147" y="11"/>
      <point x="161" y="12" type="curve" smooth="yes"/>
      <point x="300" y="18" type="line"/>
    </contour>
    <contour>
      <point x="209" y="411" type="line"/>
      <point x="327" y="519" type="line"/>
      <point x="437" y="432" type="line"/>
      <point x="410" y="201" type="line"/>
      <point x="259" y="192" type="line"/>
    </contour>
  </outline>
</glyph>
<glyph name="R" format="2">
  <advance width="633"/>
  <unicode hex="0052"/>
  <outline>
    <contour>
      <point x="390" y="19" type="line" smooth="yes"/>
      <point x="400" y="2"/>
      <point x="418" y="-1"/>
      <point x="438" y="2" type="curve" smooth="yes"/>
      <point x="563" y="21" type="line" smooth="yes"/>
      <point x="592" y="25"/>
      <point x="599" y="54"/>
      <point x="584" y="79" type="curve" smooth="yes"/>
      <point x="461" y="291" type="line"/>
      <point x="569" y="331" type="line" smooth="yes"/>
      <point x="584" y="336"/>
      <point x="595" y="351"/>
      <point x="595" y="367" type="curve" smooth="yes"/>
      <point x="600" y="570" type="line" smooth="yes"/>
      <point x="601" y="585"/>
      <point x="592" y="600"/>
      <point x="578" y="607" type="curve" smooth="yes"/>
      <point x="381" y="705" type="line" smooth="yes"/>
      <point x="375" y="708"/>
      <point x="367" y="710"/>
      <point x="360" y="709" type="curve"/>
      <point x="69" y="691" type="line" smooth="yes"/>
      <point x="46" y="689"/>
      <point x="31" y="673"/>
      <point x="32" y="650" type="curve" smooth="yes"/>
      <point x="47" y="57" type="line" smooth="yes"/>
      <point x="47" y="36"/>
      <point x="62" y="20"/>
      <point x="84" y="19" type="curve" smooth="yes"/>
      <point x="202" y="11" type="line" smooth="yes"/>
      <point x="227" y="9"/>
      <point x="244" y="25"/>
      <point x="244" y="51" type="curve" smooth="yes"/>
      <point x="245" y="268" type="line"/>
    </contour>
    <contour>
      <point x="239" y="555" type="line"/>
      <point x="390" y="521" type="line"/>
      <point x="379" y="403" type="line"/>
      <point x="234" y="396" type="line"/>
    </contour>
  </outline>
</glyph>
<glyph name="T" format="2">
  <advance width="577"/>
  <unicode hex="0054"/>
  <outline>
    <contour>
      <point x="197" y="60" type="line" smooth="yes"/>
      <point x="197" y="33"/>
      <point x="216" y="18"/>
      <point x="242" y="21" type="curve" smooth="yes"/>
      <point x="368" y="39" type="line" smooth="yes"/>
      <point x="389" y="42"/>
      <point x="403" y="58"/>
      <point x="403" y="79" type="curve" smooth="yes"/>
      <point x="397" y="507" type="line"/>
      <point x="533" y="516" type="line" smooth="yes"/>
      <point x="557" y="517"/>
      <point x="572" y="534"/>
      <point x="571" y="558" type="curve" smooth="yes"/>
      <point x="565" y="661" type="line" smooth="yes"/>
      <point x="564" y="684"/>
      <point x="547" y="699"/>
      <point x="524" y="698" type="curve" smooth="yes"/>
      <point x="51" y="678" type="line" smooth="yes"/>
      <point x="29" y="677"/>
      <point x="14" y="661"/>
      <point x="13" y="639" type="curve" smooth="yes"/>
      <point x="9" y="523" type="line" smooth="yes"/>
      <point x="9" y="495"/>
      <point x="27" y="478"/>
      <point x="55" y="482" type="curve" smooth="yes"/>
      <point x="183" y="499" type="line"/>
    </contour>
  </outline>
</glyph>
<glyph name="U" format="2">
  <advance width="632"/>
  <unicode hex="0055"/>
  <outline>
    <contour>
      <point x="147" y="10" type="line" smooth="yes"/>
      <point x="156" y="-1"/>
      <point x="172" y="-7"/>
      <point x="186" y="-5" type="curve" smooth="yes"/>
      <point x="498" y="51" type="line" smooth="yes"/>
      <point x="507" y="53"/>
      <point x="517" y="59"/>
      <point x="522" y="66" type="curve"/>
      <point x="605" y="170" type="line"/>
      <point x="610" y="178"/>
      <point x="613" y="188"/>
      <point x="613" y="197" type="curve"/>
      <point x="591" y="606" type="line" smooth="yes"/>
      <point x="590" y="631"/>
      <point x="573" y="646"/>
      <point x="548" y="644" type="curve" smooth="yes"/>
      <point x="439" y="637" type="line" smooth="yes"/>
      <point x="416" y="635"/>
      <point x="401" y="619"/>
      <point x="402" y="596" type="curve" smooth="yes"/>
      <point x="409" y="211" type="line"/>
      <point x="245" y="201" type="line"/>
      <point x="231" y="635" type="line" smooth="yes"/>
      <point x="230" y="657"/>
      <point x="215" y="673"/>
      <point x="193" y="674" type="curve" smooth="yes"/>
      <point x="75" y="680" type="line" smooth="yes"/>
      <point x="51" y="681"/>
      <point x="34" y="665"/>
      <point x="33" y="641" type="curve" smooth="yes"/>
      <point x="27" y="183" type="line" smooth="yes"/>
      <point x="27" y="175"/>
      <point x="30" y="165"/>
      <point x="35" y="158" type="curve" smooth="yes"/>
    </contour>
  </outline>
</glyph>
<glyph name="V" format="2">
  <advance width="591"/>
  <unicode hex="0056"/>
  <outline>
    <contour>
      <point x="351" y="14" type="line" smooth="yes"/>
      <point x="369" y="13"/>
      <point x="385" y="25"/>
      <point x="390" y="42" type="curve" smooth="yes"/>
      <point x="569" y="596" type="line" smooth="yes"/>
      <point x="579" y="626"/>
      <point x="564" y="647"/>
      <point x="532" y="648" type="curve" smooth="yes"/>
      <point x="424" y="652" type="line" smooth="yes"/>
      <point x="405" y="652"/>
      <point x="389" y="641"/>
      <point x="384" y="622" type="curve" smooth="yes"/>
      <point x="299" y="295" type="line"/>
      <point x="217" y="670" type="line" smooth="yes"/>
      <point x="213" y="690"/>
      <point x="197" y="703"/>
      <point x="176" y="701" type="curve" smooth="yes"/>
      <point x="47" y="691" type="line" smooth="yes"/>
      <point x="18" y="689"/>
      <point x="3" y="670"/>
      <point x="10" y="642" type="curve" smooth="yes"/>
      <point x="147" y="52" type="line" smooth="yes"/>
      <point x="151" y="34"/>
      <point x="166" y="22"/>
      <point x="184" y="21" type="curve" smooth="yes"/>
    </contour>
  </outline>
</glyph>
<glyph name="W" format="2">
  <advance width="896"/>
  <unicode hex="0057"/>
  <outline>
    <contour>
      <point x="306" y="-2" type="line"/>
      <point x="322" y="-3"/>
      <point x="339" y="5"/>
      <point x="345" y="20" type="curve" smooth="yes"/>
      <point x="448" y="252" type="line"/>
      <point x="552" y="48" type="line" smooth="yes"/>
      <point x="561" y="31"/>
      <point x="574" y="20"/>
      <point x="594" y="20" type="curve" smooth="yes"/>
      <point x="758" y="25" type="line" smooth="yes"/>
      <point x="776" y="26"/>
      <point x="791" y="41"/>
      <point x="794" y="59" type="curve" smooth="yes"/>
      <point x="877" y="608" type="line" smooth="yes"/>
      <point x="881" y="636"/>
      <point x="865" y="654"/>
      <point x="836" y="654" type="curve"/>
      <point x="696" y="650" type="line"/>
      <point x="674" y="650"/>
      <point x="659" y="635"/>
      <point x="657" y="613" type="curve" smooth="yes"/>
      <point x="633" y="283" type="line"/>
      <point x="484" y="506" type="line" smooth="yes"/>
      <point x="464" y="536"/>
      <point x="439" y="538"/>
      <point x="417" y="509" type="curve" smooth="yes"/>
      <point x="257" y="289" type="line"/>
      <point x="200" y="662" type="line" smooth="yes"/>
      <point x="197" y="682"/>
      <point x="181" y="695"/>
      <point x="162" y="696" type="curve" smooth="yes"/>
      <point x="55" y="701" type="line" smooth="yes"/>
      <point x="26" y="703"/>
      <point x="9" y="684"/>
      <point x="14" y="654" type="curve" smooth="yes"/>
      <point x="120" y="50" type="line" smooth="yes"/>
      <point x="123" y="32"/>
      <point x="137" y="19"/>
      <point x="155" y="17" type="curve" smooth="yes"/>
    </contour>
  </outline>
</glyph>
<glyph name="X" format="2">
  <advance width="641"/>
  <unicode hex="0058"/>
  <outline>
    <contour>
      <point x="417" y="8" type="line" smooth="yes"/>
      <point x="425" y="-7"/>
      <point x="442" y="-16"/>
      <point x="459" y="-13" type="curve" smooth="yes"/>
      <point x="593" y="9" type="line" smooth="yes"/>
      <point x="627" y="15"/>
      <point x="638" y="39"/>
      <point x="621" y="69" type="curve" smooth="yes"/>
      <point x="463" y="338" type="line"/>
      <point x="625" y="617" type="line" smooth="yes"/>
      <point x="643" y="648"/>
      <point x="632" y="671"/>
      <point x="596" y="676" type="curve" smooth="yes"/>
      <point x="469" y="695" type="line" smooth="yes"/>
      <point x="452" y="697"/>
      <point x="435" y="688"/>
      <point x="427" y="673" type="curve" smooth="yes"/>
      <point x="323" y="458" type="line"/>
      <point x="237" y="665" type="line" smooth="yes"/>
      <point x="230" y="681"/>
      <point x="215" y="690"/>
      <point x="198" y="690" type="curve"/>
      <point x="63" y="684" type="line" smooth="yes"/>
      <point x="27" y="682"/>
      <point x="13" y="659"/>
      <point x="29" y="626" type="curve" smooth="yes"/>
      <point x="177" y="329" type="line"/>
      <point x="15" y="53" type="line" smooth="yes"/>
      <point x="-5" y="20"/>
      <point x="8" y="-5"/>
      <point x="47" y="-7" type="curve" smooth="yes"/>
      <point x="190" y="-15" type="line" smooth="yes"/>
      <point x="206" y="-16"/>
      <point x="222" y="-7"/>
      <point x="228" y="8" type="curve" smooth="yes"/>
      <point x="318" y="204" type="line"/>
    </contour>
  </outline>
</glyph>
<glyph name="Y" format="2">
  <advance width="634"/>
  <unicode hex="0059"/>
  <outline>
    <contour>
      <point x="179" y="26" type="line" smooth="yes"/>
      <point x="179" y="2"/>
      <point x="195" y="-13"/>
      <point x="220" y="-13" type="curve" smooth="yes"/>
      <point x="395" y="-17" type="line" smooth="yes"/>
      <point x="418" y="-17"/>
      <point x="434" y="0"/>
      <point x="434" y="23" type="curve" smooth="yes"/>
      <point x="434" y="280" type="line"/>
      <point x="620" y="619" type="line" smooth="yes"/>
      <point x="639" y="654"/>
      <point x="625" y="676"/>
      <point x="586" y="679" type="curve" smooth="yes"/>
      <point x="442" y="688" type="line" smooth="yes"/>
      <point x="426" y="689"/>
      <point x="411" y="679"/>
      <point x="404" y="664" type="curve" smooth="yes"/>
      <point x="303" y="433" type="line"/>
      <point x="207" y="654" type="line" smooth="yes"/>
      <point x="201" y="668"/>
      <point x="187" y="678"/>
      <point x="171" y="678" type="curve" smooth="yes"/>
      <point x="54" y="679" type="line" smooth="yes"/>
      <point x="16" y="679"/>
      <point x="2" y="656"/>
      <point x="17" y="622" type="curve" smooth="yes"/>
      <point x="177" y="278" type="line"/>
    </contour>
  </outline>
</glyph>
<glyph name="bracketleft" format="2">
  <advance width="322"/>
  <unicode hex="005B"/>
  <outline>
    <contour>
      <point x="252" y="-73" type="line" smooth="yes"/>
      <point x="277" y="-74"/>
      <point x="294" y="-58"/>
      <point x="294" y="-33" type="curve" smooth="yes"/>
      <point x="293" y="20" type="line" smooth="yes"/>
      <point x="293" y="41"/>
      <point x="279" y="57"/>
      <point x="258" y="59" type="curve" smooth="yes"/>
      <point x="197" y="66" type="line"/>
      <point x="205" y="569" type="line"/>
      <point x="252" y="571" type="line" smooth="yes"/>
      <point x="274" y="572"/>
      <point x="289" y="588"/>
      <point x="290" y="610" type="curve" smooth="yes"/>
      <point x="292" y="681" type="line" smooth="yes"/>
      <point x="293" y="709"/>
      <point x="274" y="725"/>
      <point x="246" y="721" type="curve" smooth="yes"/>
      <point x="79" y="697" type="line" smooth="yes"/>
      <point x="59" y="694"/>
      <point x="45" y="678"/>
      <point x="45" y="658" type="curve" smooth="yes"/>
      <point x="40" y="319" type="line"/>
      <point x="42" y="-26" type="line" smooth="yes"/>
      <point x="42" y="-49"/>
      <point x="57" y="-65"/>
      <point x="80" y="-66" type="curve" smooth="yes"/>
    </contour>
  </outline>
</glyph>
<glyph name="backslash" format="2">
  <advance width="498"/>
  <unicode hex="005C"/>
  <outline>
    <contour>
      <point x="295" y="-37" type="line" smooth="yes"/>
      <point x="303" y="-62"/>
      <point x="324" y="-72"/>
      <point x="348" y="-62" type="curve" smooth="yes"/>
      <point x="412" y="-36" type="line" smooth="yes"/>
      <point x="434" y="-27"/>
      <point x="443" y="-6"/>
      <point x="435" y="15" type="curve" smooth="yes"/>
      <point x="179" y="707" type="line" smooth="yes"/>
      <point x="171" y="729"/>
      <point x="152" y="739"/>
      <point x="130" y="732" type="curve" smooth="yes"/>
      <point x="89" y="719" type="line" smooth="yes"/>
      <point x="66" y="712"/>
      <point x="55" y="692"/>
      <point x="63" y="668" type="curve" smooth="yes"/>
    </contour>
  </outline>
</glyph>
<glyph name="bracketright" format="2">
  <advance width="327"/>
  <unicode hex="005D"/>
  <outline>
    <contour>
      <point x="27" y="-32" type="line" smooth="yes"/>
      <point x="27" y="-58"/>
      <point x="44" y="-74"/>
      <point x="70" y="-73" type="curve" smooth="yes"/>
      <point x="239" y="-63" type="line" smooth="yes"/>
      <point x="261" y="-62"/>
      <point x="276" y="-46"/>
      <point x="277" y="-24" type="curve" smooth="yes"/>
      <point x="287" y="319" type="line"/>
      <point x="278" y="658" type="line" smooth="yes"/>
      <point x="277" y="679"/>
      <point x="264" y="694"/>
      <point x="244" y="697" type="curve" smooth="yes"/>
      <point x="75" y="721" type="line" smooth="yes"/>
      <point x="46" y="725"/>
      <point x="28" y="709"/>
      <point x="30" y="679" type="curve" smooth="yes"/>
      <point x="33" y="610" type="line" smooth="yes"/>
      <point x="34" y="589"/>
      <point x="49" y="574"/>
      <point x="70" y="572" type="curve" smooth="yes"/>
      <point x="118" y="569" type="line"/>
      <point x="128" y="64" type="line"/>
      <point x="65" y="59" type="line" smooth="yes"/>
      <point x="43" y="57"/>
      <point x="28" y="41"/>
      <point x="28" y="19" type="curve" smooth="yes"/>
    </contour>
  </outline>
</glyph>
<glyph name="asciicircum" format="2">
  <advance width="441"/>
  <unicode hex="005E"/>
  <outline>
    <contour>
      <point x="264" y="445" type="line" smooth="yes"/>
      <point x="271" y="428"/>
      <point x="289" y="418"/>
      <point x="307" y="421" type="curve" smooth="yes"/>
      <point x="365" y="430" type="line" smooth="yes"/>
      <point x="397" y="435"/>
      <point x="409" y="457"/>
      <point x="395" y="486" type="curve" smooth="yes"/>
      <point x="317" y="653" type="line" smooth="yes"/>
      <point x="311" y="666"/>
      <point x="297" y="675"/>
      <point x="283" y="676" type="curve" smooth="yes"/>
      <point x="161" y="683" type="line"/>
      <point x="144" y="683"/>
      <point x="129" y="674"/>
      <point x="122" y="659" type="curve" smooth="yes"/>
      <point x="88" y="583"/>
      <point x="63" y="527"/>
      <point x="47" y="490" type="curve" smooth="yes"/>
      <point x="33" y="459"/>
      <point x="45" y="436"/>
      <point x="79" y="431" type="curve" smooth="yes"/>
      <point x="144" y="421" type="line" smooth="yes"/>
      <point x="165" y="418"/>
      <point x="182" y="429"/>
      <point x="188" y="449" type="curve" smooth="yes"/>
      <point x="221" y="552" type="line"/>
    </contour>
  </outline>
</glyph>
<glyph name="underscore" format="2">
  <advance width="460"/>
  <unicode hex="005F"/>
  <outline>
    <contour>
      <point x="33" y="14" type="line" smooth="yes"/>
      <point x="35" y="-7"/>
      <point x="51" y="-21"/>
      <point x="73" y="-21" type="curve" smooth="yes"/>
      <point x="393" y="-19" type="line" smooth="yes"/>
      <point x="420" y="-19"/>
      <point x="436" y="-1"/>
      <point x="433" y="25" type="curve" smooth="yes"/>
      <point x="429" y="58" type="line" smooth="yes"/>
      <point x="427" y="79"/>
      <point x="411" y="93"/>
      <point x="390" y="93" type="curve" smooth="yes"/>
      <point x="68" y="96" type="line" smooth="yes"/>
      <point x="41" y="96"/>
      <point x="25" y="78"/>
      <point x="28" y="51" type="curve" smooth="yes"/>
    </contour>
  </outline>
</glyph>
<glyph name="grave" format="2">
  <advance width="264"/>
  <unicode hex="0060"/>
  <outline>
    <contour>
      <point x="113" y="449" type="line" smooth="yes"/>
      <point x="119" y="432"/>
      <point x="135" y="421"/>
      <point x="152" y="422" type="curve" smooth="yes"/>
      <point x="190" y="423" type="line" smooth="yes"/>
      <point x="218" y="424"/>
      <point x="233" y="442"/>
      <point x="228" y="469" type="curve" smooth="yes"/>
      <point x="199" y="641" type="line" smooth="yes"/>
      <point x="196" y="660"/>
      <point x="181" y="673"/>
      <point x="163" y="674" type="curve" smooth="yes"/>
      <point x="92" y="680" type="line" smooth="yes"/>
      <point x="55" y="682"/>
      <point x="39" y="661"/>
      <point x="51" y="626" type="curve" smooth="yes"/>
    </contour>
  </outline>
</glyph>
<glyph name="b" format="2">
  <advance width="547"/>
  <unicode hex="0062"/>
  <outline>
    <contour>
      <point x="228" y="347" type="line"/>
      <point x="324" y="325" type="line"/>
      <point x="331" y="181" type="line"/>
      <point x="224" y="166" type="line"/>
    </contour>
    <contour>
      <point x="214" y="616" type="line" smooth="yes"/>
      <point x="214" y="640"/>
      <point x="198" y="659"/>
      <point x="172" y="660" type="curve" smooth="yes"/>
      <point x="143" y="661"/>
      <point x="114" y="664"/>
      <point x="85" y="664" type="curve" smooth="yes"/>
      <point x="59" y="664"/>
      <point x="42" y="646"/>
      <point x="42" y="622" type="curve" smooth="yes"/>
      <point x="24" y="53" type="line" smooth="yes"/>
      <point x="24" y="29"/>
      <point x="42" y="12"/>
      <point x="66" y="11" type="curve" smooth="yes"/>
      <point x="351" y="-1" type="line" smooth="yes"/>
      <point x="363" y="-1"/>
      <point x="376" y="5"/>
      <point x="384" y="14" type="curve" smooth="yes"/>
      <point x="495" y="147" type="line"/>
      <point x="501" y="153"/>
      <point x="504" y="161"/>
      <point x="505" y="169" type="curve" smooth="yes"/>
      <point x="539" y="399" type="line"/>
      <point x="539" y="401"/>
      <point x="539" y="403"/>
      <point x="539" y="405" type="curve" smooth="yes"/>
      <point x="539" y="419"/>
      <point x="532" y="434"/>
      <point x="520" y="442" type="curve" smooth="yes"/>
      <point x="402" y="520" type="line" smooth="yes"/>
      <point x="395" y="525"/>
      <point x="385" y="528"/>
      <point x="377" y="528" type="curve" smooth="yes"/>
      <point x="375" y="528"/>
      <point x="373" y="528"/>
      <point x="372" y="527" type="curve"/>
      <point x="212" y="506" type="line"/>
    </contour>
  </outline>
</glyph>
<glyph name="d" format="2">
  <advance width="552"/>
  <unicode hex="0064"/>
  <outline>
    <contour>
      <point x="236" y="355" type="line"/>
      <point x="333" y="384" type="line"/>
      <point x="334" y="173" type="line"/>
      <point x="214" y="178" type="line"/>
    </contour>
    <contour>
      <point x="83" y="492" type="line" smooth="yes"/>
      <point x="62" y="489"/>
      <point x="48" y="473"/>
      <point x="45" y="454" type="curve" smooth="yes"/>
      <point x="12" y="160" type="line"/>
      <point x="12" y="147"/>
      <point x="18" y="134"/>
      <point x="29" y="126" type="curve" smooth="yes"/>
      <point x="171" y="13" type="line" smooth="yes"/>
      <point x="178" y="7"/>
      <point x="189" y="4"/>
      <point x="198" y="4" type="curve"/>
      <point x="485" y="19" type="line" smooth="yes"/>
      <point x="511" y="20"/>
      <point x="527" y="39"/>
      <point x="527" y="63" type="curve" smooth="yes"/>
      <point x="517" y="644" type="line" smooth="yes"/>
      <point x="517" y="668"/>
      <point x="501" y="686"/>
      <point x="474" y="686" type="curve" smooth="yes"/>
      <point x="443" y="686"/>
      <point x="410" y="683"/>
      <point x="379" y="681" type="curve" smooth="yes"/>
      <point x="353" y="680"/>
      <point x="337" y="661"/>
      <point x="337" y="637" type="curve" smooth="yes"/>
      <point x="340" y="528" type="line"/>
    </contour>
  </outline>
</glyph>
<glyph name="f" format="2">
  <advance width="419"/>
  <unicode hex="0066"/>
  <outline>
    <contour>
      <point x="102" y="74" type="line" smooth="yes"/>
      <point x="103" y="51"/>
      <point x="119" y="34"/>
      <point x="143" y="32" type="curve" smooth="yes"/>
      <point x="245" y="26" type="line"/>
      <point x="272" y="26"/>
      <point x="288" y="45"/>
      <point x="288" y="70" type="curve" smooth="yes"/>
      <point x="286" y="359" type="line"/>
      <point x="367" y="363" type="line" smooth="yes"/>
      <point x="391" y="365"/>
      <point x="407" y="382"/>
      <point x="408" y="406" type="curve" smooth="yes"/>
      <point x="408" y="424"/>
      <point x="409" y="443"/>
      <point x="409" y="462" type="curve" smooth="yes"/>
      <point x="409" y="486"/>
      <point x="394" y="505"/>
      <point x="369" y="506" type="curve" smooth="yes"/>
      <point x="291" y="512" type="line"/>
      <point x="291" y="582" type="line"/>
      <point x="321" y="579"/>
      <point x="353" y="575"/>
      <point x="384" y="575" type="curve" smooth="yes"/>
      <point x="410" y="575"/>
      <point x="426" y="593"/>
      <point x="426" y="618" type="curve" smooth="yes"/>
      <point x="426" y="637"/>
      <point x="424" y="658"/>
      <point x="422" y="678" type="curve"/>
      <point x="421" y="701"/>
      <point x="406" y="718"/>
      <point x="380" y="718" type="curve" smooth="yes"/>
      <point x="378" y="718"/>
      <point x="376" y="718"/>
      <point x="374" y="718" type="curve"/>
      <point x="183" y="698" type="line" smooth="yes"/>
      <point x="167" y="697"/>
      <point x="152" y="685"/>
      <point x="147" y="670" type="curve" smooth="yes"/>
      <point x="85" y="504" type="line"/>
      <point x="77" y="503"/>
      <point x="69" y="503"/>
      <point x="61" y="503" type="curve"/>
      <point x="31" y="501"/>
      <point x="0" y="495"/>
      <point x="0" y="458" type="curve" smooth="yes"/>
      <point x="0" y="442"/>
      <point x="3" y="424"/>
      <point x="5" y="408" type="curve" smooth="yes"/>
      <point x="8" y="373"/>
      <point x="36" y="368"/>
      <point x="64" y="367" type="curve" smooth="yes"/>
      <point x="72" y="367"/>
      <point x="80" y="367"/>
      <point x="87" y="367" type="curve"/>
    </contour>
  </outline>
</glyph>
<glyph name="g" format="2">
  <advance width="530"/>
  <unicode hex="0067"/>
  <outline>
    <contour>
      <point x="209" y="356" type="line"/>
      <point x="322" y="384" type="line"/>
      <point x="325" y="184" type="line"/>
      <point x="194" y="189" type="line"/>
    </contour>
    <contour>
      <point x="150" y="2" type="line"/>
      <point x="147" y="3"/>
      <point x="145" y="3"/>
      <point x="142" y="3" type="curve" smooth="yes"/>
      <point x="122" y="3"/>
      <point x="107" y="-10"/>
      <point x="101" y="-28" type="curve"/>
      <point x="99" y="-36"/>
      <point x="93" y="-52"/>
      <point x="87" y="-68" type="curve"/>
      <point x="82" y="-84"/>
      <point x="78" y="-101"/>
      <point x="78" y="-111" type="curve" smooth="yes"/>
      <point x="78" y="-132"/>
      <point x="93" y="-146"/>
      <point x="113" y="-150" type="curve" smooth="yes"/>
      <point x="343" y="-197" type="line"/>
      <point x="346" y="-198"/>
      <point x="349" y="-198"/>
      <point x="352" y="-198" type="curve" smooth="yes"/>
      <point x="368" y="-198"/>
      <point x="382" y="-189"/>
      <point x="390" y="-176" type="curve" smooth="yes"/>
      <point x="500" y="17" type="line"/>
      <point x="504" y="23"/>
      <point x="506" y="31"/>
      <point x="506" y="38" type="curve" smooth="yes"/>
      <point x="484" y="494" type="line" smooth="yes"/>
      <point x="483" y="517"/>
      <point x="467" y="534"/>
      <point x="443" y="535" type="curve" smooth="yes"/>
      <point x="162" y="552" type="line"/>
      <point x="144" y="552"/>
      <point x="128" y="541"/>
      <point x="122" y="526" type="curve" smooth="yes"/>
      <point x="11" y="277" type="line"/>
      <point x="9" y="271"/>
      <point x="8" y="265"/>
      <point x="8" y="259" type="curve" smooth="yes"/>
      <point x="8" y="254"/>
      <point x="8" y="249"/>
      <point x="11" y="243" type="curve"/>
      <point x="78" y="74" type="line" smooth="yes"/>
      <point x="84" y="59"/>
      <point x="100" y="47"/>
      <point x="117" y="47" type="curve" smooth="yes"/>
      <point x="315" y="40" type="line"/>
      <point x="313" y="-23" type="line"/>
    </contour>
  </outline>
</glyph>
<glyph name="h" format="2">
  <advance width="568"/>
  <unicode hex="0068"/>
  <outline>
    <contour>
      <point x="352" y="392" type="line"/>
      <point x="354" y="47" type="line" smooth="yes"/>
      <point x="354" y="23"/>
      <point x="370" y="4"/>
      <point x="397" y="4" type="curve" smooth="yes"/>
      <point x="429" y="4"/>
      <point x="473" y="10"/>
      <point x="506" y="12" type="curve" smooth="yes"/>
      <point x="529" y="14"/>
      <point x="546" y="31"/>
      <point x="546" y="54" type="curve" smooth="yes"/>
      <point x="536" y="418" type="line" smooth="yes"/>
      <point x="536" y="433"/>
      <point x="527" y="447"/>
      <point x="513" y="455" type="curve" smooth="yes"/>
      <point x="363" y="535" type="line" smooth="yes"/>
      <point x="356" y="539"/>
      <point x="348" y="541"/>
      <point x="341" y="541" type="curve"/>
      <point x="210" y="531" type="line"/>
      <point x="209" y="653" type="line" smooth="yes"/>
      <point x="208" y="677"/>
      <point x="192" y="695"/>
      <point x="168" y="696" type="curve" smooth="yes"/>
      <point x="139" y="698"/>
      <point x="109" y="702"/>
      <point x="81" y="702" type="curve" smooth="yes"/>
      <point x="55" y="702"/>
      <point x="39" y="684"/>
      <point x="38" y="659" type="curve" smooth="yes"/>
      <point x="26" y="57" type="line" smooth="yes"/>
      <point x="25" y="33"/>
      <point x="41" y="15"/>
      <point x="66" y="13" type="curve" smooth="yes"/>
      <point x="95" y="10"/>
      <point x="136" y="4"/>
      <point x="164" y="4" type="curve" smooth="yes"/>
      <point x="191" y="4"/>
      <point x="206" y="22"/>
      <point x="207" y="47" type="curve" smooth="yes"/>
      <point x="211" y="372" type="line"/>
    </contour>
  </outline>
</glyph>
<glyph name="j" format="2">
  <advance width="241"/>
  <unicode hex="006A"/>
  <outline>
    <contour>
      <point x="26" y="624" type="curve" smooth="yes"/>
      <point x="29" y="602"/>
      <point x="46" y="587"/>
      <point x="69" y="587" type="curve" smooth="yes"/>
      <point x="93" y="587"/>
      <point x="117" y="590"/>
      <point x="141" y="591" type="curve" smooth="yes"/>
      <point x="165" y="592"/>
      <point x="181" y="609"/>
      <point x="182" y="632" type="curve" smooth="yes"/>
      <point x="184" y="658"/>
      <point x="186" y="685"/>
      <point x="186" y="712" type="curve" smooth="yes"/>
      <point x="186" y="737"/>
      <point x="169" y="754"/>
      <point x="143" y="754" type="curve" smooth="yes"/>
      <point x="114" y="755"/>
      <point x="86" y="755"/>
      <point x="57" y="755" type="curve" smooth="yes"/>
      <point x="31" y="755"/>
      <point x="13" y="740"/>
      <point x="13" y="714" type="curve" smooth="yes"/>
      <point x="13" y="703"/>
      <point x="15" y="686"/>
      <point x="18" y="669" type="curve" smooth="yes"/>
      <point x="21" y="652"/>
      <point x="24" y="635"/>
    </contour>
    <contour>
      <point x="-64" y="-49" type="line"/>
      <point x="-66" y="-49"/>
      <point x="-68" y="-49"/>
      <point x="-70" y="-49" type="curve" smooth="yes"/>
      <point x="-94" y="-49"/>
      <point x="-109" y="-65"/>
      <point x="-112" y="-86" type="curve" smooth="yes"/>
      <point x="-114" y="-97"/>
      <point x="-116" y="-108"/>
      <point x="-118" y="-120" type="curve" smooth="yes"/>
      <point x="-120" y="-132"/>
      <point x="-122" y="-144"/>
      <point x="-122" y="-155" type="curve" smooth="yes"/>
      <point x="-122" y="-179"/>
      <point x="-105" y="-194"/>
      <point x="-81" y="-196" type="curve" smooth="yes"/>
      <point x="77" y="-208" type="line"/>
      <point x="93" y="-208"/>
      <point x="108" y="-199"/>
      <point x="116" y="-185" type="curve" smooth="yes"/>
      <point x="212" y="-8" type="line" smooth="yes"/>
      <point x="215" y="-2"/>
      <point x="217" y="6"/>
      <point x="217" y="14" type="curve" smooth="yes"/>
      <point x="204" y="496" type="line" smooth="yes"/>
      <point x="204" y="520"/>
      <point x="189" y="538"/>
      <point x="162" y="538" type="curve" smooth="yes"/>
      <point x="137" y="538"/>
      <point x="91" y="531"/>
      <point x="64" y="528" type="curve" smooth="yes"/>
      <point x="40" y="526"/>
      <point x="25" y="507"/>
      <point x="25" y="484" type="curve" smooth="yes"/>
      <point x="36" y="-60" type="line"/>
    </contour>
  </outline>
</glyph>
<glyph name="k" format="2">
  <advance width="539"/>
  <unicode hex="006B"/>
  <outline>
    <contour>
      <point x="247" y="206" type="line"/>
      <point x="337" y="30" type="line"/>
      <point x="344" y="18"/>
      <point x="359" y="11"/>
      <point x="374" y="11" type="curve" smooth="yes"/>
      <point x="407" y="11"/>
      <point x="447" y="16"/>
      <point x="481" y="19" type="curve" smooth="yes"/>
      <point x="501" y="20"/>
      <point x="524" y="29"/>
      <point x="524" y="55" type="curve" smooth="yes"/>
      <point x="524" y="65"/>
      <point x="521" y="74"/>
      <point x="517" y="82" type="curve" smooth="yes"/>
      <point x="385" y="338" type="line"/>
      <point x="499" y="470" type="line" smooth="yes"/>
      <point x="506" y="478"/>
      <point x="513" y="489"/>
      <point x="513" y="501" type="curve" smooth="yes"/>
      <point x="513" y="520"/>
      <point x="498" y="532"/>
      <point x="483" y="538" type="curve" smooth="yes"/>
      <point x="404" y="571" type="line" smooth="yes"/>
      <point x="399" y="573"/>
      <point x="393" y="575"/>
      <point x="387" y="575" type="curve" smooth="yes"/>
      <point x="376" y="575"/>
      <point x="364" y="570"/>
      <point x="356" y="562" type="curve" smooth="yes"/>
      <point x="193" y="395" type="line"/>
      <point x="196" y="646" type="line" smooth="yes"/>
      <point x="196" y="669"/>
      <point x="178" y="686"/>
      <point x="154" y="688" type="curve" smooth="yes"/>
      <point x="125" y="689"/>
      <point x="95" y="692"/>
      <point x="66" y="692" type="curve" smooth="yes"/>
      <point x="39" y="692"/>
      <point x="22" y="673"/>
      <point x="23" y="647" type="curve" smooth="yes"/>
      <point x="33" y="60" type="line" smooth="yes"/>
      <point x="34" y="36"/>
      <point x="50" y="18"/>
      <point x="75" y="17" type="curve" smooth="yes"/>
      <point x="107" y="16"/>
      <point x="139" y="13"/>
      <point x="171" y="13" type="curve" smooth="yes"/>
      <point x="197" y="13"/>
      <point x="213" y="31"/>
      <point x="214" y="56" type="curve" smooth="yes"/>
      <point x="217" y="173" type="line"/>
    </contour>
  </outline>
</glyph>
<glyph name="l" format="2">
  <advance width="251"/>
  <unicode hex="006C"/>
  <outline>
    <contour>
      <point x="36" y="58" type="line" smooth="yes"/>
      <point x="37" y="35"/>
      <point x="53" y="17"/>
      <point x="77" y="15" type="curve" smooth="yes"/>
      <point x="110" y="13"/>
      <point x="152" y="9"/>
      <point x="184" y="9" type="curve" smooth="yes"/>
      <point x="211" y="9"/>
      <point x="227" y="28"/>
      <point x="227" y="52" type="curve" smooth="yes"/>
      <point x="224" y="629" type="line" smooth="yes"/>
      <point x="223" y="651"/>
      <point x="208" y="669"/>
      <point x="185" y="672" type="curve" smooth="yes"/>
      <point x="69" y="684" type="line"/>
      <point x="67" y="685"/>
      <point x="64" y="685"/>
      <point x="62" y="685" type="curve" smooth="yes"/>
      <point x="34" y="685"/>
      <point x="20" y="665"/>
      <point x="20" y="640" type="curve" smooth="yes"/>
    </contour>
  </outline>
</glyph>
<glyph name="m" format="2">
  <advance width="778"/>
  <unicode hex="006D"/>
  <outline>
    <contour>
      <point x="291" y="371" type="line"/>
      <point x="307" y="62" type="line" smooth="yes"/>
      <point x="309" y="38"/>
      <point x="326" y="21"/>
      <point x="351" y="21" type="curve" smooth="yes"/>
      <point x="360" y="21"/>
      <point x="395" y="20"/>
      <point x="404" y="20" type="curve" smooth="yes"/>
      <point x="414" y="20"/>
      <point x="424" y="20"/>
      <point x="433" y="22" type="curve" smooth="yes"/>
      <point x="451" y="26"/>
      <point x="466" y="37"/>
      <point x="467" y="63" type="curve" smooth="yes"/>
      <point x="479" y="374" type="line"/>
      <point x="543" y="372" type="line"/>
      <point x="553" y="47" type="line" smooth="yes"/>
      <point x="554" y="23"/>
      <point x="570" y="5"/>
      <point x="596" y="5" type="curve" smooth="yes"/>
      <point x="626" y="5"/>
      <point x="670" y="8"/>
      <point x="699" y="10" type="curve" smooth="yes"/>
      <point x="724" y="11"/>
      <point x="741" y="29"/>
      <point x="741" y="53" type="curve" smooth="yes"/>
      <point x="741" y="453" type="line"/>
      <point x="742" y="471"/>
      <point x="730" y="488"/>
      <point x="713" y="494" type="curve" smooth="yes"/>
      <point x="587" y="534" type="line"/>
      <point x="582" y="536"/>
      <point x="577" y="537"/>
      <point x="572" y="537" type="curve" smooth="yes"/>
      <point x="567" y="537"/>
      <point x="562" y="536"/>
      <point x="558" y="535" type="curve"/>
      <point x="390" y="478" type="line"/>
      <point x="292" y="543" type="line" smooth="yes"/>
      <point x="285" y="548"/>
      <point x="276" y="550"/>
      <point x="267" y="550" type="curve"/>
      <point x="66" y="531" type="line" smooth="yes"/>
      <point x="42" y="529"/>
      <point x="26" y="510"/>
      <point x="27" y="487" type="curve" smooth="yes"/>
      <point x="37" y="48" type="line" smooth="yes"/>
      <point x="38" y="24"/>
      <point x="54" y="5"/>
      <point x="80" y="5" type="curve" smooth="yes"/>
      <point x="108" y="5"/>
      <point x="149" y="9"/>
      <point x="178" y="11" type="curve" smooth="yes"/>
      <point x="202" y="12"/>
      <point x="219" y="29"/>
      <point x="219" y="53" type="curve" smooth="yes"/>
      <point x="207" y="392" type="line"/>
    </contour>
  </outline>
</glyph>
<glyph name="n" format="2">
  <advance width="532"/>
  <unicode hex="006E"/>
  <outline>
    <contour>
      <point x="274" y="388" type="line"/>
      <point x="319" y="314" type="line"/>
      <point x="320" y="52" type="line" smooth="yes"/>
      <point x="320" y="25"/>
      <point x="337" y="9"/>
      <point x="365" y="9" type="curve" smooth="yes"/>
      <point x="397" y="9"/>
      <point x="430" y="11"/>
      <point x="463" y="12" type="curve" smooth="yes"/>
      <point x="488" y="13"/>
      <point x="505" y="31"/>
      <point x="505" y="54" type="curve" smooth="yes"/>
      <point x="513" y="392" type="line" smooth="yes"/>
      <point x="513" y="404"/>
      <point x="508" y="416"/>
      <point x="499" y="425" type="curve" smooth="yes"/>
      <point x="390" y="526" type="line" smooth="yes"/>
      <point x="382" y="534"/>
      <point x="370" y="538"/>
      <point x="358" y="538" type="curve"/>
      <point x="67" y="526" type="line" smooth="yes"/>
      <point x="41" y="525"/>
      <point x="24" y="506"/>
      <point x="25" y="482" type="curve" smooth="yes"/>
      <point x="32" y="72" type="line" smooth="yes"/>
      <point x="33" y="48"/>
      <point x="49" y="30"/>
      <point x="74" y="29" type="curve" smooth="yes"/>
      <point x="101" y="28"/>
      <point x="148" y="24"/>
      <point x="175" y="24" type="curve" smooth="yes"/>
      <point x="202" y="24"/>
      <point x="219" y="43"/>
      <point x="218" y="68" type="curve" smooth="yes"/>
      <point x="206" y="380" type="line"/>
    </contour>
  </outline>
</glyph>
<glyph name="o" format="2">
  <advance width="569"/>
  <unicode hex="006F"/>
  <outline>
    <contour>
      <point x="200" y="309" type="line"/>
      <point x="283" y="399" type="line"/>
      <point x="375" y="310" type="line"/>
      <point x="347" y="195" type="line"/>
      <point x="227" y="183" type="line"/>
    </contour>
    <contour>
      <point x="150" y="26" type="line" smooth="yes"/>
      <point x="157" y="20"/>
      <point x="168" y="15"/>
      <point x="178" y="15" type="curve" smooth="yes"/>
      <point x="383" y="24" type="line" smooth="yes"/>
      <point x="394" y="25"/>
      <point x="404" y="29"/>
      <point x="412" y="37" type="curve" smooth="yes"/>
      <point x="531" y="153" type="line"/>
      <point x="539" y="160"/>
      <point x="544" y="171"/>
      <point x="544" y="182" type="curve" smooth="yes"/>
      <point x="553" y="371" type="line" smooth="yes"/>
      <point x="553" y="381"/>
      <point x="549" y="392"/>
      <point x="542" y="399" type="curve"/>
      <point x="437" y="523" type="line" smooth="yes"/>
      <point x="429" y="532"/>
      <point x="416" y="538"/>
      <point x="403" y="538" type="curve"/>
      <point x="183" y="536" type="line"/>
      <point x="172" y="535"/>
      <point x="160" y="530"/>
      <point x="152" y="522" type="curve" smooth="yes"/>
      <point x="44" y="409" type="line" smooth="yes"/>
      <point x="37" y="402"/>
      <point x="33" y="392"/>
      <point x="32" y="382" type="curve" smooth="yes"/>
      <point x="16" y="158" type="line"/>
      <point x="16" y="146"/>
      <point x="22" y="133"/>
      <point x="32" y="125" type="curve" smooth="yes"/>
    </contour>
  </outline>
</glyph>
<glyph name="p" format="2">
  <advance width="530"/>
  <unicode hex="0070"/>
  <outline>
    <contour>
      <point x="218" y="375" type="line"/>
      <point x="331" y="369" type="line"/>
      <point x="316" y="193" type="line"/>
      <point x="218" y="186" type="line"/>
    </contour>
    <contour>
      <point x="446" y="58" type="line" smooth="yes"/>
      <point x="466" y="61"/>
      <point x="481" y="77"/>
      <point x="483" y="96" type="curve" smooth="yes"/>
      <point x="517" y="383" type="line"/>
      <point x="517" y="396"/>
      <point x="511" y="409"/>
      <point x="501" y="418" type="curve"/>
      <point x="359" y="530" type="line" smooth="yes"/>
      <point x="352" y="536"/>
      <point x="341" y="540"/>
      <point x="332" y="540" type="curve"/>
      <point x="68" y="525" type="line" smooth="yes"/>
      <point x="43" y="524"/>
      <point x="26" y="506"/>
      <point x="27" y="481" type="curve" smooth="yes"/>
      <point x="37" y="-132" type="line" smooth="yes"/>
      <point x="38" y="-157"/>
      <point x="54" y="-175"/>
      <point x="80" y="-175" type="curve" smooth="yes"/>
      <point x="111" y="-175"/>
      <point x="144" y="-171"/>
      <point x="175" y="-170" type="curve"/>
      <point x="198" y="-168"/>
      <point x="216" y="-151"/>
      <point x="216" y="-128" type="curve" smooth="yes"/>
      <point x="216" y="-78"/>
      <point x="213" y="-28"/>
      <point x="211" y="22" type="curve"/>
    </contour>
  </outline>
</glyph>
<glyph name="q" format="2">
  <advance width="546"/>
  <unicode hex="0071"/>
  <outline>
    <contour>
      <point x="213" y="328" type="line"/>
      <point x="324" y="386" type="line"/>
      <point x="326" y="177" type="line"/>
      <point x="229" y="172" type="line"/>
    </contour>
    <contour>
      <point x="333" y="-126" type="line" smooth="yes"/>
      <point x="332" y="-150"/>
      <point x="349" y="-168"/>
      <point x="374" y="-169" type="curve" smooth="yes"/>
      <point x="403" y="-171"/>
      <point x="432" y="-173"/>
      <point x="461" y="-173" type="curve" smooth="yes"/>
      <point x="487" y="-173"/>
      <point x="503" y="-155"/>
      <point x="504" y="-131" type="curve" smooth="yes"/>
      <point x="522" y="483" type="line" smooth="yes"/>
      <point x="522" y="507"/>
      <point x="505" y="524"/>
      <point x="480" y="525" type="curve" smooth="yes"/>
      <point x="196" y="537" type="line" smooth="yes"/>
      <point x="183" y="537"/>
      <point x="169" y="530"/>
      <point x="161" y="520" type="curve" smooth="yes"/>
      <point x="50" y="375" type="line"/>
      <point x="45" y="370"/>
      <point x="42" y="363"/>
      <point x="41" y="356" type="curve" smooth="yes"/>
      <point x="8" y="146" type="line"/>
      <point x="8" y="144"/>
      <point x="8" y="142"/>
      <point x="8" y="140" type="curve" smooth="yes"/>
      <point x="8" y="126"/>
      <point x="15" y="112"/>
      <point x="27" y="103" type="curve"/>
      <point x="144" y="25" type="line" smooth="yes"/>
      <point x="152" y="20"/>
      <point x="161" y="18"/>
      <point x="170" y="18" type="curve" smooth="yes"/>
      <point x="171" y="18"/>
      <point x="173" y="18"/>
      <point x="175" y="18" type="curve"/>
      <point x="333" y="39" type="line"/>
    </contour>
  </outline>
</glyph>
<glyph name="s" format="2">
  <advance width="527"/>
  <unicode hex="0073"/>
  <outline>
    <contour>
      <point x="91" y="179" type="line"/>
      <point x="89" y="180"/>
      <point x="86" y="180"/>
      <point x="83" y="180" type="curve" smooth="yes"/>
      <point x="63" y="180"/>
      <point x="48" y="167"/>
      <point x="42" y="148" type="curve" smooth="yes"/>
      <point x="22" y="80" type="line"/>
      <point x="21" y="75"/>
      <point x="20" y="70"/>
      <point x="20" y="65" type="curve" smooth="yes"/>
      <point x="20" y="42"/>
      <point x="36" y="28"/>
      <point x="58" y="25" type="curve" smooth="yes"/>
      <point x="258" y="-4" type="line"/>
      <point x="260" y="-4"/>
      <point x="262" y="-5"/>
      <point x="263" y="-5" type="curve" smooth="yes"/>
      <point x="270" y="-5"/>
      <point x="276" y="-3"/>
      <point x="282" y="-1" type="curve"/>
      <point x="474" y="84" type="line" smooth="yes"/>
      <point x="490" y="91"/>
      <point x="500" y="107"/>
      <point x="500" y="124" type="curve" smooth="yes"/>
      <point x="500" y="126"/>
      <point x="500" y="128"/>
      <point x="500" y="130" type="curve"/>
      <point x="481" y="273" type="line" smooth="yes"/>
      <point x="479" y="292"/>
      <point x="465" y="307"/>
      <point x="446" y="311" type="curve" smooth="yes"/>
      <point x="239" y="348" type="line"/>
      <point x="242" y="406" type="line"/>
      <point x="436" y="383" type="line"/>
      <point x="438" y="382"/>
      <point x="441" y="382"/>
      <point x="443" y="382" type="curve" smooth="yes"/>
      <point x="465" y="382"/>
      <point x="481" y="397"/>
      <point x="485" y="418" type="curve" smooth="yes"/>
      <point x="487" y="427"/>
      <point x="490" y="440"/>
      <point x="492" y="452" type="curve"/>
      <point x="495" y="465"/>
      <point x="497" y="478"/>
      <point x="497" y="488" type="curve" smooth="yes"/>
      <point x="497" y="511"/>
      <point x="481" y="526"/>
      <point x="457" y="528" type="curve" smooth="yes"/>
      <point x="227" y="550" type="line"/>
      <point x="224" y="550"/>
      <point x="220" y="549"/>
      <point x="217" y="549" type="curve"/>
      <point x="78" y="519" type="line" smooth="yes"/>
      <point x="59" y="515"/>
      <point x="45" y="498"/>
      <point x="44" y="479" type="curve" smooth="yes"/>
      <point x="33" y="298" type="line"/>
      <point x="33" y="278"/>
      <point x="46" y="261"/>
      <point x="67" y="256" type="curve" smooth="yes"/>
      <point x="274" y="208" type="line"/>
      <point x="282" y="148" type="line"/>
    </contour>
  </outline>
</glyph>
<glyph name="t" format="2">
  <advance width="485"/>
  <unicode hex="0074"/>
  <outline>
    <contour>
      <point x="129" y="55" type="line" smooth="yes"/>
      <point x="129" y="30"/>
      <point x="146" y="12"/>
      <point x="172" y="12" type="curve" smooth="yes"/>
      <point x="214" y="12"/>
      <point x="258" y="16"/>
      <point x="300" y="18" type="curve" smooth="yes"/>
      <point x="326" y="19"/>
      <point x="342" y="38"/>
      <point x="342" y="62" type="curve" smooth="yes"/>
      <point x="335" y="395" type="line"/>
      <point x="439" y="405" type="line" smooth="yes"/>
      <point x="463" y="408"/>
      <point x="479" y="425"/>
      <point x="479" y="448" type="curve" smooth="yes"/>
      <point x="479" y="465"/>
      <point x="477" y="482"/>
      <point x="476" y="499" type="curve" smooth="yes"/>
      <point x="475" y="523"/>
      <point x="458" y="540"/>
      <point x="433" y="541" type="curve" smooth="yes"/>
      <point x="340" y="542" type="line"/>
      <point x="341" y="580"/>
      <point x="344" y="618"/>
      <point x="344" y="655" type="curve" smooth="yes"/>
      <point x="344" y="679"/>
      <point x="329" y="697"/>
      <point x="302" y="697" type="curve"/>
      <point x="174" y="685" type="line" smooth="yes"/>
      <point x="151" y="683"/>
      <point x="136" y="666"/>
      <point x="134" y="645" type="curve" smooth="yes"/>
      <point x="128" y="538" type="line"/>
      <point x="54" y="535" type="line" smooth="yes"/>
      <point x="29" y="534"/>
      <point x="13" y="516"/>
      <point x="12" y="493" type="curve" smooth="yes"/>
      <point x="12" y="476"/>
      <point x="11" y="459"/>
      <point x="11" y="442" type="curve" smooth="yes"/>
      <point x="11" y="417"/>
      <point x="26" y="399"/>
      <point x="54" y="398" type="curve" smooth="yes"/>
      <point x="128" y="396" type="line"/>
    </contour>
  </outline>
</glyph>
<glyph name="u" format="2">
  <advance width="557"/>
  <unicode hex="0075"/>
  <outline>
    <contour>
      <point x="44" y="105" type="line" smooth="yes"/>
      <point x="47" y="91"/>
      <point x="58" y="79"/>
      <point x="71" y="74" type="curve" smooth="yes"/>
      <point x="221" y="19" type="line" smooth="yes"/>
      <point x="226" y="17"/>
      <point x="232" y="17"/>
      <point x="237" y="17" type="curve"/>
      <point x="477" y="39" type="line" smooth="yes"/>
      <point x="500" y="41"/>
      <point x="516" y="57"/>
      <point x="517" y="78" type="curve" smooth="yes"/>
      <point x="530" y="458" type="line" smooth="yes"/>
      <point x="531" y="481"/>
      <point x="514" y="499"/>
      <point x="490" y="500" type="curve" smooth="yes"/>
      <point x="457" y="503"/>
      <point x="423" y="508"/>
      <point x="390" y="508" type="curve" smooth="yes"/>
      <point x="365" y="508"/>
      <point x="347" y="490"/>
      <point x="347" y="466" type="curve" smooth="yes"/>
      <point x="347" y="373"/>
      <point x="352" y="279"/>
      <point x="354" y="186" type="curve"/>
      <point x="231" y="170" type="line"/>
      <point x="225" y="505" type="line" smooth="yes"/>
      <point x="224" y="529"/>
      <point x="208" y="547"/>
      <point x="182" y="547" type="curve" smooth="yes"/>
      <point x="149" y="548"/>
      <point x="115" y="550"/>
      <point x="82" y="550" type="curve" smooth="yes"/>
      <point x="58" y="550"/>
      <point x="42" y="532"/>
      <point x="40" y="510" type="curve" smooth="yes"/>
      <point x="18" y="262" type="line" smooth="yes"/>
      <point x="16" y="240"/>
      <point x="18" y="214"/>
      <point x="22" y="196" type="curve" smooth="yes"/>
    </contour>
  </outline>
</glyph>
<glyph name="v" format="2">
  <advance width="538"/>
  <unicode hex="0076"/>
  <outline>
    <contour>
      <point x="175" y="528" type="line" smooth="yes"/>
      <point x="168" y="544"/>
      <point x="152" y="555"/>
      <point x="134" y="555" type="curve" smooth="yes"/>
      <point x="105" y="555"/>
      <point x="74" y="552"/>
      <point x="45" y="550" type="curve" smooth="yes"/>
      <point x="22" y="549"/>
      <point x="3" y="537"/>
      <point x="3" y="512" type="curve" smooth="yes"/>
      <point x="3" y="505"/>
      <point x="4" y="499"/>
      <point x="6" y="493" type="curve" smooth="yes"/>
      <point x="157" y="52" type="line" smooth="yes"/>
      <point x="162" y="36"/>
      <point x="178" y="23"/>
      <point x="197" y="23" type="curve" smooth="yes"/>
      <point x="332" y="19" type="line" smooth="yes"/>
      <point x="349" y="19"/>
      <point x="365" y="31"/>
      <point x="371" y="46" type="curve" smooth="yes"/>
      <point x="526" y="444" type="line" smooth="yes"/>
      <point x="528" y="450"/>
      <point x="530" y="457"/>
      <point x="530" y="465" type="curve" smooth="yes"/>
      <point x="530" y="490"/>
      <point x="510" y="501"/>
      <point x="488" y="503" type="curve" smooth="yes"/>
      <point x="461" y="505"/>
      <point x="432" y="508"/>
      <point x="404" y="508" type="curve" smooth="yes"/>
      <point x="385" y="508"/>
      <point x="369" y="496"/>
      <point x="363" y="479" type="curve" smooth="yes"/>
      <point x="284" y="255" type="line"/>
    </contour>
  </outline>
</glyph>
<glyph name="w" format="2">
  <advance width="773"/>
  <unicode hex="0077"/>
  <outline>
    <contour>
      <point x="187" y="475" type="line" smooth="yes"/>
      <point x="182" y="496"/>
      <point x="165" y="510"/>
      <point x="143" y="510" type="curve"/>
      <point x="53" y="508" type="line" smooth="yes"/>
      <point x="28" y="507"/>
      <point x="9" y="493"/>
      <point x="9" y="468" type="curve" smooth="yes"/>
      <point x="9" y="464"/>
      <point x="10" y="460"/>
      <point x="11" y="456" type="curve" smooth="yes"/>
      <point x="94" y="52" type="line" smooth="yes"/>
      <point x="98" y="35"/>
      <point x="112" y="21"/>
      <point x="131" y="18" type="curve" smooth="yes"/>
      <point x="257" y="1" type="line"/>
      <point x="259" y="1"/>
      <point x="261" y="1"/>
      <point x="263" y="1" type="curve" smooth="yes"/>
      <point x="278" y="1"/>
      <point x="293" y="9"/>
      <point x="301" y="22" type="curve"/>
      <point x="376" y="161" type="line"/>
      <point x="441" y="17" type="line" smooth="yes"/>
      <point x="447" y="2"/>
      <point x="464" y="-6"/>
      <point x="480" y="-6" type="curve"/>
      <point x="632" y="4" type="line" smooth="yes"/>
      <point x="652" y="5"/>
      <point x="668" y="19"/>
      <point x="672" y="38" type="curve" smooth="yes"/>
      <point x="767" y="481" type="line" smooth="yes"/>
      <point x="768" y="485"/>
      <point x="769" y="489"/>
      <point x="769" y="494" type="curve" smooth="yes"/>
      <point x="769" y="519"/>
      <point x="750" y="533"/>
      <point x="726" y="533" type="curve" smooth="yes"/>
      <point x="693" y="533"/>
      <point x="659" y="530"/>
      <point x="626" y="529" type="curve" smooth="yes"/>
      <point x="605" y="528"/>
      <point x="589" y="513"/>
      <point x="585" y="494" type="curve" smooth="yes"/>
      <point x="527" y="210" type="line"/>
      <point x="428" y="418" type="line" smooth="yes"/>
      <point x="422" y="430"/>
      <point x="409" y="443"/>
      <point x="392" y="443" type="curve" smooth="yes"/>
      <point x="376" y="443"/>
      <point x="362" y="433"/>
      <point x="356" y="422" type="curve" smooth="yes"/>
      <point x="244" y="216" type="line"/>
    </contour>
  </outline>
</glyph>
<glyph name="x" format="2">
  <advance width="556"/>
  <unicode hex="0078"/>
  <outline>
    <contour>
      <point x="343" y="26" type="line" smooth="yes"/>
      <point x="351" y="14"/>
      <point x="366" y="5"/>
      <point x="381" y="6" type="curve" smooth="yes"/>
      <point x="494" y="9" type="line" smooth="yes"/>
      <point x="513" y="9"/>
      <point x="542" y="16"/>
      <point x="542" y="43" type="curve" smooth="yes"/>
      <point x="542" y="55"/>
      <point x="536" y="67"/>
      <point x="530" y="76" type="curve" smooth="yes"/>
      <point x="401" y="272" type="line"/>
      <point x="523" y="450" type="line" smooth="yes"/>
      <point x="529" y="459"/>
      <point x="534" y="470"/>
      <point x="534" y="481" type="curve" smooth="yes"/>
      <point x="534" y="504"/>
      <point x="513" y="514"/>
      <point x="495" y="518" type="curve" smooth="yes"/>
      <point x="389" y="537" type="line"/>
      <point x="386" y="538"/>
      <point x="384" y="538"/>
      <point x="381" y="538" type="curve" smooth="yes"/>
      <point x="365" y="538"/>
      <point x="350" y="529"/>
      <point x="343" y="516" type="curve" smooth="yes"/>
      <point x="277" y="400" type="line"/>
      <point x="213" y="517" type="line" smooth="yes"/>
      <point x="206" y="531"/>
      <point x="191" y="540"/>
      <point x="175" y="540" type="curve"/>
      <point x="63" y="528" type="line" smooth="yes"/>
      <point x="43" y="526"/>
      <point x="20" y="517"/>
      <point x="20" y="492" type="curve" smooth="yes"/>
      <point x="20" y="481"/>
      <point x="25" y="471"/>
      <point x="30" y="462" type="curve" smooth="yes"/>
      <point x="146" y="272" type="line"/>
      <point x="19" y="86" type="line" smooth="yes"/>
      <point x="13" y="77"/>
      <point x="8" y="66"/>
      <point x="8" y="55" type="curve" smooth="yes"/>
      <point x="8" y="32"/>
      <point x="30" y="22"/>
      <point x="48" y="19" type="curve" smooth="yes"/>
      <point x="159" y="0" type="line"/>
      <point x="161" y="0"/>
      <point x="163" y="0"/>
      <point x="166" y="0" type="curve" smooth="yes"/>
      <point x="181" y="0"/>
      <point x="195" y="7"/>
      <point x="203" y="20" type="curve" smooth="yes"/>
      <point x="277" y="132" type="line"/>
    </contour>
  </outline>
</glyph>
<glyph name="z" format="2">
  <advance width="446"/>
  <unicode hex="007A"/>
  <outline>
    <contour>
      <point x="409" y="361" type="line" smooth="yes"/>
      <point x="416" y="369"/>
      <point x="420" y="380"/>
      <point x="420" y="390" type="curve"/>
      <point x="408" y="495" type="line" smooth="yes"/>
      <point x="405" y="516"/>
      <point x="388" y="533"/>
      <point x="365" y="533" type="curve"/>
      <point x="56" y="522" type="line" smooth="yes"/>
      <point x="20" y="521"/>
      <point x="13" y="494"/>
      <point x="13" y="465" type="curve" smooth="yes"/>
      <point x="13" y="456"/>
      <point x="13" y="447"/>
      <point x="13" y="440" type="curve" smooth="yes"/>
      <point x="13" y="415"/>
      <point x="29" y="396"/>
      <point x="56" y="396" type="curve"/>
      <point x="190" y="405" type="line"/>
      <point x="23" y="159" type="line" smooth="yes"/>
      <point x="18" y="152"/>
      <point x="15" y="143"/>
      <point x="15" y="134" type="curve" smooth="yes"/>
      <point x="15" y="125"/>
      <point x="18" y="108"/>
      <point x="22" y="92" type="curve"/>
      <point x="25" y="75"/>
      <point x="29" y="58"/>
      <point x="31" y="49" type="curve" smooth="yes"/>
      <point x="35" y="28"/>
      <point x="52" y="13"/>
      <point x="74" y="13" type="curve" smooth="yes"/>
      <point x="393" y="16" type="line" smooth="yes"/>
      <point x="419" y="17"/>
      <point x="436" y="34"/>
      <point x="436" y="59" type="curve" smooth="yes"/>
      <point x="436" y="73"/>
      <point x="435" y="95"/>
      <point x="434" y="109" type="curve" smooth="yes"/>
      <point x="433" y="132"/>
      <point x="416" y="149"/>
      <point x="392" y="150" type="curve" smooth="yes"/>
      <point x="226" y="159" type="line"/>
    </contour>
  </outline>
</glyph>
<glyph name="bar" format="2">
  <advance width="206"/>
  <unicode hex="007C"/>
  <outline>
    <contour>
      <point x="116" y="-79" type="line" smooth="yes"/>
      <point x="142" y="-81"/>
      <point x="160" y="-65"/>
      <point x="159" y="-39" type="curve" smooth="yes"/>
      <point x="156" y="197" type="line"/>
      <point x="161" y="476" type="line"/>
      <point x="168" y="708" type="line" smooth="yes"/>
      <point x="168" y="736"/>
      <point x="150" y="753"/>
      <point x="122" y="749" type="curve" smooth="yes"/>
      <point x="77" y="743" type="line" smooth="yes"/>
      <point x="56" y="740"/>
      <point x="42" y="724"/>
      <point x="42" y="703" type="curve" smooth="yes"/>
      <point x="44" y="469" type="line"/>
      <point x="38" y="-35" type="line" smooth="yes"/>
      <point x="38" y="-57"/>
      <point x="53" y="-73"/>
      <point x="75" y="-75" type="curve" smooth="yes"/>
    </contour>
  </outline>
</glyph>
<glyph name="braceright" format="2">
  <advance width="356"/>
  <unicode hex="007D"/>
  <outline>
    <contour>
      <point x="259" y="425" type="line"/>
      <point x="259" y="425"/>
      <point x="260" y="466"/>
      <point x="263" y="542" type="curve" smooth="yes"/>
      <point x="266" y="618"/>
      <point x="237" y="715"/>
      <point x="39" y="699" type="curve"/>
      <point x="29" y="582" type="line"/>
      <point x="29" y="582"/>
      <point x="115" y="586"/>
      <point x="120" y="496" type="curve" smooth="yes"/>
      <point x="126" y="406"/>
      <point x="115" y="379"/>
      <point x="187" y="353" type="curve"/>
      <point x="187" y="353"/>
      <point x="119" y="347"/>
      <point x="119" y="255" type="curve" smooth="yes"/>
      <point x="119" y="163"/>
      <point x="129" y="124"/>
      <point x="29" y="123" type="curve"/>
      <point x="38" y="-9" type="line"/>
      <point x="38" y="-9"/>
      <point x="275" y="-44"/>
      <point x="262" y="133" type="curve" smooth="yes"/>
      <point x="254" y="248"/>
      <point x="263" y="284"/>
      <point x="263" y="284" type="curve"/>
      <point x="329" y="304" type="line"/>
      <point x="329" y="396" type="line"/>
    </contour>
  </outline>
</glyph>
<glyph name="asciitilde" format="2">
  <advance width="509"/>
  <unicode hex="007E"/>
  <outline>
    <contour>
      <point x="478" y="413" type="curve"/>
      <point x="369" y="430" type="line"/>
      <point x="382" y="355"/>
      <point x="363" y="305"/>
      <point x="343" y="305" type="curve" smooth="yes"/>
      <point x="324" y="305"/>
      <point x="310" y="325"/>
      <point x="296" y="354" type="curve" smooth="yes"/>
      <point x="281" y="382"/>
      <point x="266" y="436"/>
      <point x="169" y="436" type="curve" smooth="yes"/>
      <point x="-15" y="436"/>
      <point x="35" y="203"/>
      <point x="35" y="203" type="curve"/>
      <point x="161" y="195" type="line"/>
      <point x="161" y="195"/>
      <point x="156" y="219"/>
      <point x="155" y="276" type="curve" smooth="yes"/>
      <point x="155" y="332"/>
      <point x="200" y="321"/>
      <point x="231" y="268" type="curve" smooth="yes"/>
      <point x="262" y="214"/>
      <point x="280" y="195"/>
      <point x="360" y="195" type="curve" smooth="yes"/>
      <point x="509" y="195"/>
      <point x="478" y="413"/>
    </contour>
  </outline>
</glyph>
<glyph name="exclamdown" format="2">
  <advance width="283"/>
  <unicode hex="00A1"/>
  <outline>
    <contour>
      <point x="86" y="-104" type="line" smooth="yes"/>
      <point x="87" y="-127"/>
      <point x="103" y="-143"/>
      <point x="126" y="-143" type="curve" smooth="yes"/>
      <point x="205" y="-142" type="line" smooth="yes"/>
      <point x="231" y="-141"/>
      <point x="247" y="-123"/>
      <point x="244" y="-97" type="curve" smooth="yes"/>
      <point x="204" y="258" type="line" smooth="yes"/>
      <point x="202" y="280"/>
      <point x="186" y="294"/>
      <point x="164" y="294" type="curve"/>
      <point x="117" y="293" type="line"/>
      <point x="92" y="293"/>
      <point x="76" y="277"/>
      <point x="77" y="252" type="curve" smooth="yes"/>
    </contour>
    <contour>
      <point x="97" y="528" type="line" smooth="yes"/>
      <point x="76" y="526"/>
      <point x="61" y="510"/>
      <point x="61" y="488" type="curve" smooth="yes"/>
      <point x="60" y="424" type="line" smooth="yes"/>
      <point x="60" y="395"/>
      <point x="79" y="379"/>
      <point x="108" y="384" type="curve" smooth="yes"/>
      <point x="170" y="396" type="line" smooth="yes"/>
      <point x="191" y="400"/>
      <point x="204" y="417"/>
      <point x="202" y="439" type="curve" smooth="yes"/>
      <point x="197" y="496" type="line" smooth="yes"/>
      <point x="195" y="520"/>
      <point x="178" y="535"/>
      <point x="154" y="533" type="curve" smooth="yes"/>
    </contour>
  </outline>
</glyph>
<glyph name="cent" format="2">
  <advance width="628"/>
  <unicode hex="00A2"/>
  <outline>
    <contour>
      <point x="234" y="-100" type="line" smooth="yes"/>
      <point x="227" y="-100"/>
      <point x="220" y="-97"/>
      <point x="215" y="-92" type="curve" smooth="yes"/>
      <point x="210" y="-87"/>
      <point x="207" y="-80"/>
      <point x="207" y="-73" type="curve" smooth="yes"/>
      <point x="207" y="3" type="line"/>
      <point x="156" y="18"/>
      <point x="115" y="43"/>
      <point x="83" y="80" type="curve" smooth="yes"/>
      <point x="50" y="116"/>
      <point x="32" y="162"/>
      <point x="29" y="219" type="curve" smooth="yes"/>
      <point x="28" y="230"/>
      <point x="28" y="243"/>
      <point x="28" y="259" type="curve" smooth="yes"/>
      <point x="28" y="275"/>
      <point x="28" y="289"/>
      <point x="29" y="300" type="curve" smooth="yes"/>
      <point x="32" y="357"/>
      <point x="49" y="403"/>
      <point x="82" y="440" type="curve" smooth="yes"/>
      <point x="115" y="476"/>
      <point x="156" y="501"/>
      <point x="207" y="516" type="curve"/>
      <point x="207" y="583" type="line" smooth="yes"/>
      <point x="207" y="590"/>
      <point x="210" y="597"/>
      <point x="215" y="602" type="curve" smooth="yes"/>
      <point x="220" y="607"/>
      <point x="227" y="610"/>
      <point x="234" y="610" type="curve" smooth="yes"/>
      <point x="383" y="610" type="line" smooth="yes"/>
      <point x="390" y="610"/>
      <point x="397" y="607"/>
      <point x="402" y="602" type="curve" smooth="yes"/>
      <point x="407" y="597"/>
      <point x="410" y="590"/>
      <point x="410" y="583" type="curve" smooth="yes"/>
      <point x="410" y="518" type="line"/>
      <point x="546" y="483"/>
      <point x="599" y="379"/>
      <point x="602" y="336" type="curve"/>
      <point x="603" y="329"/>
      <point x="600" y="322"/>
      <point x="595" y="317" type="curve"/>
      <point x="589" y="312"/>
      <point x="582" y="309"/>
      <point x="575" y="309" type="curve" smooth="yes"/>
      <point x="380" y="309" type="line" smooth="yes"/>
      <point x="354" y="309"/>
      <point x="348" y="339"/>
      <point x="337" y="351" type="curve" smooth="yes"/>
      <point x="332" y="356"/>
      <point x="324" y="359"/>
      <point x="314" y="359" type="curve" smooth="yes"/>
      <point x="299" y="359"/>
      <point x="288" y="353"/>
      <point x="283" y="342" type="curve" smooth="yes"/>
      <point x="278" y="331"/>
      <point x="275" y="315"/>
      <point x="274" y="295" type="curve" smooth="yes"/>
      <point x="273" y="266"/>
      <point x="273" y="243"/>
      <point x="274" y="224" type="curve" smooth="yes"/>
      <point x="275" y="203"/>
      <point x="279" y="187"/>
      <point x="284" y="177" type="curve" smooth="yes"/>
      <point x="289" y="166"/>
      <point x="299" y="161"/>
      <point x="314" y="161" type="curve" smooth="yes"/>
      <point x="326" y="161"/>
      <point x="334" y="164"/>
      <point x="339" y="169" type="curve"/>
      <point x="348" y="181"/>
      <point x="354" y="211"/>
      <point x="380" y="211" type="curve" smooth="yes"/>
      <point x="575" y="211" type="line" smooth="yes"/>
      <point x="582" y="211"/>
      <point x="589" y="208"/>
      <point x="595" y="203" type="curve"/>
      <point x="600" y="198"/>
      <point x="603" y="191"/>
      <point x="602" y="184" type="curve" smooth="yes"/>
      <point x="601" y="175"/>
      <point x="598" y="163"/>
      <point x="591" y="146" type="curve" smooth="yes"/>
      <point x="584" y="129"/>
      <point x="573" y="112"/>
      <point x="558" y="93" type="curve" smooth="yes"/>
      <point x="543" y="74"/>
      <point x="524" y="57"/>
      <point x="500" y="41" type="curve" smooth="yes"/>
      <point x="475" y="24"/>
      <point x="445" y="11"/>
      <point x="410" y="2" type="curve"/>
      <point x="410" y="-73" type="line" smooth="yes"/>
      <point x="410" y="-80"/>
      <point x="407" y="-87"/>
      <point x="402" y="-92" type="curve" smooth="yes"/>
      <point x="397" y="-97"/>
      <point x="390" y="-100"/>
      <point x="383" y="-100" type="curve" smooth="yes"/>
    </contour>
  </outline>
</glyph>
<glyph name="section" format="2">
  <advance width="636"/>
  <unicode hex="00A7"/>
  <outline>
    <contour>
      <point x="307" y="-140" type="curve" smooth="yes"/>
      <point x="144" y="-140"/>
      <point x="51" y="-44"/>
      <point x="48" y="17" type="curve"/>
      <point x="47" y="24"/>
      <point x="49" y="30"/>
      <point x="54" y="34" type="curve" smooth="yes"/>
      <point x="59" y="38"/>
      <point x="64" y="40"/>
      <point x="70" y="40" type="curve" smooth="yes"/>
      <point x="236" y="40" type="line" smooth="yes"/>
      <point x="264" y="40"/>
      <point x="262" y="11"/>
      <point x="304" y="11" type="curve" smooth="yes"/>
      <point x="325" y="11"/>
      <point x="336" y="34"/>
      <point x="322" y="57" type="curve" smooth="yes"/>
      <point x="318" y="64"/>
      <point x="309" y="70"/>
      <point x="294" y="77" type="curve" smooth="yes"/>
      <point x="279" y="84"/>
      <point x="254" y="90"/>
      <point x="219" y="96" type="curve"/>
      <point x="75" y="132"/>
      <point x="26" y="193"/>
      <point x="26" y="295" type="curve" smooth="yes"/>
      <point x="26" y="323"/>
      <point x="32" y="349"/>
      <point x="43" y="372" type="curve" smooth="yes"/>
      <point x="54" y="395"/>
      <point x="71" y="416"/>
      <point x="94" y="433" type="curve"/>
      <point x="89" y="443"/>
      <point x="86" y="454"/>
      <point x="83" y="466" type="curve" smooth="yes"/>
      <point x="80" y="478"/>
      <point x="78" y="491"/>
      <point x="78" y="505" type="curve" smooth="yes"/>
      <point x="78" y="619"/>
      <point x="167" y="710"/>
      <point x="329" y="710" type="curve" smooth="yes"/>
      <point x="384" y="710"/>
      <point x="430" y="701"/>
      <point x="468" y="684" type="curve" smooth="yes"/>
      <point x="506" y="667"/>
      <point x="535" y="646"/>
      <point x="556" y="622" type="curve" smooth="yes"/>
      <point x="577" y="598"/>
      <point x="587" y="576"/>
      <point x="588" y="555" type="curve"/>
      <point x="589" y="548"/>
      <point x="587" y="542"/>
      <point x="582" y="538" type="curve" smooth="yes"/>
      <point x="577" y="534"/>
      <point x="572" y="532"/>
      <point x="566" y="532" type="curve" smooth="yes"/>
      <point x="400" y="532" type="line" smooth="yes"/>
      <point x="373" y="532"/>
      <point x="375" y="559"/>
      <point x="332" y="559" type="curve" smooth="yes"/>
      <point x="311" y="559"/>
      <point x="300" y="536"/>
      <point x="314" y="513" type="curve" smooth="yes"/>
      <point x="318" y="506"/>
      <point x="328" y="500"/>
      <point x="343" y="494" type="curve"/>
      <point x="358" y="487"/>
      <point x="383" y="481"/>
      <point x="417" y="474" type="curve" smooth="yes"/>
      <point x="563" y="438"/>
      <point x="610" y="377"/>
      <point x="610" y="275" type="curve" smooth="yes"/>
      <point x="610" y="247"/>
      <point x="604" y="221"/>
      <point x="593" y="198" type="curve" smooth="yes"/>
      <point x="581" y="175"/>
      <point x="564" y="154"/>
      <point x="542" y="137" type="curve"/>
      <point x="547" y="126"/>
      <point x="551" y="115"/>
      <point x="554" y="104" type="curve" smooth="yes"/>
      <point x="557" y="92"/>
      <point x="558" y="79"/>
      <point x="558" y="65" type="curve" smooth="yes"/>
      <point x="558" y="-49"/>
      <point x="471" y="-140"/>
    </contour>
    <contour>
      <point x="374" y="242" type="curve"/>
      <point x="383" y="241"/>
      <point x="390" y="242"/>
      <point x="395" y="247" type="curve"/>
      <point x="400" y="251"/>
      <point x="402" y="256"/>
      <point x="402" y="262" type="curve" smooth="yes"/>
      <point x="402" y="284"/>
      <point x="388" y="294"/>
      <point x="356" y="302" type="curve" smooth="yes"/>
      <point x="335" y="308"/>
      <point x="317" y="313"/>
      <point x="304" y="317" type="curve"/>
      <point x="290" y="320"/>
      <point x="276" y="324"/>
      <point x="262" y="327" type="curve"/>
      <point x="252" y="330"/>
      <point x="245" y="328"/>
      <point x="241" y="323" type="curve"/>
      <point x="236" y="318"/>
      <point x="234" y="313"/>
      <point x="234" y="308" type="curve" smooth="yes"/>
      <point x="234" y="290"/>
      <point x="245" y="279"/>
      <point x="283" y="267" type="curve" smooth="yes"/>
      <point x="304" y="260"/>
      <point x="334" y="252"/>
    </contour>
  </outline>
</glyph>
<glyph name="dieresis" format="2">
  <advance width="522"/>
  <unicode hex="00A8"/>
  <outline>
    <contour>
      <point x="308" y="591" type="line" smooth="yes"/>
      <point x="308" y="570"/>
      <point x="321" y="553"/>
      <point x="343" y="550" type="curve" smooth="yes"/>
      <point x="413" y="541" type="line" smooth="yes"/>
      <point x="437" y="538"/>
      <point x="455" y="552"/>
      <point x="457" y="577" type="curve" smooth="yes"/>
      <point x="465" y="643" type="line" smooth="yes"/>
      <point x="467" y="666"/>
      <point x="453" y="684"/>
      <point x="430" y="687" type="curve" smooth="yes"/>
      <point x="356" y="696" type="line" smooth="yes"/>
      <point x="329" y="700"/>
      <point x="311" y="684"/>
      <point x="311" y="658" type="curve" smooth="yes"/>
    </contour>
    <contour>
      <point x="56" y="581" type="line" smooth="yes"/>
      <point x="60" y="559"/>
      <point x="77" y="546"/>
      <point x="98" y="547" type="curve" smooth="yes"/>
      <point x="173" y="552" type="line" smooth="yes"/>
      <point x="193" y="553"/>
      <point x="208" y="568"/>
      <point x="210" y="588" type="curve" smooth="yes"/>
      <point x="217" y="656" type="line" smooth="yes"/>
      <point x="220" y="683"/>
      <point x="204" y="701"/>
      <point x="177" y="701" type="curve"/>
      <point x="84" y="700" type="line" smooth="yes"/>
      <point x="57" y="699"/>
      <point x="41" y="681"/>
      <point x="45" y="653" type="curve" smooth="yes"/>
    </contour>
  </outline>
</glyph>
<glyph name="copyright" format="2">
  <advance width="792"/>
  <unicode hex="00A9"/>
  <outline>
    <contour>
      <point x="396" y="-10" type="curve" smooth="yes"/>
      <point x="196" y="-10"/>
      <point x="36" y="150"/>
      <point x="36" y="350" type="curve" smooth="yes"/>
      <point x="36" y="550"/>
      <point x="196" y="710"/>
      <point x="396" y="710" type="curve" smooth="yes"/>
      <point x="596" y="710"/>
      <point x="756" y="550"/>
      <point x="756" y="350" type="curve" smooth="yes"/>
      <point x="756" y="150"/>
      <point x="596" y="-10"/>
    </contour>
    <contour>
      <point x="396" y="85" type="curve" smooth="yes"/>
      <point x="543" y="85"/>
      <point x="656" y="203"/>
      <point x="656" y="350" type="curve" smooth="yes"/>
      <point x="656" y="497"/>
      <point x="543" y="615"/>
      <point x="396" y="615" type="curve" smooth="yes"/>
      <point x="249" y="615"/>
      <point x="136" y="497"/>
      <point x="136" y="350" type="curve" smooth="yes"/>
      <point x="136" y="203"/>
      <point x="249" y="85"/>
    </contour>
    <contour>
      <point x="396" y="158" type="curve" smooth="yes"/>
      <point x="290" y="158"/>
      <point x="227" y="218"/>
      <point x="221" y="312" type="curve"/>
      <point x="221" y="322"/>
      <point x="221" y="380"/>
      <point x="221" y="390" type="curve"/>
      <point x="227" y="484"/>
      <point x="290" y="544"/>
      <point x="396" y="544" type="curve" smooth="yes"/>
      <point x="522" y="544"/>
      <point x="576" y="473"/>
      <point x="578" y="415" type="curve"/>
      <point x="579" y="408"/>
      <point x="577" y="403"/>
      <point x="573" y="399" type="curve"/>
      <point x="568" y="395"/>
      <point x="563" y="393"/>
      <point x="556" y="393" type="curve" smooth="yes"/>
      <point x="460" y="393" type="line" smooth="yes"/>
      <point x="453" y="393"/>
      <point x="447" y="396"/>
      <point x="443" y="401" type="curve" smooth="yes"/>
      <point x="439" y="406"/>
      <point x="436" y="410"/>
      <point x="434" y="414" type="curve" smooth="yes"/>
      <point x="429" y="424"/>
      <point x="424" y="431"/>
      <point x="419" y="434" type="curve"/>
      <point x="413" y="437"/>
      <point x="405" y="439"/>
      <point x="396" y="439" type="curve" smooth="yes"/>
      <point x="366" y="439"/>
      <point x="361" y="413"/>
      <point x="359" y="385" type="curve"/>
      <point x="359" y="375"/>
      <point x="359" y="327"/>
      <point x="359" y="317" type="curve"/>
      <point x="361" y="289"/>
      <point x="366" y="263"/>
      <point x="396" y="263" type="curve" smooth="yes"/>
      <point x="405" y="263"/>
      <point x="413" y="265"/>
      <point x="419" y="268" type="curve"/>
      <point x="424" y="271"/>
      <point x="429" y="278"/>
      <point x="434" y="288" type="curve" smooth="yes"/>
      <point x="436" y="292"/>
      <point x="439" y="297"/>
      <point x="443" y="302" type="curve" smooth="yes"/>
      <point x="447" y="307"/>
      <point x="453" y="309"/>
      <point x="460" y="309" type="curve" smooth="yes"/>
      <point x="556" y="309" type="line" smooth="yes"/>
      <point x="563" y="309"/>
      <point x="568" y="307"/>
      <point x="573" y="303" type="curve"/>
      <point x="577" y="299"/>
      <point x="579" y="294"/>
      <point x="578" y="287" type="curve"/>
      <point x="576" y="231"/>
      <point x="522" y="158"/>
    </contour>
  </outline>
</glyph>
<glyph name="registered" format="2">
  <advance width="792"/>
  <unicode hex="00AE"/>
  <outline>
    <contour>
      <point x="396" y="-10" type="curve" smooth="yes"/>
      <point x="196" y="-10"/>
      <point x="36" y="150"/>
      <point x="36" y="350" type="curve" smooth="yes"/>
      <point x="36" y="550"/>
      <point x="196" y="710"/>
      <point x="396" y="710" type="curve" smooth="yes"/>
      <point x="596" y="710"/>
      <point x="756" y="550"/>
      <point x="756" y="350" type="curve" smooth="yes"/>
      <point x="756" y="150"/>
      <point x="596" y="-10"/>
    </contour>
    <contour>
      <point x="396" y="85" type="curve" smooth="yes"/>
      <point x="543" y="85"/>
      <point x="656" y="203"/>
      <point x="656" y="350" type="curve" smooth="yes"/>
      <point x="656" y="497"/>
      <point x="543" y="615"/>
      <point x="396" y="615" type="curve" smooth="yes"/>
      <point x="249" y="615"/>
      <point x="136" y="497"/>
      <point x="136" y="350" type="curve" smooth="yes"/>
      <point x="136" y="203"/>
      <point x="249" y="85"/>
    </contour>
    <contour>
      <point x="265" y="168" type="line" smooth="yes"/>
      <point x="250" y="168"/>
      <point x="243" y="175"/>
      <point x="243" y="190" type="curve" smooth="yes"/>
      <point x="243" y="512" type="line" smooth="yes"/>
      <point x="243" y="527"/>
      <point x="250" y="534"/>
      <point x="265" y="534" type="curve" smooth="yes"/>
      <point x="411" y="534" type="line" smooth="yes"/>
      <point x="487" y="534"/>
      <point x="571" y="501"/>
      <point x="571" y="409" type="curve" smooth="yes"/>
      <point x="571" y="382"/>
      <point x="566" y="361"/>
      <point x="555" y="344" type="curve" smooth="yes"/>
      <point x="544" y="327"/>
      <point x="530" y="315"/>
      <point x="515" y="307" type="curve"/>
      <point x="560" y="204" type="line"/>
      <point x="561" y="202"/>
      <point x="562" y="200"/>
      <point x="563" y="198" type="curve"/>
      <point x="566" y="190"/>
      <point x="561" y="168"/>
      <point x="542" y="168" type="curve" smooth="yes"/>
      <point x="457" y="168" type="line" smooth="yes"/>
      <point x="450" y="168"/>
      <point x="445" y="170"/>
      <point x="440" y="173" type="curve" smooth="yes"/>
      <point x="435" y="176"/>
      <point x="431" y="180"/>
      <point x="428" y="187" type="curve"/>
      <point x="395" y="282" type="line"/>
      <point x="374" y="282" type="line"/>
      <point x="374" y="190" type="line" smooth="yes"/>
      <point x="374" y="175"/>
      <point x="367" y="168"/>
      <point x="352" y="168" type="curve" smooth="yes"/>
    </contour>
    <contour>
      <point x="374" y="381" type="line"/>
      <point x="411" y="381" type="line" smooth="yes"/>
      <point x="419" y="381"/>
      <point x="425" y="384"/>
      <point x="430" y="389" type="curve"/>
      <point x="434" y="394"/>
      <point x="436" y="401"/>
      <point x="436" y="409" type="curve" smooth="yes"/>
      <point x="436" y="417"/>
      <point x="434" y="424"/>
      <point x="430" y="429" type="curve"/>
      <point x="425" y="434"/>
      <point x="419" y="437"/>
      <point x="411" y="437" type="curve" smooth="yes"/>
      <point x="374" y="437" type="line"/>
    </contour>
  </outline>
</glyph>
<glyph name="macron" format="2">
  <advance width="372"/>
  <unicode hex="00AF"/>
  <outline>
    <contour>
      <point x="27" y="621" type="line" smooth="yes"/>
      <point x="26" y="596"/>
      <point x="43" y="580"/>
      <point x="68" y="581" type="curve" smooth="yes"/>
      <point x="305" y="591" type="line" smooth="yes"/>
      <point x="330" y="592"/>
      <point x="346" y="610"/>
      <point x="343" y="635" type="curve" smooth="yes"/>
      <point x="340" y="669" type="line" smooth="yes"/>
      <point x="338" y="691"/>
      <point x="323" y="705"/>
      <point x="301" y="705" type="curve" smooth="yes"/>
      <point x="68" y="708" type="line" smooth="yes"/>
      <point x="44" y="709"/>
      <point x="28" y="693"/>
      <point x="27" y="669" type="curve" smooth="yes"/>
    </contour>
  </outline>
</glyph>
<glyph name="degree" format="2">
  <advance width="416"/>
  <unicode hex="00B0"/>
  <outline>
    <contour>
      <point x="79" y="399" type="line" smooth="yes"/>
      <point x="86" y="384"/>
      <point x="101" y="374"/>
      <point x="117" y="375" type="curve" smooth="yes"/>
      <point x="285" y="380" type="line" smooth="yes"/>
      <point x="299" y="381"/>
      <point x="313" y="390"/>
      <point x="319" y="403" type="curve" smooth="yes"/>
      <point x="381" y="532" type="line" smooth="yes"/>
      <point x="386" y="543"/>
      <point x="386" y="558"/>
      <point x="379" y="569" type="curve" smooth="yes"/>
      <point x="325" y="663" type="line" smooth="yes"/>
      <point x="318" y="676"/>
      <point x="303" y="684"/>
      <point x="289" y="683" type="curve" smooth="yes"/>
      <point x="137" y="676" type="line" smooth="yes"/>
      <point x="124" y="675"/>
      <point x="111" y="667"/>
      <point x="104" y="656" type="curve" smooth="yes"/>
      <point x="36" y="538" type="line" smooth="yes"/>
      <point x="30" y="528"/>
      <point x="29" y="514"/>
      <point x="34" y="503" type="curve" smooth="yes"/>
    </contour>
    <contour>
      <point x="182" y="474" type="line"/>
      <point x="170" y="582" type="line"/>
      <point x="265" y="582" type="line"/>
      <point x="246" y="474" type="line"/>
    </contour>
  </outline>
</glyph>
<glyph name="acute" format="2">
  <advance width="264"/>
  <unicode hex="00B4"/>
  <outline>
    <contour>
      <point x="115" y="422" type="line" smooth="yes"/>
      <point x="132" y="421"/>
      <point x="148" y="432"/>
      <point x="154" y="449" type="curve" smooth="yes"/>
      <point x="216" y="626" type="line" smooth="yes"/>
      <point x="228" y="661"/>
      <point x="212" y="682"/>
      <point x="175" y="680" type="curve" smooth="yes"/>
      <point x="104" y="674" type="line" smooth="yes"/>
      <point x="86" y="673"/>
      <point x="71" y="660"/>
      <point x="68" y="641" type="curve" smooth="yes"/>
      <point x="39" y="469" type="line" smooth="yes"/>
      <point x="34" y="442"/>
      <point x="49" y="423"/>
      <point x="77" y="423" type="curve" smooth="yes"/>
    </contour>
  </outline>
</glyph>
<glyph name="paragraph" format="2">
  <advance width="709"/>
  <unicode hex="00B6"/>
  <outline>
    <contour>
      <point x="247" y="-100" type="line" smooth="yes"/>
      <point x="240" y="-100"/>
      <point x="233" y="-97"/>
      <point x="228" y="-92" type="curve" smooth="yes"/>
      <point x="223" y="-87"/>
      <point x="220" y="-80"/>
      <point x="220" y="-73" type="curve" smooth="yes"/>
      <point x="220" y="306" type="line"/>
      <point x="112" y="306"/>
      <point x="23" y="395"/>
      <point x="23" y="503" type="curve" smooth="yes"/>
      <point x="23" y="613"/>
      <point x="112" y="700"/>
      <point x="220" y="700" type="curve" smooth="yes"/>
      <point x="622" y="700" type="line" smooth="yes"/>
      <point x="629" y="700"/>
      <point x="636" y="697"/>
      <point x="641" y="692" type="curve" smooth="yes"/>
      <point x="646" y="687"/>
      <point x="649" y="680"/>
      <point x="649" y="673" type="curve" smooth="yes"/>
      <point x="649" y="-73" type="line" smooth="yes"/>
      <point x="649" y="-80"/>
      <point x="646" y="-87"/>
      <point x="641" y="-92" type="curve" smooth="yes"/>
      <point x="636" y="-97"/>
      <point x="629" y="-100"/>
      <point x="622" y="-100" type="curve" smooth="yes"/>
      <point x="501" y="-100" type="line" smooth="yes"/>
      <point x="494" y="-100"/>
      <point x="487" y="-97"/>
      <point x="482" y="-92" type="curve" smooth="yes"/>
      <point x="477" y="-87"/>
      <point x="474" y="-80"/>
      <point x="474" y="-73" type="curve" smooth="yes"/>
      <point x="474" y="550" type="line"/>
      <point x="395" y="550" type="line"/>
      <point x="395" y="-73" type="line" smooth="yes"/>
      <point x="395" y="-80"/>
      <point x="392" y="-87"/>
      <point x="387" y="-92" type="curve" smooth="yes"/>
      <point x="382" y="-97"/>
      <point x="375" y="-100"/>
      <point x="368" y="-100" type="curve" smooth="yes"/>
    </contour>
  </outline>
</glyph>
<glyph name="periodcentered" format="2">
  <advance width="254"/>
  <unicode hex="00B7"/>
  <outline>
    <contour>
      <point x="53" y="298" type="line" smooth="yes"/>
      <point x="53" y="277"/>
      <point x="66" y="260"/>
      <point x="88" y="257" type="curve" smooth="yes"/>
      <point x="158" y="248" type="line" smooth="yes"/>
      <point x="182" y="245"/>
      <point x="200" y="259"/>
      <point x="202" y="284" type="curve" smooth="yes"/>
      <point x="210" y="350" type="line" smooth="yes"/>
      <point x="212" y="373"/>
      <point x="198" y="391"/>
      <point x="175" y="394" type="curve" smooth="yes"/>
      <point x="101" y="403" type="line" smooth="yes"/>
      <point x="74" y="407"/>
      <point x="56" y="391"/>
      <point x="56" y="365" type="curve" smooth="yes"/>
    </contour>
  </outline>
</glyph>
<glyph name="cedilla" format="2">
  <advance width="282"/>
  <unicode hex="00B8"/>
  <outline>
    <contour>
      <point x="133" y="-220" type="curve" smooth="yes"/>
      <point x="81" y="-220"/>
      <point x="34" y="-189"/>
      <point x="56" y="-169" type="curve" smooth="yes"/>
      <point x="77" y="-151" type="line" smooth="yes"/>
      <point x="95" y="-135"/>
      <point x="99" y="-154"/>
      <point x="133" y="-154" type="curve" smooth="yes"/>
      <point x="161" y="-154"/>
      <point x="167" y="-128"/>
      <point x="155" y="-113" type="curve"/>
      <point x="150" y="-108"/>
      <point x="143" y="-106"/>
      <point x="133" y="-106" type="curve" smooth="yes"/>
      <point x="115" y="-106"/>
      <point x="93" y="-118"/>
      <point x="79" y="-106" type="curve"/>
      <point x="58" y="-85" type="line" smooth="yes"/>
      <point x="53" y="-80"/>
      <point x="51" y="-76"/>
      <point x="50" y="-72" type="curve" smooth="yes"/>
      <point x="49" y="-68"/>
      <point x="51" y="-61"/>
      <point x="56" y="-52" type="curve"/>
      <point x="91" y="27" type="line"/>
      <point x="158" y="27" type="line"/>
      <point x="121" y="-45" type="line"/>
      <point x="125" y="-44"/>
      <point x="131" y="-42"/>
      <point x="138" y="-41" type="curve" smooth="yes"/>
      <point x="145" y="-40"/>
      <point x="149" y="-40"/>
      <point x="151" y="-40" type="curve" smooth="yes"/>
      <point x="176" y="-40"/>
      <point x="196" y="-48"/>
      <point x="211" y="-65" type="curve" smooth="yes"/>
      <point x="225" y="-82"/>
      <point x="232" y="-103"/>
      <point x="232" y="-130" type="curve" smooth="yes"/>
      <point x="232" y="-157"/>
      <point x="223" y="-178"/>
      <point x="205" y="-195" type="curve" smooth="yes"/>
      <point x="187" y="-212"/>
      <point x="163" y="-220"/>
    </contour>
  </outline>
</glyph>
<glyph name="questiondown" format="2">
  <advance width="478"/>
  <unicode hex="00BF"/>
  <outline>
    <contour>
      <point x="229" y="-128" type="line" smooth="yes"/>
      <point x="234" y="-129"/>
      <point x="242" y="-129"/>
      <point x="247" y="-128" type="curve" smooth="yes"/>
      <point x="422" y="-86" type="line" smooth="yes"/>
      <point x="442" y="-81"/>
      <point x="454" y="-64"/>
      <point x="452" y="-43" type="curve" smooth="yes"/>
      <point x="441" y="59" type="line" smooth="yes"/>
      <point x="438" y="84"/>
      <point x="420" y="98"/>
      <point x="395" y="94" type="curve" smooth="yes"/>
      <point x="343" y="86" type="line" smooth="yes"/>
      <point x="325" y="84"/>
      <point x="312" y="71"/>
      <point x="309" y="53" type="curve" smooth="yes"/>
      <point x="302" y="12" type="line"/>
      <point x="222" y="10" type="line"/>
      <point x="211" y="86" type="line"/>
      <point x="338" y="169" type="line" smooth="yes"/>
      <point x="349" y="177"/>
      <point x="356" y="191"/>
      <point x="356" y="205" type="curve"/>
      <point x="350" y="286" type="line" smooth="yes"/>
      <point x="349" y="307"/>
      <point x="333" y="322"/>
      <point x="312" y="323" type="curve" smooth="yes"/>
      <point x="219" y="326" type="line" smooth="yes"/>
      <point x="197" y="327"/>
      <point x="181" y="313"/>
      <point x="178" y="291" type="curve" smooth="yes"/>
      <point x="169" y="222" type="line"/>
      <point x="46" y="136" type="line"/>
      <point x="33" y="128"/>
      <point x="27" y="112"/>
      <point x="29" y="97" type="curve" smooth="yes"/>
      <point x="54" y="-60" type="line" smooth="yes"/>
      <point x="56" y="-75"/>
      <point x="68" y="-89"/>
      <point x="84" y="-92" type="curve"/>
    </contour>
    <contour>
      <point x="345" y="515" type="line" smooth="yes"/>
      <point x="346" y="537"/>
      <point x="331" y="553"/>
      <point x="309" y="555" type="curve" smooth="yes"/>
      <point x="236" y="562" type="line" smooth="yes"/>
      <point x="214" y="564"/>
      <point x="197" y="550"/>
      <point x="193" y="528" type="curve" smooth="yes"/>
      <point x="185" y="473" type="line" smooth="yes"/>
      <point x="181" y="449"/>
      <point x="194" y="431"/>
      <point x="217" y="427" type="curve" smooth="yes"/>
      <point x="297" y="413" type="line" smooth="yes"/>
      <point x="325" y="408"/>
      <point x="343" y="424"/>
      <point x="344" y="452" type="curve" smooth="yes"/>
    </contour>
  </outline>
</glyph>
<glyph name="Agrave" format="2">
  <advance width="702"/>
  <unicode hex="00C0"/>
  <outline>
    <contour>
      <point x="202" y="-4" type="line"/>
      <point x="223" y="-6"/>
      <point x="240" y="7"/>
      <point x="244" y="27" type="curve" smooth="yes"/>
      <point x="274" y="183" type="line"/>
      <point x="450" y="165" type="line"/>
      <point x="476" y="41" type="line" smooth="yes"/>
      <point x="480" y="22"/>
      <point x="495" y="8"/>
      <point x="515" y="10" type="curve" smooth="yes"/>
      <point x="649" y="19" type="line" smooth="yes"/>
      <point x="679" y="21"/>
      <point x="696" y="39"/>
      <point x="688" y="67" type="curve" smooth="yes"/>
      <point x="536" y="678" type="line" smooth="yes"/>
      <point x="531" y="697"/>
      <point x="515" y="712"/>
      <point x="495" y="709" type="curve" smooth="yes"/>
      <point x="235" y="679" type="line" smooth="yes"/>
      <point x="218" y="677"/>
      <point x="203" y="667"/>
      <point x="198" y="650" type="curve" smooth="yes"/>
      <point x="11" y="52" type="line" smooth="yes"/>
      <point x="3" y="24"/>
      <point x="18" y="3"/>
      <point x="47" y="2" type="curve" smooth="yes"/>
    </contour>
    <contour>
      <point x="345" y="533" type="line"/>
      <point x="376" y="543" type="line"/>
      <point x="423" y="333" type="line"/>
      <point x="308" y="323" type="line"/>
    </contour>
    <contour>
      <point x="381" y="720" type="curve" smooth="yes"/>
      <point x="408" y="724" type="line" smooth="yes"/>
      <point x="436" y="728"/>
      <point x="449" y="749"/>
      <point x="440" y="776" type="curve" smooth="yes"/>
      <point x="417" y="844" type="line" smooth="yes"/>
      <point x="412" y="860"/>
      <point x="396" y="871"/>
      <point x="379" y="871" type="curve" smooth="yes"/>
      <point x="307" y="871" type="line" smooth="yes"/>
      <point x="251" y="871"/>
      <point x="240" y="844"/>
      <point x="278" y="803" type="curve" smooth="yes"/>
      <point x="346" y="732" type="line" smooth="yes"/>
      <point x="354" y="723"/>
      <point x="368" y="718"/>
    </contour>
  </outline>
</glyph>
<glyph name="Acircumflex" format="2">
  <advance width="702"/>
  <unicode hex="00C2"/>
  <outline>
    <contour>
      <point x="202" y="-4" type="line"/>
      <point x="223" y="-6"/>
      <point x="240" y="7"/>
      <point x="244" y="27" type="curve" smooth="yes"/>
      <point x="274" y="183" type="line"/>
      <point x="450" y="165" type="line"/>
      <point x="476" y="41" type="line" smooth="yes"/>
      <point x="480" y="22"/>
      <point x="495" y="8"/>
      <point x="515" y="10" type="curve" smooth="yes"/>
      <point x="649" y="19" type="line" smooth="yes"/>
      <point x="679" y="21"/>
      <point x="696" y="39"/>
      <point x="688" y="67" type="curve" smooth="yes"/>
      <point x="536" y="678" type="line" smooth="yes"/>
      <point x="531" y="697"/>
      <point x="515" y="712"/>
      <point x="495" y="709" type="curve" smooth="yes"/>
      <point x="235" y="679" type="line" smooth="yes"/>
      <point x="218" y="677"/>
      <point x="203" y="667"/>
      <point x="198" y="650" type="curve" smooth="yes"/>
      <point x="11" y="52" type="line" smooth="yes"/>
      <point x="3" y="24"/>
      <point x="18" y="3"/>
      <point x="47" y="2" type="curve" smooth="yes"/>
    </contour>
    <contour>
      <point x="345" y="533" type="line"/>
      <point x="376" y="543" type="line"/>
      <point x="423" y="333" type="line"/>
      <point x="308" y="323" type="line"/>
    </contour>
    <contour>
      <point x="378" y="741" type="line"/>
      <point x="387" y="726"/>
      <point x="404" y="717"/>
      <point x="421" y="720" type="curve" smooth="yes"/>
      <point x="453" y="726" type="line" smooth="yes"/>
      <point x="486" y="732"/>
      <point x="497" y="756"/>
      <point x="480" y="785" type="curve" smooth="yes"/>
      <point x="443" y="849" type="line" smooth="yes"/>
      <point x="437" y="859"/>
      <point x="425" y="867"/>
      <point x="413" y="868" type="curve" smooth="yes"/>
      <point x="311" y="879" type="line" smooth="yes"/>
      <point x="297" y="881"/>
      <point x="283" y="874"/>
      <point x="274" y="863" type="curve"/>
      <point x="221" y="790" type="line" smooth="yes"/>
      <point x="202" y="763"/>
      <point x="210" y="740"/>
      <point x="241" y="732" type="curve" smooth="yes"/>
      <point x="270" y="724" type="line" smooth="yes"/>
      <point x="284" y="720"/>
      <point x="300" y="725"/>
      <point x="309" y="735" type="curve"/>
      <point x="357" y="783" type="line"/>
    </contour>
  </outline>
</glyph>
<glyph name="Atilde" format="2">
  <advance width="702"/>
  <unicode hex="00C3"/>
  <outline>
    <contour>
      <point x="202" y="-4" type="line"/>
      <point x="223" y="-6"/>
      <point x="240" y="7"/>
      <point x="244" y="27" type="curve" smooth="yes"/>
      <point x="274" y="183" type="line"/>
      <point x="450" y="165" type="line"/>
      <point x="476" y="41" type="line" smooth="yes"/>
      <point x="480" y="22"/>
      <point x="495" y="8"/>
      <point x="515" y="10" type="curve" smooth="yes"/>
      <point x="649" y="19" type="line" smooth="yes"/>
      <point x="679" y="21"/>
      <point x="696" y="39"/>
      <point x="688" y="67" type="curve" smooth="yes"/>
      <point x="536" y="678" type="line" smooth="yes"/>
      <point x="531" y="697"/>
      <point x="515" y="712"/>
      <point x="495" y="709" type="curve" smooth="yes"/>
      <point x="235" y="679" type="line" smooth="yes"/>
      <point x="218" y="677"/>
      <point x="203" y="667"/>
      <point x="198" y="650" type="curve" smooth="yes"/>
      <point x="11" y="52" type="line" smooth="yes"/>
      <point x="3" y="24"/>
      <point x="18" y="3"/>
      <point x="47" y="2" type="curve" smooth="yes"/>
    </contour>
    <contour>
      <point x="345" y="533" type="line"/>
      <point x="376" y="543" type="line"/>
      <point x="423" y="333" type="line"/>
      <point x="308" y="323" type="line"/>
    </contour>
    <contour>
      <point x="417" y="719" type="curve" smooth="yes"/>
      <point x="357" y="719"/>
      <point x="339" y="755"/>
      <point x="299" y="755" type="curve" smooth="yes"/>
      <point x="269" y="755"/>
      <point x="271" y="724"/>
      <point x="249" y="724" type="curve" smooth="yes"/>
      <point x="165" y="724" type="line" smooth="yes"/>
      <point x="160" y="724"/>
      <point x="156" y="726"/>
      <point x="152" y="730" type="curve"/>
      <point x="148" y="733"/>
      <point x="146" y="737"/>
      <point x="146" y="742" type="curve" smooth="yes"/>
      <point x="146" y="787"/>
      <point x="173" y="899"/>
      <point x="282" y="899" type="curve" smooth="yes"/>
      <point x="342" y="899"/>
      <point x="362" y="863"/>
      <point x="400" y="863" type="curve" smooth="yes"/>
      <point x="430" y="863"/>
      <point x="428" y="894"/>
      <point x="450" y="894" type="curve" smooth="yes"/>
      <point x="534" y="894" type="line" smooth="yes"/>
      <point x="540" y="894"/>
      <point x="545" y="892"/>
      <point x="548" y="889" type="curve"/>
      <point x="551" y="885"/>
      <point x="553" y="880"/>
      <point x="553" y="875" type="curve" smooth="yes"/>
      <point x="553" y="830"/>
      <point x="526" y="719"/>
    </contour>
  </outline>
</glyph>
<glyph name="Adieresis" format="2">
  <advance width="702"/>
  <unicode hex="00C4"/>
  <outline>
    <contour>
      <point x="202" y="-4" type="line"/>
      <point x="223" y="-6"/>
      <point x="240" y="7"/>
      <point x="244" y="27" type="curve" smooth="yes"/>
      <point x="274" y="183" type="line"/>
      <point x="450" y="165" type="line"/>
      <point x="476" y="41" type="line" smooth="yes"/>
      <point x="480" y="22"/>
      <point x="495" y="8"/>
      <point x="515" y="10" type="curve" smooth="yes"/>
      <point x="649" y="19" type="line" smooth="yes"/>
      <point x="679" y="21"/>
      <point x="696" y="39"/>
      <point x="688" y="67" type="curve" smooth="yes"/>
      <point x="536" y="678" type="line" smooth="yes"/>
      <point x="531" y="697"/>
      <point x="515" y="712"/>
      <point x="495" y="709" type="curve" smooth="yes"/>
      <point x="235" y="679" type="line" smooth="yes"/>
      <point x="218" y="677"/>
      <point x="203" y="667"/>
      <point x="198" y="650" type="curve" smooth="yes"/>
      <point x="11" y="52" type="line" smooth="yes"/>
      <point x="3" y="24"/>
      <point x="18" y="3"/>
      <point x="47" y="2" type="curve" smooth="yes"/>
    </contour>
    <contour>
      <point x="345" y="533" type="line"/>
      <point x="376" y="543" type="line"/>
      <point x="423" y="333" type="line"/>
      <point x="308" y="323" type="line"/>
    </contour>
    <contour>
      <point x="394" y="767" type="line" smooth="yes"/>
      <point x="393" y="746"/>
      <point x="407" y="729"/>
      <point x="429" y="726" type="curve" smooth="yes"/>
      <point x="475" y="720" type="line" smooth="yes"/>
      <point x="500" y="717"/>
      <point x="518" y="731"/>
      <point x="520" y="756" type="curve" smooth="yes"/>
      <point x="525" y="799" type="line" smooth="yes"/>
      <point x="527" y="822"/>
      <point x="513" y="840"/>
      <point x="490" y="843" type="curve" smooth="yes"/>
      <point x="441" y="849" type="line" smooth="yes"/>
      <point x="414" y="853"/>
      <point x="396" y="837"/>
      <point x="396" y="811" type="curve" smooth="yes"/>
    </contour>
    <contour>
      <point x="181" y="759" type="line" smooth="yes"/>
      <point x="185" y="737"/>
      <point x="202" y="724"/>
      <point x="224" y="725" type="curve" smooth="yes"/>
      <point x="275" y="729" type="line" smooth="yes"/>
      <point x="296" y="730"/>
      <point x="310" y="744"/>
      <point x="313" y="765" type="curve"/>
      <point x="317" y="809" type="line" smooth="yes"/>
      <point x="320" y="836"/>
      <point x="304" y="854"/>
      <point x="277" y="853" type="curve"/>
      <point x="213" y="853" type="line"/>
      <point x="185" y="852"/>
      <point x="170" y="834"/>
      <point x="174" y="806" type="curve" smooth="yes"/>
    </contour>
  </outline>
</glyph>
<glyph name="Aring" format="2">
  <advance width="702"/>
  <unicode hex="00C5"/>
  <outline>
    <contour>
      <point x="202" y="-4" type="line"/>
      <point x="223" y="-6"/>
      <point x="240" y="7"/>
      <point x="244" y="27" type="curve" smooth="yes"/>
      <point x="274" y="183" type="line"/>
      <point x="450" y="165" type="line"/>
      <point x="476" y="41" type="line" smooth="yes"/>
      <point x="480" y="22"/>
      <point x="495" y="8"/>
      <point x="515" y="10" type="curve" smooth="yes"/>
      <point x="649" y="19" type="line" smooth="yes"/>
      <point x="679" y="21"/>
      <point x="696" y="39"/>
      <point x="688" y="67" type="curve" smooth="yes"/>
      <point x="536" y="678" type="line" smooth="yes"/>
      <point x="531" y="697"/>
      <point x="515" y="712"/>
      <point x="495" y="709" type="curve" smooth="yes"/>
      <point x="235" y="679" type="line" smooth="yes"/>
      <point x="218" y="677"/>
      <point x="203" y="667"/>
      <point x="198" y="650" type="curve" smooth="yes"/>
      <point x="11" y="52" type="line" smooth="yes"/>
      <point x="3" y="24"/>
      <point x="18" y="3"/>
      <point x="47" y="2" type="curve" smooth="yes"/>
    </contour>
    <contour>
      <point x="345" y="533" type="line"/>
      <point x="376" y="543" type="line"/>
      <point x="423" y="333" type="line"/>
      <point x="308" y="323" type="line"/>
    </contour>
    <contour>
      <point x="349" y="719" type="curve" smooth="yes"/>
      <point x="322" y="719"/>
      <point x="298" y="728"/>
      <point x="279" y="746" type="curve" smooth="yes"/>
      <point x="259" y="764"/>
      <point x="249" y="787"/>
      <point x="249" y="814" type="curve" smooth="yes"/>
      <point x="249" y="841"/>
      <point x="259" y="864"/>
      <point x="279" y="882" type="curve" smooth="yes"/>
      <point x="298" y="900"/>
      <point x="322" y="909"/>
      <point x="349" y="909" type="curve" smooth="yes"/>
      <point x="376" y="909"/>
      <point x="400" y="900"/>
      <point x="420" y="882" type="curve" smooth="yes"/>
      <point x="439" y="864"/>
      <point x="449" y="841"/>
      <point x="449" y="814" type="curve" smooth="yes"/>
      <point x="449" y="787"/>
      <point x="439" y="764"/>
      <point x="420" y="746" type="curve" smooth="yes"/>
      <point x="400" y="728"/>
      <point x="376" y="719"/>
    </contour>
    <contour>
      <point x="349" y="784" type="curve" smooth="yes"/>
      <point x="358" y="784"/>
      <point x="365" y="787"/>
      <point x="371" y="793" type="curve" smooth="yes"/>
      <point x="376" y="798"/>
      <point x="379" y="805"/>
      <point x="379" y="814" type="curve" smooth="yes"/>
      <point x="379" y="823"/>
      <point x="376" y="830"/>
      <point x="371" y="836" type="curve"/>
      <point x="365" y="841"/>
      <point x="358" y="844"/>
      <point x="349" y="844" type="curve" smooth="yes"/>
      <point x="340" y="844"/>
      <point x="333" y="841"/>
      <point x="328" y="836" type="curve" smooth="yes"/>
      <point x="322" y="830"/>
      <point x="319" y="823"/>
      <point x="319" y="814" type="curve" smooth="yes"/>
      <point x="319" y="805"/>
      <point x="322" y="798"/>
      <point x="328" y="793" type="curve"/>
      <point x="333" y="787"/>
      <point x="340" y="784"/>
    </contour>
  </outline>
</glyph>
<glyph name="Ccedilla" format="2">
  <advance width="627"/>
  <unicode hex="00C7"/>
  <outline>
    <contour>
      <point x="363" y="-9" type="line" smooth="yes"/>
      <point x="374" y="-13"/>
      <point x="387" y="-13"/>
      <point x="397" y="-8" type="curve" smooth="yes"/>
      <point x="590" y="92" type="line" smooth="yes"/>
      <point x="613" y="103"/>
      <point x="619" y="125"/>
      <point x="606" y="147" type="curve" smooth="yes"/>
      <point x="550" y="244" type="line" smooth="yes"/>
      <point x="538" y="264"/>
      <point x="517" y="270"/>
      <point x="496" y="259" type="curve" smooth="yes"/>
      <point x="387" y="197" type="line"/>
      <point x="270" y="229" type="line"/>
      <point x="288" y="486" type="line"/>
      <point x="386" y="515" type="line"/>
      <point x="512" y="484" type="line" smooth="yes"/>
      <point x="533" y="479"/>
      <point x="552" y="489"/>
      <point x="560" y="510" type="curve" smooth="yes"/>
      <point x="590" y="599" type="line" smooth="yes"/>
      <point x="598" y="622"/>
      <point x="588" y="643"/>
      <point x="564" y="650" type="curve" smooth="yes"/>
      <point x="371" y="708" type="line" smooth="yes"/>
      <point x="361" y="711"/>
      <point x="349" y="709"/>
      <point x="340" y="705" type="curve" smooth="yes"/>
      <point x="81" y="576" type="line"/>
      <point x="69" y="569"/>
      <point x="61" y="555"/>
      <point x="61" y="541" type="curve" smooth="yes"/>
      <point x="53" y="137" type="line" smooth="yes"/>
      <point x="53" y="121"/>
      <point x="62" y="105"/>
      <point x="78" y="99" type="curve" smooth="yes"/>
    </contour>
    <contour>
      <point x="338" y="-330" type="line" smooth="yes"/>
      <point x="349" y="-333"/>
      <point x="362" y="-331"/>
      <point x="372" y="-324" type="curve" smooth="yes"/>
      <point x="444" y="-275" type="line" smooth="yes"/>
      <point x="454" y="-268"/>
      <point x="461" y="-255"/>
      <point x="461" y="-242" type="curve" smooth="yes"/>
      <point x="461" y="-194" type="line" smooth="yes"/>
      <point x="461" y="-183"/>
      <point x="455" y="-170"/>
      <point x="446" y="-163" type="curve" smooth="yes"/>
      <point x="377" y="-106" type="line"/>
      <point x="389" y="-74" type="line" smooth="yes"/>
      <point x="396" y="-54"/>
      <point x="388" y="-38"/>
      <point x="367" y="-32" type="curve" smooth="yes"/>
      <point x="331" y="-23" type="line" smooth="yes"/>
      <point x="312" y="-18"/>
      <point x="294" y="-26"/>
      <point x="285" y="-43" type="curve" smooth="yes"/>
      <point x="256" y="-99" type="line" smooth="yes"/>
      <point x="246" y="-118"/>
      <point x="251" y="-139"/>
      <point x="269" y="-151" type="curve" smooth="yes"/>
      <point x="334" y="-195" type="line"/>
      <point x="311" y="-233" type="line"/>
      <point x="253" y="-221" type="line" smooth="yes"/>
      <point x="231" y="-216"/>
      <point x="212" y="-228"/>
      <point x="206" y="-250" type="curve"/>
      <point x="206" y="-251" type="line"/>
      <point x="200" y="-274"/>
      <point x="211" y="-293"/>
      <point x="234" y="-300" type="curve" smooth="yes"/>
    </contour>
  </outline>
</glyph>
<glyph name="Eacute" format="2">
  <advance width="587"/>
  <unicode hex="00C9"/>
  <outline>
    <contour>
      <point x="40" y="38" type="line" smooth="yes"/>
      <point x="39" y="11"/>
      <point x="56" y="-6"/>
      <point x="83" y="-4" type="curve" smooth="yes"/>
      <point x="532" y="28" type="line" smooth="yes"/>
      <point x="555" y="30"/>
      <point x="570" y="46"/>
      <point x="570" y="69" type="curve" smooth="yes"/>
      <point x="569" y="147" type="line" smooth="yes"/>
      <point x="568" y="172"/>
      <point x="551" y="188"/>
      <point x="526" y="187" type="curve" smooth="yes"/>
      <point x="276" y="174" type="line"/>
      <point x="288" y="279" type="line"/>
      <point x="437" y="278" type="line" smooth="yes"/>
      <point x="464" y="278"/>
      <point x="480" y="295"/>
      <point x="477" y="321" type="curve" smooth="yes"/>
      <point x="472" y="391" type="line" smooth="yes"/>
      <point x="470" y="412"/>
      <point x="454" y="427"/>
      <point x="433" y="427" type="curve" smooth="yes"/>
      <point x="293" y="429" type="line"/>
      <point x="306" y="527" type="line"/>
      <point x="508" y="517" type="line" smooth="yes"/>
      <point x="534" y="516"/>
      <point x="551" y="532"/>
      <point x="550" y="558" type="curve" smooth="yes"/>
      <point x="548" y="634" type="line" smooth="yes"/>
      <point x="547" y="655"/>
      <point x="532" y="671"/>
      <point x="511" y="673" type="curve" smooth="yes"/>
      <point x="115" y="700" type="line" smooth="yes"/>
      <point x="90" y="702"/>
      <point x="73" y="687"/>
      <point x="72" y="662" type="curve" smooth="yes"/>
    </contour>
    <contour>
      <point x="273" y="711" type="line" smooth="yes"/>
      <point x="286" y="709"/>
      <point x="300" y="714"/>
      <point x="308" y="723" type="curve" smooth="yes"/>
      <point x="376" y="794" type="line" smooth="yes"/>
      <point x="414" y="835"/>
      <point x="403" y="862"/>
      <point x="347" y="862" type="curve" smooth="yes"/>
      <point x="276" y="862" type="line" smooth="yes"/>
      <point x="258" y="862"/>
      <point x="243" y="851"/>
      <point x="238" y="835" type="curve" smooth="yes"/>
      <point x="215" y="767" type="line" smooth="yes"/>
      <point x="205" y="740"/>
      <point x="218" y="719"/>
      <point x="247" y="715" type="curve" smooth="yes"/>
    </contour>
  </outline>
</glyph>
<glyph name="Ecircumflex" format="2">
  <advance width="587"/>
  <unicode hex="00CA"/>
  <outline>
    <contour>
      <point x="40" y="38" type="line" smooth="yes"/>
      <point x="39" y="11"/>
      <point x="56" y="-6"/>
      <point x="83" y="-4" type="curve" smooth="yes"/>
      <point x="532" y="28" type="line" smooth="yes"/>
      <point x="555" y="30"/>
      <point x="570" y="46"/>
      <point x="570" y="69" type="curve" smooth="yes"/>
      <point x="569" y="147" type="line" smooth="yes"/>
      <point x="568" y="172"/>
      <point x="551" y="188"/>
      <point x="526" y="187" type="curve" smooth="yes"/>
      <point x="276" y="174" type="line"/>
      <point x="288" y="279" type="line"/>
      <point x="437" y="278" type="line" smooth="yes"/>
      <point x="464" y="278"/>
      <point x="480" y="295"/>
      <point x="477" y="321" type="curve" smooth="yes"/>
      <point x="472" y="391" type="line" smooth="yes"/>
      <point x="470" y="412"/>
      <point x="454" y="427"/>
      <point x="433" y="427" type="curve" smooth="yes"/>
      <point x="293" y="429" type="line"/>
      <point x="306" y="527" type="line"/>
      <point x="508" y="517" type="line" smooth="yes"/>
      <point x="534" y="516"/>
      <point x="551" y="532"/>
      <point x="550" y="558" type="curve" smooth="yes"/>
      <point x="548" y="634" type="line" smooth="yes"/>
      <point x="547" y="655"/>
      <point x="532" y="671"/>
      <point x="511" y="673" type="curve" smooth="yes"/>
      <point x="115" y="700" type="line" smooth="yes"/>
      <point x="90" y="702"/>
      <point x="73" y="687"/>
      <point x="72" y="662" type="curve" smooth="yes"/>
    </contour>
    <contour>
      <point x="334" y="732" type="line"/>
      <point x="343" y="717"/>
      <point x="360" y="708"/>
      <point x="377" y="711" type="curve" smooth="yes"/>
      <point x="409" y="717" type="line" smooth="yes"/>
      <point x="442" y="723"/>
      <point x="453" y="747"/>
      <point x="436" y="776" type="curve" smooth="yes"/>
      <point x="399" y="840" type="line" smooth="yes"/>
      <point x="393" y="850"/>
      <point x="381" y="858"/>
      <point x="369" y="859" type="curve" smooth="yes"/>
      <point x="267" y="870" type="line" smooth="yes"/>
      <point x="253" y="872"/>
      <point x="239" y="865"/>
      <point x="230" y="854" type="curve"/>
      <point x="177" y="781" type="line" smooth="yes"/>
      <point x="158" y="754"/>
      <point x="166" y="731"/>
      <point x="197" y="723" type="curve" smooth="yes"/>
      <point x="226" y="715" type="line" smooth="yes"/>
      <point x="240" y="711"/>
      <point x="256" y="716"/>
      <point x="265" y="726" type="curve"/>
      <point x="313" y="774" type="line"/>
    </contour>
  </outline>
</glyph>
<glyph name="Edieresis" format="2">
  <advance width="587"/>
  <unicode hex="00CB"/>
  <outline>
    <contour>
      <point x="40" y="38" type="line" smooth="yes"/>
      <point x="39" y="11"/>
      <point x="56" y="-6"/>
      <point x="83" y="-4" type="curve" smooth="yes"/>
      <point x="532" y="28" type="line" smooth="yes"/>
      <point x="555" y="30"/>
      <point x="570" y="46"/>
      <point x="570" y="69" type="curve" smooth="yes"/>
      <point x="569" y="147" type="line" smooth="yes"/>
      <point x="568" y="172"/>
      <point x="551" y="188"/>
      <point x="526" y="187" type="curve" smooth="yes"/>
      <point x="276" y="174" type="line"/>
      <point x="288" y="279" type="line"/>
      <point x="437" y="278" type="line" smooth="yes"/>
      <point x="464" y="278"/>
      <point x="480" y="295"/>
      <point x="477" y="321" type="curve" smooth="yes"/>
      <point x="472" y="391" type="line" smooth="yes"/>
      <point x="470" y="412"/>
      <point x="454" y="427"/>
      <point x="433" y="427" type="curve" smooth="yes"/>
      <point x="293" y="429" type="line"/>
      <point x="306" y="527" type="line"/>
      <point x="508" y="517" type="line" smooth="yes"/>
      <point x="534" y="516"/>
      <point x="551" y="532"/>
      <point x="550" y="558" type="curve" smooth="yes"/>
      <point x="548" y="634" type="line" smooth="yes"/>
      <point x="547" y="655"/>
      <point x="532" y="671"/>
      <point x="511" y="673" type="curve" smooth="yes"/>
      <point x="115" y="700" type="line" smooth="yes"/>
      <point x="90" y="702"/>
      <point x="73" y="687"/>
      <point x="72" y="662" type="curve" smooth="yes"/>
    </contour>
    <contour>
      <point x="350" y="758" type="line" smooth="yes"/>
      <point x="349" y="737"/>
      <point x="363" y="720"/>
      <point x="385" y="717" type="curve" smooth="yes"/>
      <point x="431" y="711" type="line" smooth="yes"/>
      <point x="456" y="708"/>
      <point x="474" y="722"/>
      <point x="476" y="747" type="curve" smooth="yes"/>
      <point x="481" y="790" type="line" smooth="yes"/>
      <point x="483" y="813"/>
      <point x="469" y="831"/>
      <point x="446" y="834" type="curve" smooth="yes"/>
      <point x="397" y="840" type="line" smooth="yes"/>
      <point x="370" y="844"/>
      <point x="352" y="828"/>
      <point x="352" y="802" type="curve" smooth="yes"/>
    </contour>
    <contour>
      <point x="137" y="750" type="line" smooth="yes"/>
      <point x="141" y="728"/>
      <point x="158" y="715"/>
      <point x="180" y="716" type="curve" smooth="yes"/>
      <point x="231" y="720" type="line" smooth="yes"/>
      <point x="252" y="721"/>
      <point x="266" y="735"/>
      <point x="269" y="756" type="curve"/>
      <point x="273" y="800" type="line" smooth="yes"/>
      <point x="276" y="827"/>
      <point x="260" y="845"/>
      <point x="233" y="844" type="curve"/>
      <point x="169" y="844" type="line"/>
      <point x="141" y="843"/>
      <point x="126" y="825"/>
      <point x="130" y="797" type="curve" smooth="yes"/>
    </contour>
  </outline>
</glyph>
<glyph name="Igrave" format="2">
  <advance width="284"/>
  <unicode hex="00CC"/>
  <outline>
    <contour>
      <point x="36" y="52" type="line" smooth="yes"/>
      <point x="36" y="26"/>
      <point x="53" y="10"/>
      <point x="79" y="12" type="curve" smooth="yes"/>
      <point x="210" y="20" type="line" smooth="yes"/>
      <point x="233" y="21"/>
      <point x="248" y="37"/>
      <point x="248" y="60" type="curve" smooth="yes"/>
      <point x="242" y="655" type="line" smooth="yes"/>
      <point x="242" y="680"/>
      <point x="226" y="696"/>
      <point x="201" y="695" type="curve" smooth="yes"/>
      <point x="80" y="692" type="line" smooth="yes"/>
      <point x="56" y="691"/>
      <point x="41" y="675"/>
      <point x="41" y="652" type="curve" smooth="yes"/>
    </contour>
    <contour>
      <point x="174" y="705" type="curve" smooth="yes"/>
      <point x="201" y="709" type="line" smooth="yes"/>
      <point x="229" y="713"/>
      <point x="242" y="734"/>
      <point x="233" y="761" type="curve" smooth="yes"/>
      <point x="210" y="829" type="line" smooth="yes"/>
      <point x="205" y="845"/>
      <point x="189" y="856"/>
      <point x="172" y="856" type="curve" smooth="yes"/>
      <point x="100" y="856" type="line" smooth="yes"/>
      <point x="44" y="856"/>
      <point x="33" y="829"/>
      <point x="71" y="788" type="curve" smooth="yes"/>
      <point x="139" y="717" type="line" smooth="yes"/>
      <point x="147" y="708"/>
      <point x="161" y="703"/>
    </contour>
  </outline>
</glyph>
<glyph name="Iacute" format="2">
  <advance width="284"/>
  <unicode hex="00CD"/>
  <outline>
    <contour>
      <point x="36" y="52" type="line" smooth="yes"/>
      <point x="36" y="26"/>
      <point x="53" y="10"/>
      <point x="79" y="12" type="curve" smooth="yes"/>
      <point x="210" y="20" type="line" smooth="yes"/>
      <point x="233" y="21"/>
      <point x="248" y="37"/>
      <point x="248" y="60" type="curve" smooth="yes"/>
      <point x="242" y="655" type="line" smooth="yes"/>
      <point x="242" y="680"/>
      <point x="226" y="696"/>
      <point x="201" y="695" type="curve" smooth="yes"/>
      <point x="80" y="692" type="line" smooth="yes"/>
      <point x="56" y="691"/>
      <point x="41" y="675"/>
      <point x="41" y="652" type="curve" smooth="yes"/>
    </contour>
    <contour>
      <point x="110" y="705" type="line" smooth="yes"/>
      <point x="123" y="703"/>
      <point x="137" y="708"/>
      <point x="145" y="717" type="curve" smooth="yes"/>
      <point x="213" y="788" type="line" smooth="yes"/>
      <point x="251" y="829"/>
      <point x="240" y="856"/>
      <point x="184" y="856" type="curve" smooth="yes"/>
      <point x="113" y="856" type="line" smooth="yes"/>
      <point x="95" y="856"/>
      <point x="80" y="845"/>
      <point x="75" y="829" type="curve" smooth="yes"/>
      <point x="52" y="761" type="line" smooth="yes"/>
      <point x="42" y="734"/>
      <point x="55" y="713"/>
      <point x="84" y="709" type="curve" smooth="yes"/>
    </contour>
  </outline>
</glyph>
<glyph name="Icircumflex" format="2">
  <advance width="284"/>
  <unicode hex="00CE"/>
  <outline>
    <contour>
      <point x="36" y="52" type="line" smooth="yes"/>
      <point x="36" y="26"/>
      <point x="53" y="10"/>
      <point x="79" y="12" type="curve" smooth="yes"/>
      <point x="210" y="20" type="line" smooth="yes"/>
      <point x="233" y="21"/>
      <point x="248" y="37"/>
      <point x="248" y="60" type="curve" smooth="yes"/>
      <point x="242" y="655" type="line" smooth="yes"/>
      <point x="242" y="680"/>
      <point x="226" y="696"/>
      <point x="201" y="695" type="curve" smooth="yes"/>
      <point x="80" y="692" type="line" smooth="yes"/>
      <point x="56" y="691"/>
      <point x="41" y="675"/>
      <point x="41" y="652" type="curve" smooth="yes"/>
    </contour>
    <contour>
      <point x="171" y="727" type="line"/>
      <point x="180" y="712"/>
      <point x="197" y="703"/>
      <point x="214" y="706" type="curve" smooth="yes"/>
      <point x="246" y="712" type="line" smooth="yes"/>
      <point x="279" y="718"/>
      <point x="290" y="742"/>
      <point x="273" y="771" type="curve" smooth="yes"/>
      <point x="236" y="835" type="line" smooth="yes"/>
      <point x="230" y="845"/>
      <point x="218" y="853"/>
      <point x="206" y="854" type="curve" smooth="yes"/>
      <point x="104" y="865" type="line" smooth="yes"/>
      <point x="90" y="867"/>
      <point x="76" y="860"/>
      <point x="67" y="849" type="curve"/>
      <point x="14" y="776" type="line" smooth="yes"/>
      <point x="-5" y="749"/>
      <point x="3" y="726"/>
      <point x="34" y="718" type="curve" smooth="yes"/>
      <point x="63" y="710" type="line" smooth="yes"/>
      <point x="77" y="706"/>
      <point x="93" y="711"/>
      <point x="102" y="721" type="curve"/>
      <point x="150" y="769" type="line"/>
    </contour>
  </outline>
</glyph>
